M48
; DRILL file {KiCad 9.0.4} date 2025-09-26T15:46:57+0530
; FORMAT={-:-/ absolute / metric / decimal}
; #@! TF.CreationDate,2025-09-26T15:46:57+05:30
; #@! TF.GenerationSoftware,Kicad,Pcbnew,9.0.4
; #@! TF.FileFunction,Plated,1,2,PTH
FMAT,2
METRIC
; #@! TA.AperFunction,Plated,PTH,ViaDrill
T1C0.300
; #@! TA.AperFunction,Plated,PTH,ComponentDrill
T2C0.950
%
G90
G05
T1
X123.5Y-48.5
X123.68Y-53.0
X125.0Y-67.0
X125.0Y-69.5
X126.907Y-58.092
X127.232Y-56.267
X128.5Y-52.5
X128.8Y-50.267
X129.0Y-58.0
X129.0Y-60.0
X129.5Y-48.5
X129.85Y-61.0
X130.5Y-49.0
X130.5Y-58.567
X131.8Y-49.267
X131.8Y-58.767
X131.85Y-48.469
X132.504Y-58.388
X133.1Y-49.267
X133.3Y-61.7
X133.75Y-48.75
X134.388Y-58.388
X134.8Y-44.767
X135.0Y-46.5
T2
X127.0Y-71.968
X127.05Y-41.8
X129.5Y-71.968
X129.55Y-41.8
X132.0Y-71.968
X132.05Y-41.8
M30
