%TF.GenerationSoftware,KiCad,Pcbnew,9.0.4*%
%TF.CreationDate,2025-09-26T15:47:01+05:30*%
%TF.ProjectId,EMG,454d472e-6b69-4636-9164-5f7063625858,rev?*%
%TF.SameCoordinates,Original*%
%TF.FileFunction,Legend,Top*%
%TF.FilePolarity,Positive*%
%FSLAX46Y46*%
G04 Gerber Fmt 4.6, Leading zero omitted, Abs format (unit mm)*
G04 Created by KiCad (PCBNEW 9.0.4) date 2025-09-26 15:47:01*
%MOMM*%
%LPD*%
G01*
G04 APERTURE LIST*
%ADD10C,0.120000*%
G04 APERTURE END LIST*
D10*
%TO.C,C8*%
X128575000Y-67456248D02*
X128575000Y-67978752D01*
X130045000Y-67456248D02*
X130045000Y-67978752D01*
%TO.C,C7*%
X130565000Y-67456248D02*
X130565000Y-67978752D01*
X132035000Y-67456248D02*
X132035000Y-67978752D01*
%TO.C,R3*%
X128565000Y-45502936D02*
X128565000Y-45957064D01*
X130035000Y-45502936D02*
X130035000Y-45957064D01*
%TO.C,C5*%
X126565000Y-64391252D02*
X126565000Y-63868748D01*
X128035000Y-64391252D02*
X128035000Y-63868748D01*
%TO.C,R2*%
X132565000Y-45590436D02*
X132565000Y-46044564D01*
X134035000Y-45590436D02*
X134035000Y-46044564D01*
%TO.C,C1*%
X126565000Y-46028752D02*
X126565000Y-45506248D01*
X128035000Y-46028752D02*
X128035000Y-45506248D01*
%TO.C,C2*%
X124565000Y-49578752D02*
X124565000Y-49056248D01*
X126035000Y-49578752D02*
X126035000Y-49056248D01*
%TO.C,U1*%
X129190000Y-53767500D02*
X129190000Y-51567500D01*
X129190000Y-53767500D02*
X129190000Y-55967500D01*
X134410000Y-53767500D02*
X134410000Y-51567500D01*
X134410000Y-53767500D02*
X134410000Y-55967500D01*
X134540000Y-51107500D02*
X134210000Y-50867500D01*
X134540000Y-50627500D01*
X134540000Y-51107500D01*
G36*
X134540000Y-51107500D02*
G01*
X134210000Y-50867500D01*
X134540000Y-50627500D01*
X134540000Y-51107500D01*
G37*
%TO.C,R6*%
X124565000Y-56952936D02*
X124565000Y-57407064D01*
X126035000Y-56952936D02*
X126035000Y-57407064D01*
%TO.C,R10*%
X132565000Y-67440436D02*
X132565000Y-67894564D01*
X134035000Y-67440436D02*
X134035000Y-67894564D01*
%TO.C,J1*%
X124390000Y-70357500D02*
X125610000Y-70357500D01*
X124390000Y-77557500D02*
X125610000Y-77557500D01*
X124390000Y-78777500D02*
X124390000Y-70357500D01*
X125610000Y-70357500D02*
X125610000Y-72557500D01*
X125610000Y-72557500D02*
X124390000Y-72557500D01*
X125610000Y-77557500D02*
X125610000Y-72557500D01*
X126680000Y-73557500D02*
X127000000Y-73557500D01*
X126680000Y-76977500D02*
X126680000Y-73557500D01*
X127000000Y-73557500D02*
X127320000Y-73557500D01*
X127000000Y-77057500D02*
X126680000Y-76977500D01*
X127320000Y-73557500D02*
X127320000Y-76977500D01*
X127320000Y-76977500D02*
X127000000Y-77057500D01*
X128330000Y-72557500D02*
X128170000Y-72557500D01*
X129180000Y-73557500D02*
X129500000Y-73557500D01*
X129180000Y-76977500D02*
X129180000Y-73557500D01*
X129500000Y-73557500D02*
X129820000Y-73557500D01*
X129500000Y-77057500D02*
X129180000Y-76977500D01*
X129820000Y-73557500D02*
X129820000Y-76977500D01*
X129820000Y-76977500D02*
X129500000Y-77057500D01*
X130830000Y-72557500D02*
X130670000Y-72557500D01*
X131680000Y-73557500D02*
X132000000Y-73557500D01*
X131680000Y-76977500D02*
X131680000Y-73557500D01*
X131700000Y-69867500D02*
X132000000Y-70467500D01*
X132000000Y-70467500D02*
X132300000Y-69867500D01*
X132000000Y-73557500D02*
X132320000Y-73557500D01*
X132000000Y-77057500D02*
X131680000Y-76977500D01*
X132300000Y-69867500D02*
X131700000Y-69867500D01*
X132320000Y-73557500D02*
X132320000Y-76977500D01*
X132320000Y-76977500D02*
X132000000Y-77057500D01*
X133390000Y-70357500D02*
X134610000Y-70357500D01*
X133390000Y-72557500D02*
X133390000Y-70357500D01*
X133390000Y-72557500D02*
X134610000Y-72557500D01*
X133390000Y-73557500D02*
X125610000Y-73557500D01*
X133390000Y-77557500D02*
X133390000Y-72557500D01*
X134610000Y-70357500D02*
X134610000Y-78777500D01*
X134610000Y-77557500D02*
X133390000Y-77557500D01*
X134610000Y-78777500D02*
X124390000Y-78777500D01*
%TO.C,C3*%
X130565000Y-45556248D02*
X130565000Y-46078752D01*
X132035000Y-45556248D02*
X132035000Y-46078752D01*
%TO.C,J2*%
X124440000Y-34990000D02*
X134660000Y-34990000D01*
X124440000Y-36210000D02*
X125660000Y-36210000D01*
X124440000Y-43410000D02*
X124440000Y-34990000D01*
X125660000Y-36210000D02*
X125660000Y-41210000D01*
X125660000Y-40210000D02*
X133440000Y-40210000D01*
X125660000Y-41210000D02*
X124440000Y-41210000D01*
X125660000Y-41210000D02*
X125660000Y-43410000D01*
X125660000Y-43410000D02*
X124440000Y-43410000D01*
X126730000Y-36790000D02*
X127050000Y-36710000D01*
X126730000Y-40210000D02*
X126730000Y-36790000D01*
X126750000Y-43900000D02*
X127350000Y-43900000D01*
X127050000Y-36710000D02*
X127370000Y-36790000D01*
X127050000Y-40210000D02*
X126730000Y-40210000D01*
X127050000Y-43300000D02*
X126750000Y-43900000D01*
X127350000Y-43900000D02*
X127050000Y-43300000D01*
X127370000Y-36790000D02*
X127370000Y-40210000D01*
X127370000Y-40210000D02*
X127050000Y-40210000D01*
X128220000Y-41210000D02*
X128380000Y-41210000D01*
X129230000Y-36790000D02*
X129550000Y-36710000D01*
X129230000Y-40210000D02*
X129230000Y-36790000D01*
X129550000Y-36710000D02*
X129870000Y-36790000D01*
X129550000Y-40210000D02*
X129230000Y-40210000D01*
X129870000Y-36790000D02*
X129870000Y-40210000D01*
X129870000Y-40210000D02*
X129550000Y-40210000D01*
X130720000Y-41210000D02*
X130880000Y-41210000D01*
X131730000Y-36790000D02*
X132050000Y-36710000D01*
X131730000Y-40210000D02*
X131730000Y-36790000D01*
X132050000Y-36710000D02*
X132370000Y-36790000D01*
X132050000Y-40210000D02*
X131730000Y-40210000D01*
X132370000Y-36790000D02*
X132370000Y-40210000D01*
X132370000Y-40210000D02*
X132050000Y-40210000D01*
X133440000Y-36210000D02*
X133440000Y-41210000D01*
X133440000Y-41210000D02*
X134660000Y-41210000D01*
X133440000Y-43410000D02*
X133440000Y-41210000D01*
X134660000Y-34990000D02*
X134660000Y-43410000D01*
X134660000Y-36210000D02*
X133440000Y-36210000D01*
X134660000Y-43410000D02*
X133440000Y-43410000D01*
%TO.C,R5*%
X126537064Y-53445000D02*
X126082936Y-53445000D01*
X126537064Y-54915000D02*
X126082936Y-54915000D01*
%TO.C,R1*%
X126565000Y-49544564D02*
X126565000Y-49090436D01*
X128035000Y-49544564D02*
X128035000Y-49090436D01*
%TO.C,R8*%
X128565000Y-64407064D02*
X128565000Y-63952936D01*
X130035000Y-64407064D02*
X130035000Y-63952936D01*
%TO.C,C9*%
X126565000Y-67456248D02*
X126565000Y-67978752D01*
X128035000Y-67456248D02*
X128035000Y-67978752D01*
%TO.C,R9*%
X132565000Y-64027936D02*
X132565000Y-64482064D01*
X134035000Y-64027936D02*
X134035000Y-64482064D01*
%TO.C,C4*%
X124575000Y-63868748D02*
X124575000Y-64391252D01*
X126045000Y-63868748D02*
X126045000Y-64391252D01*
%TO.C,C6*%
X130565000Y-63956248D02*
X130565000Y-64478752D01*
X132035000Y-63956248D02*
X132035000Y-64478752D01*
%TO.C,R4*%
X126082936Y-51445000D02*
X126537064Y-51445000D01*
X126082936Y-52915000D02*
X126537064Y-52915000D01*
%TO.C,R7*%
X124565000Y-60452936D02*
X124565000Y-60907064D01*
X126035000Y-60452936D02*
X126035000Y-60907064D01*
%TD*%
M02*
