%TF.GenerationSoftware,KiCad,Pcbnew,9.0.4*%
%TF.CreationDate,2025-09-26T15:47:01+05:30*%
%TF.ProjectId,EMG,454d472e-6b69-4636-9164-5f7063625858,rev?*%
%TF.SameCoordinates,Original*%
%TF.FileFunction,Soldermask,Top*%
%TF.FilePolarity,Negative*%
%FSLAX46Y46*%
G04 Gerber Fmt 4.6, Leading zero omitted, Abs format (unit mm)*
G04 Created by KiCad (PCBNEW 9.0.4) date 2025-09-26 15:47:01*
%MOMM*%
%LPD*%
G01*
G04 APERTURE LIST*
G04 Aperture macros list*
%AMRoundRect*
0 Rectangle with rounded corners*
0 $1 Rounding radius*
0 $2 $3 $4 $5 $6 $7 $8 $9 X,Y pos of 4 corners*
0 Add a 4 corners polygon primitive as box body*
4,1,4,$2,$3,$4,$5,$6,$7,$8,$9,$2,$3,0*
0 Add four circle primitives for the rounded corners*
1,1,$1+$1,$2,$3*
1,1,$1+$1,$4,$5*
1,1,$1+$1,$6,$7*
1,1,$1+$1,$8,$9*
0 Add four rect primitives between the rounded corners*
20,1,$1+$1,$2,$3,$4,$5,0*
20,1,$1+$1,$4,$5,$6,$7,0*
20,1,$1+$1,$6,$7,$8,$9,0*
20,1,$1+$1,$8,$9,$2,$3,0*%
G04 Aperture macros list end*
%ADD10RoundRect,0.250000X-0.475000X0.250000X-0.475000X-0.250000X0.475000X-0.250000X0.475000X0.250000X0*%
%ADD11RoundRect,0.250000X-0.450000X0.262500X-0.450000X-0.262500X0.450000X-0.262500X0.450000X0.262500X0*%
%ADD12RoundRect,0.250000X0.475000X-0.250000X0.475000X0.250000X-0.475000X0.250000X-0.475000X-0.250000X0*%
%ADD13RoundRect,0.100000X-0.100000X0.637500X-0.100000X-0.637500X0.100000X-0.637500X0.100000X0.637500X0*%
%ADD14RoundRect,0.250000X0.600000X0.725000X-0.600000X0.725000X-0.600000X-0.725000X0.600000X-0.725000X0*%
%ADD15O,1.700000X1.950000*%
%ADD16RoundRect,0.250000X-0.600000X-0.725000X0.600000X-0.725000X0.600000X0.725000X-0.600000X0.725000X0*%
%ADD17RoundRect,0.250000X0.262500X0.450000X-0.262500X0.450000X-0.262500X-0.450000X0.262500X-0.450000X0*%
%ADD18RoundRect,0.250000X0.450000X-0.262500X0.450000X0.262500X-0.450000X0.262500X-0.450000X-0.262500X0*%
%ADD19RoundRect,0.250000X-0.262500X-0.450000X0.262500X-0.450000X0.262500X0.450000X-0.262500X0.450000X0*%
G04 APERTURE END LIST*
D10*
%TO.C,C8*%
X129310000Y-66767500D03*
X129310000Y-68667500D03*
%TD*%
%TO.C,C7*%
X131300000Y-66767500D03*
X131300000Y-68667500D03*
%TD*%
D11*
%TO.C,R3*%
X129300000Y-44817500D03*
X129300000Y-46642500D03*
%TD*%
D12*
%TO.C,C5*%
X127300000Y-65080000D03*
X127300000Y-63180000D03*
%TD*%
D11*
%TO.C,R2*%
X133300000Y-44905000D03*
X133300000Y-46730000D03*
%TD*%
D12*
%TO.C,C1*%
X127300000Y-46717500D03*
X127300000Y-44817500D03*
%TD*%
%TO.C,C2*%
X125300000Y-50267500D03*
X125300000Y-48367500D03*
%TD*%
D13*
%TO.C,U1*%
X133750000Y-50905000D03*
X133100000Y-50905000D03*
X132450000Y-50905000D03*
X131800000Y-50905000D03*
X131150000Y-50905000D03*
X130500000Y-50905000D03*
X129850000Y-50905000D03*
X129850000Y-56630000D03*
X130500000Y-56630000D03*
X131150000Y-56630000D03*
X131800000Y-56630000D03*
X132450000Y-56630000D03*
X133100000Y-56630000D03*
X133750000Y-56630000D03*
%TD*%
D11*
%TO.C,R6*%
X125300000Y-56267500D03*
X125300000Y-58092500D03*
%TD*%
%TO.C,R10*%
X133300000Y-66755000D03*
X133300000Y-68580000D03*
%TD*%
D14*
%TO.C,J1*%
X132000000Y-71967500D03*
D15*
X129500000Y-71967500D03*
X127000000Y-71967500D03*
%TD*%
D10*
%TO.C,C3*%
X131300000Y-44867500D03*
X131300000Y-46767500D03*
%TD*%
D16*
%TO.C,J2*%
X127050000Y-41800000D03*
D15*
X129550000Y-41800000D03*
X132050000Y-41800000D03*
%TD*%
D17*
%TO.C,R5*%
X127222500Y-54180000D03*
X125397500Y-54180000D03*
%TD*%
D18*
%TO.C,R1*%
X127300000Y-50230000D03*
X127300000Y-48405000D03*
%TD*%
%TO.C,R8*%
X129300000Y-65092500D03*
X129300000Y-63267500D03*
%TD*%
D10*
%TO.C,C9*%
X127300000Y-66767500D03*
X127300000Y-68667500D03*
%TD*%
D11*
%TO.C,R9*%
X133300000Y-63342500D03*
X133300000Y-65167500D03*
%TD*%
D10*
%TO.C,C4*%
X125310000Y-63180000D03*
X125310000Y-65080000D03*
%TD*%
%TO.C,C6*%
X131300000Y-63267500D03*
X131300000Y-65167500D03*
%TD*%
D19*
%TO.C,R4*%
X125397500Y-52180000D03*
X127222500Y-52180000D03*
%TD*%
D11*
%TO.C,R7*%
X125300000Y-59767500D03*
X125300000Y-61592500D03*
%TD*%
M02*
