%TF.GenerationSoftware,KiCad,Pcbnew,9.0.4*%
%TF.CreationDate,2025-09-27T14:14:02+05:30*%
%TF.ProjectId,EEG,4545472e-6b69-4636-9164-5f7063625858,rev?*%
%TF.SameCoordinates,Original*%
%TF.FileFunction,Copper,L2,Bot*%
%TF.FilePolarity,Positive*%
%FSLAX46Y46*%
G04 Gerber Fmt 4.6, Leading zero omitted, Abs format (unit mm)*
G04 Created by KiCad (PCBNEW 9.0.4) date 2025-09-27 14:14:02*
%MOMM*%
%LPD*%
G01*
G04 APERTURE LIST*
G04 Aperture macros list*
%AMRoundRect*
0 Rectangle with rounded corners*
0 $1 Rounding radius*
0 $2 $3 $4 $5 $6 $7 $8 $9 X,Y pos of 4 corners*
0 Add a 4 corners polygon primitive as box body*
4,1,4,$2,$3,$4,$5,$6,$7,$8,$9,$2,$3,0*
0 Add four circle primitives for the rounded corners*
1,1,$1+$1,$2,$3*
1,1,$1+$1,$4,$5*
1,1,$1+$1,$6,$7*
1,1,$1+$1,$8,$9*
0 Add four rect primitives between the rounded corners*
20,1,$1+$1,$2,$3,$4,$5,0*
20,1,$1+$1,$4,$5,$6,$7,0*
20,1,$1+$1,$6,$7,$8,$9,0*
20,1,$1+$1,$8,$9,$2,$3,0*%
G04 Aperture macros list end*
%TA.AperFunction,ComponentPad*%
%ADD10RoundRect,0.250000X0.725000X-0.600000X0.725000X0.600000X-0.725000X0.600000X-0.725000X-0.600000X0*%
%TD*%
%TA.AperFunction,ComponentPad*%
%ADD11O,1.950000X1.700000*%
%TD*%
%TA.AperFunction,ComponentPad*%
%ADD12C,1.620000*%
%TD*%
%TA.AperFunction,ComponentPad*%
%ADD13RoundRect,0.250000X-0.725000X0.600000X-0.725000X-0.600000X0.725000X-0.600000X0.725000X0.600000X0*%
%TD*%
%TA.AperFunction,ViaPad*%
%ADD14C,0.600000*%
%TD*%
%TA.AperFunction,Conductor*%
%ADD15C,0.200000*%
%TD*%
G04 APERTURE END LIST*
D10*
%TO.P,J2,1,Pin_1*%
%TO.N,bioIN-*%
X111500000Y-86000000D03*
D11*
%TO.P,J2,2,Pin_2*%
%TO.N,bioIN+*%
X111500000Y-83500000D03*
%TO.P,J2,3,Pin_3*%
%TO.N,bioRef*%
X111500000Y-81000000D03*
%TD*%
D12*
%TO.P,RV1,1,1*%
%TO.N,unconnected-(RV1-Pad1)*%
X156000000Y-89500000D03*
%TO.P,RV1,2,2*%
%TO.N,Net-(R10-Pad1)*%
X153500000Y-92000000D03*
%TO.P,RV1,3,3*%
%TO.N,GND*%
X151000000Y-89500000D03*
%TD*%
D13*
%TO.P,J1,1,Pin_1*%
%TO.N,+9V*%
X160000000Y-77000000D03*
D11*
%TO.P,J1,2,Pin_2*%
%TO.N,GND*%
X160000000Y-79500000D03*
%TO.P,J1,3,Pin_3*%
%TO.N,Sound Card*%
X160000000Y-82000000D03*
%TD*%
D14*
%TO.N,Net-(U5A-+)*%
X128500000Y-95399000D03*
X151000000Y-85175000D03*
%TO.N,Net-(U6A-+)*%
X129000000Y-83000000D03*
%TO.N,Net-(U2A-+)*%
X114000000Y-92000000D03*
%TO.N,Net-(U4A--)*%
X150000000Y-73500000D03*
%TO.N,Net-(U3A--)*%
X130000000Y-78500000D03*
%TO.N,Net-(U2A-+)*%
X137000000Y-84500000D03*
%TO.N,Net-(U2A--)*%
X136500000Y-76500000D03*
%TO.N,Net-(C8-Pad1)*%
X133500000Y-81000000D03*
%TO.N,Net-(U6A--)*%
X157000000Y-73000000D03*
%TO.N,Net-(C7-Pad2)*%
X148500000Y-78500000D03*
%TO.N,Sound Card*%
X154000000Y-80000000D03*
%TO.N,Net-(U5A--)*%
X155500000Y-77000000D03*
%TO.N,Net-(C4-Pad1)*%
X134500000Y-75000000D03*
X145000000Y-76500000D03*
%TO.N,Net-(C1-Pad2)*%
X138000000Y-81500000D03*
X135500000Y-73500000D03*
%TO.N,Net-(U5A-+)*%
X127500000Y-93000000D03*
%TO.N,Net-(U5A--)*%
X127500000Y-92000000D03*
%TO.N,Net-(C8-Pad1)*%
X122000000Y-92000000D03*
%TO.N,Net-(U4A--)*%
X122000000Y-93500000D03*
%TO.N,Net-(U6A-+)*%
X132000000Y-93500000D03*
%TO.N,Net-(U6A--)*%
X132000000Y-92500000D03*
%TO.N,Net-(C7-Pad2)*%
X132500000Y-91500000D03*
%TO.N,Net-(U3A--)*%
X119000000Y-91000000D03*
%TO.N,Net-(C4-Pad1)*%
X119000000Y-90000000D03*
%TO.N,Net-(U2A-+)*%
X114000000Y-90000000D03*
%TO.N,Net-(U2A--)*%
X114750000Y-89250000D03*
%TO.N,GND*%
X113500000Y-83500000D03*
X113500000Y-86500000D03*
%TD*%
D15*
%TO.N,Net-(C4-Pad1)*%
X128150057Y-75000000D02*
X134500000Y-75000000D01*
X113399000Y-89751057D02*
X128150057Y-75000000D01*
X113399000Y-90248943D02*
X113399000Y-89751057D01*
X114148057Y-90998000D02*
X113399000Y-90248943D01*
X114767100Y-91350057D02*
X114415043Y-90998000D01*
X118149943Y-91350057D02*
X114767100Y-91350057D01*
X118399000Y-91101000D02*
X118149943Y-91350057D01*
X118399000Y-90751057D02*
X118399000Y-91101000D01*
X119000000Y-90399000D02*
X118751057Y-90399000D01*
X118751057Y-90399000D02*
X118399000Y-90751057D01*
X114415043Y-90998000D02*
X114148057Y-90998000D01*
X119000000Y-90000000D02*
X119000000Y-90399000D01*
%TO.N,Net-(U5A--)*%
X132150057Y-91000000D02*
X128500000Y-91000000D01*
X146150057Y-77000000D02*
X132150057Y-91000000D01*
X155500000Y-77000000D02*
X146150057Y-77000000D01*
X128500000Y-91000000D02*
X127500000Y-92000000D01*
%TO.N,Net-(U5A-+)*%
X140776000Y-95399000D02*
X128601000Y-95399000D01*
X151000000Y-85175000D02*
X140776000Y-95399000D01*
%TO.N,GND*%
X154428808Y-89500000D02*
X151000000Y-89500000D01*
X161276000Y-80776000D02*
X161276000Y-82652808D01*
X160000000Y-79500000D02*
X161276000Y-80776000D01*
X161276000Y-82652808D02*
X154428808Y-89500000D01*
%TO.N,Net-(U6A-+)*%
X130998000Y-94502000D02*
X132000000Y-93500000D01*
X115652057Y-94502000D02*
X130998000Y-94502000D01*
X113399000Y-92248943D02*
X115652057Y-94502000D01*
X113399000Y-91751057D02*
X113399000Y-92248943D01*
X113751057Y-91399000D02*
X113399000Y-91751057D01*
X114248943Y-91399000D02*
X113751057Y-91399000D01*
X114601000Y-91751057D02*
X114248943Y-91399000D01*
X120248943Y-91751057D02*
X114601000Y-91751057D01*
X129000000Y-83000000D02*
X120248943Y-91751057D01*
%TO.N,Net-(U2A-+)*%
X116101000Y-94101000D02*
X114000000Y-92000000D01*
X123399000Y-94101000D02*
X116101000Y-94101000D01*
X133000000Y-84500000D02*
X123399000Y-94101000D01*
X137000000Y-84500000D02*
X133000000Y-84500000D01*
%TO.N,Net-(U4A--)*%
X148849943Y-73500000D02*
X150000000Y-73500000D01*
X139349943Y-83000000D02*
X148849943Y-73500000D01*
X132500000Y-83000000D02*
X139349943Y-83000000D01*
X122000000Y-93500000D02*
X132500000Y-83000000D01*
%TO.N,Net-(U3A--)*%
X130000000Y-80000000D02*
X130000000Y-78500000D01*
X119000000Y-91000000D02*
X130000000Y-80000000D01*
%TO.N,Net-(U2A--)*%
X127500000Y-76500000D02*
X136500000Y-76500000D01*
X114750000Y-89250000D02*
X127500000Y-76500000D01*
%TO.N,Net-(C8-Pad1)*%
X130000000Y-81500000D02*
X130500000Y-81000000D01*
X130500000Y-81000000D02*
X133500000Y-81000000D01*
X122000000Y-92000000D02*
X130000000Y-84000000D01*
X130000000Y-84000000D02*
X130000000Y-81500000D01*
%TO.N,Net-(U6A--)*%
X157000000Y-76349943D02*
X157000000Y-73000000D01*
X155748943Y-77601000D02*
X157000000Y-76349943D01*
X155549057Y-77601000D02*
X155748943Y-77601000D01*
X140650057Y-92500000D02*
X155549057Y-77601000D01*
X132000000Y-92500000D02*
X140650057Y-92500000D01*
%TO.N,Net-(C7-Pad2)*%
X135500000Y-91500000D02*
X148500000Y-78500000D01*
X132500000Y-91500000D02*
X135500000Y-91500000D01*
%TO.N,Sound Card*%
X156000000Y-82000000D02*
X160000000Y-82000000D01*
X154000000Y-80000000D02*
X156000000Y-82000000D01*
%TO.N,Net-(C4-Pad1)*%
X133500000Y-74000000D02*
X134500000Y-75000000D01*
X133500000Y-72000000D02*
X133500000Y-74000000D01*
X145000000Y-72000000D02*
X133500000Y-72000000D01*
X145000000Y-76500000D02*
X145000000Y-72000000D01*
%TO.N,Net-(C1-Pad2)*%
X138000000Y-76000000D02*
X138000000Y-81500000D01*
X135500000Y-73500000D02*
X138000000Y-76000000D01*
%TO.N,GND*%
X113500000Y-83500000D02*
X113500000Y-86500000D01*
%TD*%
%TA.AperFunction,NonConductor*%
G36*
X157308363Y-70020185D02*
G01*
X157329005Y-70036819D01*
X160599500Y-73307314D01*
X160692686Y-73400500D01*
X160806814Y-73466392D01*
X160934107Y-73500500D01*
X160934108Y-73500500D01*
X167875500Y-73500500D01*
X167942539Y-73520185D01*
X167988294Y-73572989D01*
X167999500Y-73624500D01*
X167999500Y-85375500D01*
X167979815Y-85442539D01*
X167927011Y-85488294D01*
X167875500Y-85499500D01*
X165934108Y-85499500D01*
X165806812Y-85533608D01*
X165692686Y-85599500D01*
X165692683Y-85599502D01*
X165599502Y-85692683D01*
X165599500Y-85692686D01*
X165533608Y-85806812D01*
X165499500Y-85934108D01*
X165499500Y-97375500D01*
X165479815Y-97442539D01*
X165427011Y-97488294D01*
X165375500Y-97499500D01*
X111124500Y-97499500D01*
X111057461Y-97479815D01*
X111011706Y-97427011D01*
X111000500Y-97375500D01*
X111000500Y-90934110D01*
X111000500Y-90934108D01*
X110966392Y-90806814D01*
X110900500Y-90692686D01*
X110807314Y-90599500D01*
X110750250Y-90566554D01*
X110693187Y-90533608D01*
X110629539Y-90516554D01*
X110565892Y-90499500D01*
X110565891Y-90499500D01*
X102624500Y-90499500D01*
X102557461Y-90479815D01*
X102511706Y-90427011D01*
X102500500Y-90375500D01*
X102500500Y-90327997D01*
X112798498Y-90327997D01*
X112839423Y-90480728D01*
X112847504Y-90494724D01*
X112847505Y-90494726D01*
X112918477Y-90617655D01*
X112918481Y-90617660D01*
X113037349Y-90736528D01*
X113037355Y-90736533D01*
X113213140Y-90912318D01*
X113246625Y-90973641D01*
X113241641Y-91043333D01*
X113213140Y-91087680D01*
X113023214Y-91277605D01*
X113023215Y-91277606D01*
X112918478Y-91382343D01*
X112907996Y-91400500D01*
X112887540Y-91435931D01*
X112839423Y-91519272D01*
X112798499Y-91672000D01*
X112798499Y-91672002D01*
X112798499Y-91840103D01*
X112798500Y-91840116D01*
X112798500Y-92162273D01*
X112798499Y-92162291D01*
X112798499Y-92327997D01*
X112798498Y-92327997D01*
X112839423Y-92480728D01*
X112847504Y-92494724D01*
X112847505Y-92494726D01*
X112918477Y-92617655D01*
X112918481Y-92617660D01*
X113037349Y-92736528D01*
X113037354Y-92736532D01*
X115283341Y-94982520D01*
X115283343Y-94982521D01*
X115283347Y-94982524D01*
X115420266Y-95061573D01*
X115420273Y-95061577D01*
X115573000Y-95102501D01*
X115573002Y-95102501D01*
X115738711Y-95102501D01*
X115738727Y-95102500D01*
X127591700Y-95102500D01*
X127658739Y-95122185D01*
X127704494Y-95174989D01*
X127714438Y-95244147D01*
X127713317Y-95250691D01*
X127699500Y-95320153D01*
X127699500Y-95477846D01*
X127730261Y-95632489D01*
X127730264Y-95632501D01*
X127790602Y-95778172D01*
X127790609Y-95778185D01*
X127878210Y-95909288D01*
X127878213Y-95909292D01*
X127989707Y-96020786D01*
X127989711Y-96020789D01*
X128120814Y-96108390D01*
X128120827Y-96108397D01*
X128266498Y-96168735D01*
X128266503Y-96168737D01*
X128421153Y-96199499D01*
X128421156Y-96199500D01*
X128421158Y-96199500D01*
X128578844Y-96199500D01*
X128578845Y-96199499D01*
X128733497Y-96168737D01*
X128879179Y-96108394D01*
X128879185Y-96108390D01*
X129010875Y-96020398D01*
X129077553Y-95999520D01*
X129079766Y-95999500D01*
X140689331Y-95999500D01*
X140689347Y-95999501D01*
X140696943Y-95999501D01*
X140855054Y-95999501D01*
X140855057Y-95999501D01*
X141007785Y-95958577D01*
X141057904Y-95929639D01*
X141144716Y-95879520D01*
X141256520Y-95767716D01*
X141256520Y-95767714D01*
X141266728Y-95757507D01*
X141266729Y-95757504D01*
X145127372Y-91896861D01*
X152189500Y-91896861D01*
X152189500Y-92103139D01*
X152192301Y-92120821D01*
X152221769Y-92306877D01*
X152221769Y-92306880D01*
X152285510Y-92503054D01*
X152346007Y-92621786D01*
X152379160Y-92686852D01*
X152500407Y-92853733D01*
X152646267Y-92999593D01*
X152813148Y-93120840D01*
X152973692Y-93202641D01*
X152996945Y-93214489D01*
X153193120Y-93278230D01*
X153193121Y-93278230D01*
X153193124Y-93278231D01*
X153396861Y-93310500D01*
X153396862Y-93310500D01*
X153603138Y-93310500D01*
X153603139Y-93310500D01*
X153806876Y-93278231D01*
X153806879Y-93278230D01*
X153806880Y-93278230D01*
X154003054Y-93214489D01*
X154003054Y-93214488D01*
X154003057Y-93214488D01*
X154186852Y-93120840D01*
X154353733Y-92999593D01*
X154499593Y-92853733D01*
X154620840Y-92686852D01*
X154714488Y-92503057D01*
X154741100Y-92421153D01*
X154778230Y-92306880D01*
X154778230Y-92306879D01*
X154778231Y-92306876D01*
X154810500Y-92103139D01*
X154810500Y-91896861D01*
X154778231Y-91693124D01*
X154778230Y-91693120D01*
X154778230Y-91693119D01*
X154714489Y-91496945D01*
X154710803Y-91489711D01*
X154620840Y-91313148D01*
X154499593Y-91146267D01*
X154353733Y-91000407D01*
X154186852Y-90879160D01*
X154003054Y-90785510D01*
X153806879Y-90721769D01*
X153654073Y-90697567D01*
X153603139Y-90689500D01*
X153396861Y-90689500D01*
X153328948Y-90700256D01*
X153193122Y-90721769D01*
X153193119Y-90721769D01*
X152996945Y-90785510D01*
X152813147Y-90879160D01*
X152646265Y-91000408D01*
X152500408Y-91146265D01*
X152379160Y-91313147D01*
X152285510Y-91496945D01*
X152221769Y-91693119D01*
X152221769Y-91693122D01*
X152200072Y-91830114D01*
X152189500Y-91896861D01*
X145127372Y-91896861D01*
X151014662Y-86009572D01*
X151075983Y-85976089D01*
X151078150Y-85975638D01*
X151136085Y-85964113D01*
X151233497Y-85944737D01*
X151379179Y-85884394D01*
X151510289Y-85796789D01*
X151621789Y-85685289D01*
X151709394Y-85554179D01*
X151769737Y-85408497D01*
X151800500Y-85253842D01*
X151800500Y-85096158D01*
X151800500Y-85096155D01*
X151800499Y-85096153D01*
X151769738Y-84941510D01*
X151769738Y-84941508D01*
X151769737Y-84941503D01*
X151724714Y-84832807D01*
X151709397Y-84795827D01*
X151709390Y-84795814D01*
X151621789Y-84664711D01*
X151621786Y-84664707D01*
X151510292Y-84553213D01*
X151510288Y-84553210D01*
X151379185Y-84465609D01*
X151379172Y-84465602D01*
X151233501Y-84405264D01*
X151233489Y-84405261D01*
X151078845Y-84374500D01*
X151078842Y-84374500D01*
X150921158Y-84374500D01*
X150921155Y-84374500D01*
X150766510Y-84405261D01*
X150766498Y-84405264D01*
X150620827Y-84465602D01*
X150620814Y-84465609D01*
X150489711Y-84553210D01*
X150489707Y-84553213D01*
X150378213Y-84664707D01*
X150378210Y-84664711D01*
X150290609Y-84795814D01*
X150290602Y-84795827D01*
X150230264Y-84941498D01*
X150230261Y-84941508D01*
X150199361Y-85096850D01*
X150166976Y-85158761D01*
X150165425Y-85160339D01*
X140563584Y-94762181D01*
X140502261Y-94795666D01*
X140475903Y-94798500D01*
X131850097Y-94798500D01*
X131783058Y-94778815D01*
X131737303Y-94726011D01*
X131727359Y-94656853D01*
X131756384Y-94593297D01*
X131762416Y-94586819D01*
X132014662Y-94334572D01*
X132075983Y-94301089D01*
X132078150Y-94300638D01*
X132136085Y-94289113D01*
X132233497Y-94269737D01*
X132379179Y-94209394D01*
X132510289Y-94121789D01*
X132621789Y-94010289D01*
X132709394Y-93879179D01*
X132769737Y-93733497D01*
X132800500Y-93578842D01*
X132800500Y-93421158D01*
X132800500Y-93421155D01*
X132800499Y-93421153D01*
X132792148Y-93379172D01*
X132769737Y-93266503D01*
X132769732Y-93266492D01*
X132767969Y-93260676D01*
X132770720Y-93259841D01*
X132764497Y-93202641D01*
X132795691Y-93140122D01*
X132855734Y-93104392D01*
X132886555Y-93100500D01*
X140563388Y-93100500D01*
X140563404Y-93100501D01*
X140571000Y-93100501D01*
X140729111Y-93100501D01*
X140729114Y-93100501D01*
X140881842Y-93059577D01*
X140951290Y-93019481D01*
X141018773Y-92980520D01*
X141130577Y-92868716D01*
X141130577Y-92868714D01*
X141140781Y-92858511D01*
X141140784Y-92858506D01*
X153350490Y-80648801D01*
X153411811Y-80615318D01*
X153481503Y-80620302D01*
X153507060Y-80633382D01*
X153620814Y-80709390D01*
X153620827Y-80709397D01*
X153718853Y-80750000D01*
X153766503Y-80769737D01*
X153831147Y-80782595D01*
X153921849Y-80800638D01*
X153983760Y-80833023D01*
X153985339Y-80834574D01*
X155515139Y-82364374D01*
X155515149Y-82364385D01*
X155519479Y-82368715D01*
X155519480Y-82368716D01*
X155631284Y-82480520D01*
X155698758Y-82519475D01*
X155718095Y-82530639D01*
X155718097Y-82530641D01*
X155756151Y-82552611D01*
X155768215Y-82559577D01*
X155920943Y-82600500D01*
X156079057Y-82600500D01*
X158589281Y-82600500D01*
X158656320Y-82620185D01*
X158699765Y-82668205D01*
X158719947Y-82707814D01*
X158719948Y-82707815D01*
X158844890Y-82879786D01*
X158995213Y-83030109D01*
X159167179Y-83155048D01*
X159167181Y-83155049D01*
X159167184Y-83155051D01*
X159223523Y-83183757D01*
X159356583Y-83251555D01*
X159356585Y-83251555D01*
X159356588Y-83251557D01*
X159519957Y-83304639D01*
X159577632Y-83344077D01*
X159604830Y-83408436D01*
X159592915Y-83477282D01*
X159569319Y-83510251D01*
X154216392Y-88863181D01*
X154155069Y-88896666D01*
X154128711Y-88899500D01*
X152240825Y-88899500D01*
X152173786Y-88879815D01*
X152130341Y-88831795D01*
X152120840Y-88813148D01*
X151999593Y-88646267D01*
X151853733Y-88500407D01*
X151686852Y-88379160D01*
X151553993Y-88311465D01*
X151503054Y-88285510D01*
X151306879Y-88221769D01*
X151154073Y-88197567D01*
X151103139Y-88189500D01*
X150896861Y-88189500D01*
X150828948Y-88200256D01*
X150693122Y-88221769D01*
X150693119Y-88221769D01*
X150496945Y-88285510D01*
X150313147Y-88379160D01*
X150146265Y-88500408D01*
X150000408Y-88646265D01*
X149879160Y-88813147D01*
X149785510Y-88996945D01*
X149721769Y-89193119D01*
X149721769Y-89193122D01*
X149709508Y-89270535D01*
X149689500Y-89396861D01*
X149689500Y-89603139D01*
X149692301Y-89620821D01*
X149721769Y-89806877D01*
X149721769Y-89806880D01*
X149785510Y-90003054D01*
X149853486Y-90136464D01*
X149879160Y-90186852D01*
X150000407Y-90353733D01*
X150146267Y-90499593D01*
X150313148Y-90620840D01*
X150444602Y-90687819D01*
X150496945Y-90714489D01*
X150693120Y-90778230D01*
X150693121Y-90778230D01*
X150693124Y-90778231D01*
X150896861Y-90810500D01*
X150896862Y-90810500D01*
X151103138Y-90810500D01*
X151103139Y-90810500D01*
X151306876Y-90778231D01*
X151306879Y-90778230D01*
X151306880Y-90778230D01*
X151503054Y-90714489D01*
X151503054Y-90714488D01*
X151503057Y-90714488D01*
X151686852Y-90620840D01*
X151853733Y-90499593D01*
X151999593Y-90353733D01*
X152120840Y-90186852D01*
X152130341Y-90168204D01*
X152178313Y-90117410D01*
X152240825Y-90100500D01*
X154342139Y-90100500D01*
X154342155Y-90100501D01*
X154349751Y-90100501D01*
X154507862Y-90100501D01*
X154507865Y-90100501D01*
X154660593Y-90059577D01*
X154666205Y-90056336D01*
X154734099Y-90039862D01*
X154800127Y-90062711D01*
X154838691Y-90107427D01*
X154879160Y-90186852D01*
X155000407Y-90353733D01*
X155146267Y-90499593D01*
X155313148Y-90620840D01*
X155444602Y-90687819D01*
X155496945Y-90714489D01*
X155693120Y-90778230D01*
X155693121Y-90778230D01*
X155693124Y-90778231D01*
X155896861Y-90810500D01*
X155896862Y-90810500D01*
X156103138Y-90810500D01*
X156103139Y-90810500D01*
X156306876Y-90778231D01*
X156306879Y-90778230D01*
X156306880Y-90778230D01*
X156503054Y-90714489D01*
X156503054Y-90714488D01*
X156503057Y-90714488D01*
X156686852Y-90620840D01*
X156853733Y-90499593D01*
X156999593Y-90353733D01*
X157120840Y-90186852D01*
X157214488Y-90003057D01*
X157257140Y-89871789D01*
X157278230Y-89806880D01*
X157278230Y-89806879D01*
X157278231Y-89806876D01*
X157310500Y-89603139D01*
X157310500Y-89396861D01*
X157278231Y-89193124D01*
X157278230Y-89193120D01*
X157278230Y-89193119D01*
X157214489Y-88996945D01*
X157120839Y-88813147D01*
X157120837Y-88813144D01*
X156999593Y-88646267D01*
X156853733Y-88500407D01*
X156686852Y-88379160D01*
X156686851Y-88379159D01*
X156686849Y-88379158D01*
X156648151Y-88359440D01*
X156597356Y-88311465D01*
X156580561Y-88243644D01*
X156603099Y-88177510D01*
X156616760Y-88161281D01*
X161756520Y-83021524D01*
X161835577Y-82884593D01*
X161876501Y-82731865D01*
X161876501Y-82573750D01*
X161876501Y-82566155D01*
X161876500Y-82566137D01*
X161876500Y-80865060D01*
X161876501Y-80865047D01*
X161876501Y-80696944D01*
X161876501Y-80696943D01*
X161835577Y-80544216D01*
X161799419Y-80481588D01*
X161756524Y-80407290D01*
X161756518Y-80407282D01*
X161428103Y-80078867D01*
X161394618Y-80017544D01*
X161397852Y-79952870D01*
X161442246Y-79816243D01*
X161475500Y-79606287D01*
X161475500Y-79393713D01*
X161442246Y-79183757D01*
X161376557Y-78981588D01*
X161280051Y-78792184D01*
X161280049Y-78792181D01*
X161280048Y-78792179D01*
X161155109Y-78620213D01*
X161016294Y-78481398D01*
X160982809Y-78420075D01*
X160987793Y-78350383D01*
X161029665Y-78294450D01*
X161038879Y-78288178D01*
X161044331Y-78284814D01*
X161044334Y-78284814D01*
X161193656Y-78192712D01*
X161317712Y-78068656D01*
X161409814Y-77919334D01*
X161464999Y-77752797D01*
X161475500Y-77650009D01*
X161475499Y-76349992D01*
X161473151Y-76327011D01*
X161464999Y-76247203D01*
X161464998Y-76247200D01*
X161449192Y-76199500D01*
X161409814Y-76080666D01*
X161317712Y-75931344D01*
X161193656Y-75807288D01*
X161080850Y-75737709D01*
X161044336Y-75715187D01*
X161044331Y-75715185D01*
X161026855Y-75709394D01*
X160877797Y-75660001D01*
X160877795Y-75660000D01*
X160775010Y-75649500D01*
X159224998Y-75649500D01*
X159224981Y-75649501D01*
X159122203Y-75660000D01*
X159122200Y-75660001D01*
X158955668Y-75715185D01*
X158955663Y-75715187D01*
X158806342Y-75807289D01*
X158682289Y-75931342D01*
X158590187Y-76080663D01*
X158590186Y-76080666D01*
X158535001Y-76247203D01*
X158535001Y-76247204D01*
X158535000Y-76247204D01*
X158524500Y-76349983D01*
X158524500Y-77650001D01*
X158524501Y-77650018D01*
X158535000Y-77752796D01*
X158535001Y-77752799D01*
X158590185Y-77919331D01*
X158590187Y-77919336D01*
X158682289Y-78068657D01*
X158806344Y-78192712D01*
X158961120Y-78288178D01*
X159007845Y-78340126D01*
X159019068Y-78409088D01*
X158991224Y-78473171D01*
X158983706Y-78481398D01*
X158844889Y-78620215D01*
X158719951Y-78792179D01*
X158623444Y-78981585D01*
X158557753Y-79183760D01*
X158524500Y-79393713D01*
X158524500Y-79606286D01*
X158553214Y-79787583D01*
X158557754Y-79816243D01*
X158607677Y-79969890D01*
X158623444Y-80018414D01*
X158719951Y-80207820D01*
X158844890Y-80379786D01*
X158995209Y-80530105D01*
X158995214Y-80530109D01*
X159159793Y-80649682D01*
X159202459Y-80705011D01*
X159208438Y-80774625D01*
X159175833Y-80836420D01*
X159159793Y-80850318D01*
X158995214Y-80969890D01*
X158995209Y-80969894D01*
X158844890Y-81120213D01*
X158719948Y-81292184D01*
X158719947Y-81292185D01*
X158699765Y-81331795D01*
X158651791Y-81382591D01*
X158589281Y-81399500D01*
X156300097Y-81399500D01*
X156233058Y-81379815D01*
X156212416Y-81363181D01*
X154834574Y-79985339D01*
X154801089Y-79924016D01*
X154800638Y-79921849D01*
X154769738Y-79766510D01*
X154769737Y-79766503D01*
X154742150Y-79699902D01*
X154709397Y-79620827D01*
X154709390Y-79620814D01*
X154633382Y-79507060D01*
X154612504Y-79440382D01*
X154630989Y-79373002D01*
X154648799Y-79350492D01*
X155763449Y-78235842D01*
X155820447Y-78204719D01*
X155820149Y-78203604D01*
X155824745Y-78202372D01*
X155824770Y-78202359D01*
X155824842Y-78202346D01*
X155827995Y-78201501D01*
X155828000Y-78201501D01*
X155980728Y-78160577D01*
X156049587Y-78120821D01*
X156117659Y-78081520D01*
X156229463Y-77969716D01*
X156229463Y-77969714D01*
X156239667Y-77959511D01*
X156239670Y-77959506D01*
X157480520Y-76718659D01*
X157559577Y-76581727D01*
X157600501Y-76429000D01*
X157600501Y-76270885D01*
X157600501Y-76263290D01*
X157600500Y-76263272D01*
X157600500Y-73579765D01*
X157620185Y-73512726D01*
X157621398Y-73510874D01*
X157681347Y-73421155D01*
X157709394Y-73379179D01*
X157769737Y-73233497D01*
X157800500Y-73078842D01*
X157800500Y-72921158D01*
X157800500Y-72921155D01*
X157800499Y-72921153D01*
X157774531Y-72790606D01*
X157769737Y-72766503D01*
X157769735Y-72766498D01*
X157709397Y-72620827D01*
X157709390Y-72620814D01*
X157621789Y-72489711D01*
X157621786Y-72489707D01*
X157510292Y-72378213D01*
X157510288Y-72378210D01*
X157379185Y-72290609D01*
X157379172Y-72290602D01*
X157233501Y-72230264D01*
X157233489Y-72230261D01*
X157078845Y-72199500D01*
X157078842Y-72199500D01*
X156921158Y-72199500D01*
X156921155Y-72199500D01*
X156766510Y-72230261D01*
X156766498Y-72230264D01*
X156620827Y-72290602D01*
X156620814Y-72290609D01*
X156489711Y-72378210D01*
X156489707Y-72378213D01*
X156378213Y-72489707D01*
X156378210Y-72489711D01*
X156290609Y-72620814D01*
X156290602Y-72620827D01*
X156230264Y-72766498D01*
X156230261Y-72766510D01*
X156199500Y-72921153D01*
X156199500Y-73078846D01*
X156230261Y-73233489D01*
X156230264Y-73233501D01*
X156290602Y-73379172D01*
X156290609Y-73379185D01*
X156378602Y-73510874D01*
X156399480Y-73577551D01*
X156399500Y-73579765D01*
X156399500Y-76049844D01*
X156379815Y-76116883D01*
X156363181Y-76137525D01*
X156149510Y-76351196D01*
X156088187Y-76384681D01*
X156018495Y-76379697D01*
X155992938Y-76366617D01*
X155879185Y-76290609D01*
X155879172Y-76290602D01*
X155733501Y-76230264D01*
X155733489Y-76230261D01*
X155578845Y-76199500D01*
X155578842Y-76199500D01*
X155421158Y-76199500D01*
X155421155Y-76199500D01*
X155266510Y-76230261D01*
X155266498Y-76230264D01*
X155120827Y-76290602D01*
X155120814Y-76290609D01*
X154989125Y-76378602D01*
X154922447Y-76399480D01*
X154920234Y-76399500D01*
X147099040Y-76399500D01*
X147032001Y-76379815D01*
X146986246Y-76327011D01*
X146976302Y-76257853D01*
X147005327Y-76194297D01*
X147011359Y-76187819D01*
X149062359Y-74136819D01*
X149123682Y-74103334D01*
X149150040Y-74100500D01*
X149420234Y-74100500D01*
X149487273Y-74120185D01*
X149489125Y-74121398D01*
X149620814Y-74209390D01*
X149620827Y-74209397D01*
X149766498Y-74269735D01*
X149766503Y-74269737D01*
X149871418Y-74290606D01*
X149921153Y-74300499D01*
X149921156Y-74300500D01*
X149921158Y-74300500D01*
X150078844Y-74300500D01*
X150078845Y-74300499D01*
X150233497Y-74269737D01*
X150379179Y-74209394D01*
X150510289Y-74121789D01*
X150621789Y-74010289D01*
X150709394Y-73879179D01*
X150769737Y-73733497D01*
X150800500Y-73578842D01*
X150800500Y-73421158D01*
X150800500Y-73421155D01*
X150800499Y-73421153D01*
X150769738Y-73266510D01*
X150769737Y-73266503D01*
X150713728Y-73131284D01*
X150709397Y-73120827D01*
X150709390Y-73120814D01*
X150621789Y-72989711D01*
X150621786Y-72989707D01*
X150510292Y-72878213D01*
X150510288Y-72878210D01*
X150379185Y-72790609D01*
X150379172Y-72790602D01*
X150233501Y-72730264D01*
X150233489Y-72730261D01*
X150078845Y-72699500D01*
X150078842Y-72699500D01*
X149921158Y-72699500D01*
X149921155Y-72699500D01*
X149766510Y-72730261D01*
X149766498Y-72730264D01*
X149620827Y-72790602D01*
X149620814Y-72790609D01*
X149489125Y-72878602D01*
X149422447Y-72899480D01*
X149420234Y-72899500D01*
X148936612Y-72899500D01*
X148936596Y-72899499D01*
X148929000Y-72899499D01*
X148770886Y-72899499D01*
X148663530Y-72928265D01*
X148618153Y-72940424D01*
X148618152Y-72940425D01*
X148568039Y-72969359D01*
X148568038Y-72969360D01*
X148532796Y-72989707D01*
X148481228Y-73019479D01*
X148481225Y-73019481D01*
X145812181Y-75688526D01*
X145750858Y-75722011D01*
X145681166Y-75717027D01*
X145625233Y-75675155D01*
X145600816Y-75609691D01*
X145600500Y-75600845D01*
X145600500Y-71920945D01*
X145600500Y-71920943D01*
X145559577Y-71768216D01*
X145559573Y-71768209D01*
X145480524Y-71631290D01*
X145480518Y-71631282D01*
X145368717Y-71519481D01*
X145368709Y-71519475D01*
X145231790Y-71440426D01*
X145231786Y-71440424D01*
X145231784Y-71440423D01*
X145079057Y-71399500D01*
X133579057Y-71399500D01*
X133420943Y-71399500D01*
X133268216Y-71440423D01*
X133268209Y-71440426D01*
X133131290Y-71519475D01*
X133131282Y-71519481D01*
X133019481Y-71631282D01*
X133019475Y-71631290D01*
X132940426Y-71768209D01*
X132940423Y-71768216D01*
X132899500Y-71920943D01*
X132899500Y-73913330D01*
X132899499Y-73913348D01*
X132899499Y-74079054D01*
X132899498Y-74079054D01*
X132899499Y-74079057D01*
X132923057Y-74166977D01*
X132942527Y-74239636D01*
X132940186Y-74240263D01*
X132946346Y-74297505D01*
X132915077Y-74359987D01*
X132854991Y-74395645D01*
X132824314Y-74399500D01*
X128236726Y-74399500D01*
X128236710Y-74399499D01*
X128229114Y-74399499D01*
X128071000Y-74399499D01*
X127963644Y-74428265D01*
X127918267Y-74440424D01*
X127918266Y-74440425D01*
X127868153Y-74469359D01*
X127868152Y-74469360D01*
X127832910Y-74489707D01*
X127781342Y-74519479D01*
X127781339Y-74519481D01*
X112918479Y-89382341D01*
X112910097Y-89396861D01*
X112894697Y-89423535D01*
X112839423Y-89519272D01*
X112798499Y-89672000D01*
X112798499Y-89830114D01*
X112798499Y-89830116D01*
X112798500Y-89840110D01*
X112798500Y-90162273D01*
X112798499Y-90162291D01*
X112798499Y-90327997D01*
X112798498Y-90327997D01*
X102500500Y-90327997D01*
X102500500Y-80893713D01*
X110024500Y-80893713D01*
X110024500Y-81106286D01*
X110053943Y-81292185D01*
X110057754Y-81316243D01*
X110120803Y-81510288D01*
X110123444Y-81518414D01*
X110219951Y-81707820D01*
X110344890Y-81879786D01*
X110495209Y-82030105D01*
X110495214Y-82030109D01*
X110659793Y-82149682D01*
X110702459Y-82205011D01*
X110708438Y-82274625D01*
X110675833Y-82336420D01*
X110659793Y-82350318D01*
X110495214Y-82469890D01*
X110495209Y-82469894D01*
X110344890Y-82620213D01*
X110219951Y-82792179D01*
X110123444Y-82981585D01*
X110123443Y-82981587D01*
X110123443Y-82981588D01*
X110090598Y-83082672D01*
X110057753Y-83183760D01*
X110024500Y-83393713D01*
X110024500Y-83606286D01*
X110057110Y-83812181D01*
X110057754Y-83816243D01*
X110121595Y-84012726D01*
X110123444Y-84018414D01*
X110219951Y-84207820D01*
X110344890Y-84379786D01*
X110483705Y-84518601D01*
X110517190Y-84579924D01*
X110512206Y-84649616D01*
X110470334Y-84705549D01*
X110461121Y-84711821D01*
X110306342Y-84807289D01*
X110182289Y-84931342D01*
X110090187Y-85080663D01*
X110090185Y-85080668D01*
X110076689Y-85121398D01*
X110035001Y-85247203D01*
X110035001Y-85247204D01*
X110035000Y-85247204D01*
X110024500Y-85349983D01*
X110024500Y-86650001D01*
X110024501Y-86650018D01*
X110035000Y-86752796D01*
X110035001Y-86752799D01*
X110076880Y-86879179D01*
X110090186Y-86919334D01*
X110182288Y-87068656D01*
X110306344Y-87192712D01*
X110455666Y-87284814D01*
X110622203Y-87339999D01*
X110724991Y-87350500D01*
X112275008Y-87350499D01*
X112377797Y-87339999D01*
X112544334Y-87284814D01*
X112693656Y-87192712D01*
X112789466Y-87096901D01*
X112850785Y-87063419D01*
X112920477Y-87068403D01*
X112964825Y-87096904D01*
X112989707Y-87121786D01*
X112989711Y-87121789D01*
X113120814Y-87209390D01*
X113120827Y-87209397D01*
X113266498Y-87269735D01*
X113266503Y-87269737D01*
X113421153Y-87300499D01*
X113421156Y-87300500D01*
X113421158Y-87300500D01*
X113578844Y-87300500D01*
X113578845Y-87300499D01*
X113733497Y-87269737D01*
X113879179Y-87209394D01*
X114010289Y-87121789D01*
X114121789Y-87010289D01*
X114209394Y-86879179D01*
X114269737Y-86733497D01*
X114300500Y-86578842D01*
X114300500Y-86421158D01*
X114300500Y-86421155D01*
X114300499Y-86421153D01*
X114269738Y-86266510D01*
X114269737Y-86266503D01*
X114269735Y-86266498D01*
X114209397Y-86120827D01*
X114209390Y-86120814D01*
X114121398Y-85989125D01*
X114100520Y-85922447D01*
X114100500Y-85920234D01*
X114100500Y-84079765D01*
X114120185Y-84012726D01*
X114121398Y-84010874D01*
X114209390Y-83879185D01*
X114209390Y-83879184D01*
X114209394Y-83879179D01*
X114212340Y-83872068D01*
X114237145Y-83812181D01*
X114269737Y-83733497D01*
X114300500Y-83578842D01*
X114300500Y-83421158D01*
X114300500Y-83421155D01*
X114300499Y-83421153D01*
X114285367Y-83345079D01*
X114269737Y-83266503D01*
X114235463Y-83183757D01*
X114209397Y-83120827D01*
X114209390Y-83120814D01*
X114121789Y-82989711D01*
X114121786Y-82989707D01*
X114010292Y-82878213D01*
X114010288Y-82878210D01*
X113879185Y-82790609D01*
X113879172Y-82790602D01*
X113733501Y-82730264D01*
X113733489Y-82730261D01*
X113578845Y-82699500D01*
X113578842Y-82699500D01*
X113421158Y-82699500D01*
X113421155Y-82699500D01*
X113266510Y-82730261D01*
X113266498Y-82730264D01*
X113120827Y-82790602D01*
X113120814Y-82790609D01*
X112984646Y-82881595D01*
X112983543Y-82879945D01*
X112927634Y-82903691D01*
X112858766Y-82891900D01*
X112807206Y-82844748D01*
X112802794Y-82836820D01*
X112780048Y-82792179D01*
X112655109Y-82620213D01*
X112504792Y-82469896D01*
X112504784Y-82469890D01*
X112340204Y-82350316D01*
X112297540Y-82294989D01*
X112291561Y-82225376D01*
X112324166Y-82163580D01*
X112340199Y-82149686D01*
X112504792Y-82030104D01*
X112655104Y-81879792D01*
X112655106Y-81879788D01*
X112655109Y-81879786D01*
X112778902Y-81709397D01*
X112780051Y-81707816D01*
X112876557Y-81518412D01*
X112942246Y-81316243D01*
X112975500Y-81106287D01*
X112975500Y-80893713D01*
X112942246Y-80683757D01*
X112876557Y-80481588D01*
X112780051Y-80292184D01*
X112780049Y-80292181D01*
X112780048Y-80292179D01*
X112655109Y-80120213D01*
X112504786Y-79969890D01*
X112332820Y-79844951D01*
X112143414Y-79748444D01*
X112143413Y-79748443D01*
X112143412Y-79748443D01*
X111941243Y-79682754D01*
X111941241Y-79682753D01*
X111941240Y-79682753D01*
X111779957Y-79657208D01*
X111731287Y-79649500D01*
X111268713Y-79649500D01*
X111220042Y-79657208D01*
X111058760Y-79682753D01*
X110856585Y-79748444D01*
X110667179Y-79844951D01*
X110495213Y-79969890D01*
X110344890Y-80120213D01*
X110219951Y-80292179D01*
X110123444Y-80481585D01*
X110123443Y-80481587D01*
X110123443Y-80481588D01*
X110103096Y-80544209D01*
X110057753Y-80683760D01*
X110024500Y-80893713D01*
X102500500Y-80893713D01*
X102500500Y-77124500D01*
X102520185Y-77057461D01*
X102572989Y-77011706D01*
X102624500Y-77000500D01*
X114961709Y-77000500D01*
X114988992Y-77004699D01*
X115027330Y-77000500D01*
X115065892Y-77000500D01*
X115083390Y-76995810D01*
X115101982Y-76992323D01*
X115119993Y-76990351D01*
X115155937Y-76976372D01*
X115193186Y-76966392D01*
X115217089Y-76952591D01*
X133072214Y-70008930D01*
X133117157Y-70000500D01*
X157241324Y-70000500D01*
X157308363Y-70020185D01*
G37*
%TD.AperFunction*%
%TA.AperFunction,NonConductor*%
G36*
X112861920Y-84336118D02*
G01*
X112896277Y-84396957D01*
X112899500Y-84425043D01*
X112899500Y-84713922D01*
X112897138Y-84721963D01*
X112898421Y-84730246D01*
X112887440Y-84754991D01*
X112879815Y-84780961D01*
X112873482Y-84786448D01*
X112870082Y-84794111D01*
X112847464Y-84808992D01*
X112827011Y-84826716D01*
X112818716Y-84827908D01*
X112811714Y-84832516D01*
X112784647Y-84832807D01*
X112757853Y-84836660D01*
X112748414Y-84833197D01*
X112741849Y-84833268D01*
X112724572Y-84824450D01*
X112709588Y-84818953D01*
X112698131Y-84811763D01*
X112693656Y-84807288D01*
X112544334Y-84715186D01*
X112544123Y-84715116D01*
X112538063Y-84711313D01*
X112515241Y-84685541D01*
X112492154Y-84659873D01*
X112492073Y-84659379D01*
X112491742Y-84659005D01*
X112486467Y-84624933D01*
X112480931Y-84590910D01*
X112481130Y-84590451D01*
X112481054Y-84589958D01*
X112495031Y-84558458D01*
X112508775Y-84526828D01*
X112509342Y-84526207D01*
X112509393Y-84526093D01*
X112509527Y-84526004D01*
X112516272Y-84518623D01*
X112655104Y-84379792D01*
X112675181Y-84352157D01*
X112730511Y-84309492D01*
X112800124Y-84303513D01*
X112861920Y-84336118D01*
G37*
%TD.AperFunction*%
%TA.AperFunction,NonConductor*%
G36*
X135063600Y-72620185D02*
G01*
X135109355Y-72672989D01*
X135119299Y-72742147D01*
X135090274Y-72805703D01*
X135065452Y-72827602D01*
X134989711Y-72878210D01*
X134989707Y-72878213D01*
X134878213Y-72989707D01*
X134878210Y-72989711D01*
X134790609Y-73120814D01*
X134790602Y-73120827D01*
X134730264Y-73266498D01*
X134730261Y-73266510D01*
X134699500Y-73421153D01*
X134699500Y-73578846D01*
X134730261Y-73733489D01*
X134730264Y-73733501D01*
X134790602Y-73879172D01*
X134790609Y-73879185D01*
X134878210Y-74010288D01*
X134878213Y-74010292D01*
X134915253Y-74047332D01*
X134948738Y-74108655D01*
X134943754Y-74178347D01*
X134901882Y-74234280D01*
X134836418Y-74258697D01*
X134797015Y-74255189D01*
X134788363Y-74252989D01*
X134733497Y-74230263D01*
X134578842Y-74199500D01*
X134577996Y-74199500D01*
X134571786Y-74197921D01*
X134544419Y-74181717D01*
X134516241Y-74166977D01*
X134514662Y-74165426D01*
X134136819Y-73787583D01*
X134103334Y-73726260D01*
X134100500Y-73699902D01*
X134100500Y-72724500D01*
X134120185Y-72657461D01*
X134172989Y-72611706D01*
X134224500Y-72600500D01*
X134996561Y-72600500D01*
X135063600Y-72620185D01*
G37*
%TD.AperFunction*%
%TA.AperFunction,NonConductor*%
G36*
X135202984Y-74244810D02*
G01*
X135211632Y-74247008D01*
X135266503Y-74269737D01*
X135421158Y-74300500D01*
X135422005Y-74300500D01*
X135428215Y-74302079D01*
X135469494Y-74325561D01*
X135483760Y-74333023D01*
X135484309Y-74333988D01*
X135485339Y-74334574D01*
X136638584Y-75487819D01*
X136672069Y-75549142D01*
X136667085Y-75618834D01*
X136625213Y-75674767D01*
X136559749Y-75699184D01*
X136550903Y-75699500D01*
X136421155Y-75699500D01*
X136266510Y-75730261D01*
X136266498Y-75730264D01*
X136120827Y-75790602D01*
X136120814Y-75790609D01*
X135989125Y-75878602D01*
X135922447Y-75899480D01*
X135920234Y-75899500D01*
X135003439Y-75899500D01*
X134936400Y-75879815D01*
X134890645Y-75827011D01*
X134880701Y-75757853D01*
X134909726Y-75694297D01*
X134934548Y-75672398D01*
X134996077Y-75631285D01*
X135010289Y-75621789D01*
X135121789Y-75510289D01*
X135209394Y-75379179D01*
X135269737Y-75233497D01*
X135300500Y-75078842D01*
X135300500Y-74921158D01*
X135300500Y-74921155D01*
X135300499Y-74921153D01*
X135269738Y-74766510D01*
X135269737Y-74766503D01*
X135213728Y-74631284D01*
X135209397Y-74620827D01*
X135209390Y-74620814D01*
X135121789Y-74489711D01*
X135121786Y-74489707D01*
X135084746Y-74452667D01*
X135083674Y-74450703D01*
X135081749Y-74449564D01*
X135067009Y-74420184D01*
X135051261Y-74391344D01*
X135051420Y-74389113D01*
X135050417Y-74387113D01*
X135053900Y-74354431D01*
X135056245Y-74321652D01*
X135057585Y-74319860D01*
X135057823Y-74317637D01*
X135078419Y-74292030D01*
X135098117Y-74265719D01*
X135100212Y-74264937D01*
X135101615Y-74263194D01*
X135132791Y-74252786D01*
X135163581Y-74241302D01*
X135166011Y-74241695D01*
X135167889Y-74241069D01*
X135202984Y-74244810D01*
G37*
%TD.AperFunction*%
%TA.AperFunction,NonConductor*%
G36*
X133987273Y-75620185D02*
G01*
X133989125Y-75621398D01*
X134065452Y-75672398D01*
X134110257Y-75726010D01*
X134118964Y-75795335D01*
X134088810Y-75858362D01*
X134029367Y-75895082D01*
X133996561Y-75899500D01*
X128399154Y-75899500D01*
X128377908Y-75893261D01*
X128355820Y-75891682D01*
X128345036Y-75883609D01*
X128332115Y-75879815D01*
X128317615Y-75863081D01*
X128299887Y-75849810D01*
X128295179Y-75837189D01*
X128286360Y-75827011D01*
X128283208Y-75805093D01*
X128275470Y-75784346D01*
X128278332Y-75771185D01*
X128276416Y-75757853D01*
X128285615Y-75737709D01*
X128290322Y-75716073D01*
X128303590Y-75698347D01*
X128305441Y-75694297D01*
X128311473Y-75687819D01*
X128362473Y-75636819D01*
X128423796Y-75603334D01*
X128450154Y-75600500D01*
X133920234Y-75600500D01*
X133987273Y-75620185D01*
G37*
%TD.AperFunction*%
%TA.AperFunction,NonConductor*%
G36*
X129318834Y-81632915D02*
G01*
X129374767Y-81674787D01*
X129399184Y-81740251D01*
X129399500Y-81749097D01*
X129399500Y-82113444D01*
X129379815Y-82180483D01*
X129327011Y-82226238D01*
X129257853Y-82236182D01*
X129239575Y-82231202D01*
X129239324Y-82232031D01*
X129233500Y-82230264D01*
X129233497Y-82230263D01*
X129233492Y-82230262D01*
X129233489Y-82230261D01*
X129078845Y-82199500D01*
X129078842Y-82199500D01*
X128949097Y-82199500D01*
X128882058Y-82179815D01*
X128836303Y-82127011D01*
X128826359Y-82057853D01*
X128855384Y-81994297D01*
X128861416Y-81987819D01*
X129187819Y-81661416D01*
X129249142Y-81627931D01*
X129318834Y-81632915D01*
G37*
%TD.AperFunction*%
%TA.AperFunction,NonConductor*%
G36*
X144342539Y-72620185D02*
G01*
X144388294Y-72672989D01*
X144399500Y-72724500D01*
X144399500Y-75920234D01*
X144379815Y-75987273D01*
X144378602Y-75989125D01*
X144290609Y-76120814D01*
X144290602Y-76120827D01*
X144230264Y-76266498D01*
X144230261Y-76266510D01*
X144199501Y-76421150D01*
X144199500Y-76421155D01*
X144199500Y-76578846D01*
X144230261Y-76733489D01*
X144230264Y-76733501D01*
X144290602Y-76879172D01*
X144290609Y-76879185D01*
X144366617Y-76992939D01*
X144387495Y-77059617D01*
X144369010Y-77126997D01*
X144351196Y-77149511D01*
X139137527Y-82363181D01*
X139076204Y-82396666D01*
X139049846Y-82399500D01*
X138503439Y-82399500D01*
X138436400Y-82379815D01*
X138390645Y-82327011D01*
X138380701Y-82257853D01*
X138409726Y-82194297D01*
X138434548Y-82172398D01*
X138468546Y-82149681D01*
X138510289Y-82121789D01*
X138621789Y-82010289D01*
X138709394Y-81879179D01*
X138769737Y-81733497D01*
X138800500Y-81578842D01*
X138800500Y-81421158D01*
X138800500Y-81421155D01*
X138800499Y-81421153D01*
X138792148Y-81379172D01*
X138769737Y-81266503D01*
X138756062Y-81233489D01*
X138709397Y-81120827D01*
X138709390Y-81120814D01*
X138621398Y-80989125D01*
X138600520Y-80922447D01*
X138600500Y-80920234D01*
X138600500Y-76089059D01*
X138600501Y-76089046D01*
X138600501Y-75920945D01*
X138600501Y-75920943D01*
X138559577Y-75768215D01*
X138519904Y-75699500D01*
X138497099Y-75660000D01*
X138480521Y-75631285D01*
X138364385Y-75515149D01*
X138364374Y-75515139D01*
X136334574Y-73485339D01*
X136301089Y-73424016D01*
X136300638Y-73421849D01*
X136269738Y-73266510D01*
X136269737Y-73266503D01*
X136213728Y-73131284D01*
X136209397Y-73120827D01*
X136209390Y-73120814D01*
X136121789Y-72989711D01*
X136121786Y-72989707D01*
X136010292Y-72878213D01*
X136010288Y-72878210D01*
X135934548Y-72827602D01*
X135889743Y-72773990D01*
X135881036Y-72704665D01*
X135911190Y-72641637D01*
X135970634Y-72604918D01*
X136003439Y-72600500D01*
X144275500Y-72600500D01*
X144342539Y-72620185D01*
G37*
%TD.AperFunction*%
%TA.AperFunction,NonConductor*%
G36*
X136529061Y-83610043D02*
G01*
X136561728Y-83619005D01*
X136562497Y-83619861D01*
X136563600Y-83620185D01*
X136585768Y-83645769D01*
X136608418Y-83670984D01*
X136608602Y-83672120D01*
X136609355Y-83672989D01*
X136614176Y-83706520D01*
X136619594Y-83739954D01*
X136619135Y-83741007D01*
X136619299Y-83742147D01*
X136605218Y-83772978D01*
X136591708Y-83804017D01*
X136590582Y-83805028D01*
X136590274Y-83805703D01*
X136565452Y-83827602D01*
X136489125Y-83878602D01*
X136422447Y-83899480D01*
X136420234Y-83899500D01*
X132920940Y-83899500D01*
X132880019Y-83910464D01*
X132880019Y-83910465D01*
X132842751Y-83920451D01*
X132768214Y-83940423D01*
X132768211Y-83940425D01*
X132733540Y-83960442D01*
X132665640Y-83976913D01*
X132599613Y-83954060D01*
X132556424Y-83899138D01*
X132549783Y-83829585D01*
X132581801Y-83767483D01*
X132583780Y-83765454D01*
X132712418Y-83636816D01*
X132773739Y-83603334D01*
X132800097Y-83600500D01*
X136496561Y-83600500D01*
X136529061Y-83610043D01*
G37*
%TD.AperFunction*%
%TA.AperFunction,NonConductor*%
G36*
X138467999Y-83620185D02*
G01*
X138513754Y-83672989D01*
X138523698Y-83742147D01*
X138494673Y-83805703D01*
X138488641Y-83812181D01*
X137977604Y-84323217D01*
X137916281Y-84356702D01*
X137846589Y-84351718D01*
X137790656Y-84309846D01*
X137771263Y-84271534D01*
X137769735Y-84266498D01*
X137709397Y-84120827D01*
X137709390Y-84120814D01*
X137621789Y-83989711D01*
X137621786Y-83989707D01*
X137510292Y-83878213D01*
X137510288Y-83878210D01*
X137434548Y-83827602D01*
X137389743Y-83773990D01*
X137381036Y-83704665D01*
X137411190Y-83641637D01*
X137470634Y-83604918D01*
X137503439Y-83600500D01*
X138400960Y-83600500D01*
X138467999Y-83620185D01*
G37*
%TD.AperFunction*%
%TA.AperFunction,NonConductor*%
G36*
X136487273Y-85120185D02*
G01*
X136489125Y-85121398D01*
X136620814Y-85209390D01*
X136620827Y-85209397D01*
X136728138Y-85253846D01*
X136766503Y-85269737D01*
X136766507Y-85269737D01*
X136771534Y-85271263D01*
X136829972Y-85309562D01*
X136858427Y-85373375D01*
X136847865Y-85442442D01*
X136823217Y-85477604D01*
X131937641Y-90363181D01*
X131876318Y-90396666D01*
X131849960Y-90399500D01*
X128586670Y-90399500D01*
X128586654Y-90399499D01*
X128579058Y-90399499D01*
X128420943Y-90399499D01*
X128344579Y-90419961D01*
X128268214Y-90440423D01*
X128268211Y-90440425D01*
X128233540Y-90460442D01*
X128165640Y-90476913D01*
X128099613Y-90454060D01*
X128056424Y-90399138D01*
X128049783Y-90329585D01*
X128081801Y-90267483D01*
X128083819Y-90265415D01*
X133212416Y-85136819D01*
X133273739Y-85103334D01*
X133300097Y-85100500D01*
X136420234Y-85100500D01*
X136487273Y-85120185D01*
G37*
%TD.AperFunction*%
%TA.AperFunction,NonConductor*%
G36*
X137358363Y-76911190D02*
G01*
X137395082Y-76970634D01*
X137399500Y-77003439D01*
X137399500Y-80920234D01*
X137379815Y-80987273D01*
X137378602Y-80989125D01*
X137290609Y-81120814D01*
X137290602Y-81120827D01*
X137230264Y-81266498D01*
X137230261Y-81266510D01*
X137199500Y-81421153D01*
X137199500Y-81578846D01*
X137230261Y-81733489D01*
X137230264Y-81733501D01*
X137290602Y-81879172D01*
X137290609Y-81879185D01*
X137378210Y-82010288D01*
X137378213Y-82010292D01*
X137489707Y-82121786D01*
X137489711Y-82121789D01*
X137565452Y-82172398D01*
X137610257Y-82226010D01*
X137618964Y-82295335D01*
X137588810Y-82358363D01*
X137529366Y-82395082D01*
X137496561Y-82399500D01*
X132420940Y-82399500D01*
X132380019Y-82410464D01*
X132380019Y-82410465D01*
X132342751Y-82420451D01*
X132268214Y-82440423D01*
X132268209Y-82440426D01*
X132131290Y-82519475D01*
X132131282Y-82519481D01*
X130812181Y-83838583D01*
X130750858Y-83872068D01*
X130681166Y-83867084D01*
X130625233Y-83825212D01*
X130600816Y-83759748D01*
X130600500Y-83750902D01*
X130600500Y-81800098D01*
X130609144Y-81770660D01*
X130615668Y-81740670D01*
X130619423Y-81735653D01*
X130620185Y-81733059D01*
X130636819Y-81712416D01*
X130712418Y-81636818D01*
X130773742Y-81603334D01*
X130800099Y-81600500D01*
X132920234Y-81600500D01*
X132987273Y-81620185D01*
X132989125Y-81621398D01*
X133120814Y-81709390D01*
X133120827Y-81709397D01*
X133215799Y-81748735D01*
X133266503Y-81769737D01*
X133419137Y-81800098D01*
X133421153Y-81800499D01*
X133421156Y-81800500D01*
X133421158Y-81800500D01*
X133578844Y-81800500D01*
X133578845Y-81800499D01*
X133733497Y-81769737D01*
X133879179Y-81709394D01*
X134010289Y-81621789D01*
X134121789Y-81510289D01*
X134209394Y-81379179D01*
X134269737Y-81233497D01*
X134300500Y-81078842D01*
X134300500Y-80921158D01*
X134300500Y-80921155D01*
X134300499Y-80921153D01*
X134276499Y-80800500D01*
X134269737Y-80766503D01*
X134246080Y-80709390D01*
X134209397Y-80620827D01*
X134209390Y-80620814D01*
X134121789Y-80489711D01*
X134121786Y-80489707D01*
X134010292Y-80378213D01*
X134010288Y-80378210D01*
X133879185Y-80290609D01*
X133879172Y-80290602D01*
X133733501Y-80230264D01*
X133733489Y-80230261D01*
X133578845Y-80199500D01*
X133578842Y-80199500D01*
X133421158Y-80199500D01*
X133421155Y-80199500D01*
X133266510Y-80230261D01*
X133266498Y-80230264D01*
X133120827Y-80290602D01*
X133120814Y-80290609D01*
X132989125Y-80378602D01*
X132922447Y-80399480D01*
X132920234Y-80399500D01*
X130675686Y-80399500D01*
X130608647Y-80379815D01*
X130562892Y-80327011D01*
X130552948Y-80257853D01*
X130557913Y-80239753D01*
X130557473Y-80239636D01*
X130559577Y-80231785D01*
X130600500Y-80079057D01*
X130600500Y-79920943D01*
X130600500Y-79079765D01*
X130620185Y-79012726D01*
X130621398Y-79010874D01*
X130709390Y-78879185D01*
X130709390Y-78879184D01*
X130709394Y-78879179D01*
X130769737Y-78733497D01*
X130800500Y-78578842D01*
X130800500Y-78421158D01*
X130800500Y-78421155D01*
X130800499Y-78421153D01*
X130785282Y-78344653D01*
X130769737Y-78266503D01*
X130757038Y-78235844D01*
X130709397Y-78120827D01*
X130709390Y-78120814D01*
X130621789Y-77989711D01*
X130621786Y-77989707D01*
X130510292Y-77878213D01*
X130510288Y-77878210D01*
X130379185Y-77790609D01*
X130379172Y-77790602D01*
X130233501Y-77730264D01*
X130233489Y-77730261D01*
X130078845Y-77699500D01*
X130078842Y-77699500D01*
X129921158Y-77699500D01*
X129921155Y-77699500D01*
X129766510Y-77730261D01*
X129766498Y-77730264D01*
X129620827Y-77790602D01*
X129620814Y-77790609D01*
X129489711Y-77878210D01*
X129489707Y-77878213D01*
X129378213Y-77989707D01*
X129378210Y-77989711D01*
X129290609Y-78120814D01*
X129290602Y-78120827D01*
X129230264Y-78266498D01*
X129230261Y-78266510D01*
X129199500Y-78421153D01*
X129199500Y-78578846D01*
X129230261Y-78733489D01*
X129230264Y-78733501D01*
X129290602Y-78879172D01*
X129290609Y-78879185D01*
X129378602Y-79010874D01*
X129399480Y-79077551D01*
X129399500Y-79079765D01*
X129399500Y-79699902D01*
X129379815Y-79766941D01*
X129363181Y-79787583D01*
X119729102Y-89421661D01*
X119667779Y-89455146D01*
X119598087Y-89450162D01*
X119553740Y-89421661D01*
X119510292Y-89378213D01*
X119510288Y-89378210D01*
X119379185Y-89290609D01*
X119379172Y-89290602D01*
X119233501Y-89230264D01*
X119233489Y-89230261D01*
X119078845Y-89199500D01*
X119078842Y-89199500D01*
X118921158Y-89199500D01*
X118921155Y-89199500D01*
X118766510Y-89230261D01*
X118766498Y-89230264D01*
X118620827Y-89290602D01*
X118620814Y-89290609D01*
X118489711Y-89378210D01*
X118489707Y-89378213D01*
X118378213Y-89489707D01*
X118378210Y-89489711D01*
X118290609Y-89620814D01*
X118290602Y-89620827D01*
X118230264Y-89766498D01*
X118230261Y-89766510D01*
X118199500Y-89921153D01*
X118199500Y-90049958D01*
X118179815Y-90116997D01*
X118163181Y-90137639D01*
X118023214Y-90277605D01*
X118023215Y-90277606D01*
X117918478Y-90382343D01*
X117918475Y-90382347D01*
X117884947Y-90440421D01*
X117884947Y-90440423D01*
X117839423Y-90519271D01*
X117830672Y-90551927D01*
X117802343Y-90657652D01*
X117765980Y-90717311D01*
X117703133Y-90747840D01*
X117682570Y-90749557D01*
X115067198Y-90749557D01*
X115000159Y-90729872D01*
X114979517Y-90713238D01*
X114783758Y-90517479D01*
X114771690Y-90510512D01*
X114723475Y-90459944D01*
X114710253Y-90391337D01*
X114719128Y-90355677D01*
X114769737Y-90233497D01*
X114789038Y-90136460D01*
X114821422Y-90074553D01*
X114882138Y-90039979D01*
X114886400Y-90039050D01*
X114983497Y-90019737D01*
X115129179Y-89959394D01*
X115260289Y-89871789D01*
X115371789Y-89760289D01*
X115459394Y-89629179D01*
X115462854Y-89620827D01*
X115473067Y-89596166D01*
X115519737Y-89483497D01*
X115550500Y-89328842D01*
X115550638Y-89328150D01*
X115583023Y-89266239D01*
X115584518Y-89264716D01*
X127712416Y-77136819D01*
X127773739Y-77103334D01*
X127800097Y-77100500D01*
X135920234Y-77100500D01*
X135987273Y-77120185D01*
X135989125Y-77121398D01*
X136120814Y-77209390D01*
X136120827Y-77209397D01*
X136266498Y-77269735D01*
X136266503Y-77269737D01*
X136421153Y-77300499D01*
X136421156Y-77300500D01*
X136421158Y-77300500D01*
X136578844Y-77300500D01*
X136578845Y-77300499D01*
X136733497Y-77269737D01*
X136879179Y-77209394D01*
X137010289Y-77121789D01*
X137121789Y-77010289D01*
X137160342Y-76952591D01*
X137172398Y-76934548D01*
X137226010Y-76889743D01*
X137295335Y-76881036D01*
X137358363Y-76911190D01*
G37*
%TD.AperFunction*%
%TA.AperFunction,NonConductor*%
G36*
X148063600Y-77620185D02*
G01*
X148109355Y-77672989D01*
X148119299Y-77742147D01*
X148090274Y-77805703D01*
X148065452Y-77827602D01*
X147989711Y-77878210D01*
X147989707Y-77878213D01*
X147878213Y-77989707D01*
X147878210Y-77989711D01*
X147790609Y-78120814D01*
X147790602Y-78120827D01*
X147730264Y-78266498D01*
X147730261Y-78266508D01*
X147699361Y-78421850D01*
X147666976Y-78483761D01*
X147665425Y-78485339D01*
X135287584Y-90863181D01*
X135226261Y-90896666D01*
X135199903Y-90899500D01*
X133399154Y-90899500D01*
X133332115Y-90879815D01*
X133286360Y-90827011D01*
X133276416Y-90757853D01*
X133305441Y-90694297D01*
X133311473Y-90687819D01*
X146362473Y-77636819D01*
X146423796Y-77603334D01*
X146450154Y-77600500D01*
X147996561Y-77600500D01*
X148063600Y-77620185D01*
G37*
%TD.AperFunction*%
%TA.AperFunction,NonConductor*%
G36*
X154467999Y-77620185D02*
G01*
X154513754Y-77672989D01*
X154523698Y-77742147D01*
X154494673Y-77805703D01*
X154488641Y-77812181D01*
X140437641Y-91863181D01*
X140376318Y-91896666D01*
X140349960Y-91899500D01*
X136249096Y-91899500D01*
X136182057Y-91879815D01*
X136136302Y-91827011D01*
X136126358Y-91757853D01*
X136155383Y-91694297D01*
X136161415Y-91687819D01*
X142249734Y-85599500D01*
X148514662Y-79334572D01*
X148575983Y-79301089D01*
X148578150Y-79300638D01*
X148636085Y-79289113D01*
X148733497Y-79269737D01*
X148879179Y-79209394D01*
X149010289Y-79121789D01*
X149121789Y-79010289D01*
X149209394Y-78879179D01*
X149269737Y-78733497D01*
X149300500Y-78578842D01*
X149300500Y-78421158D01*
X149300500Y-78421155D01*
X149300499Y-78421153D01*
X149285282Y-78344653D01*
X149269737Y-78266503D01*
X149257038Y-78235844D01*
X149209397Y-78120827D01*
X149209390Y-78120814D01*
X149121789Y-77989711D01*
X149121786Y-77989707D01*
X149010292Y-77878213D01*
X149010288Y-77878210D01*
X148934548Y-77827602D01*
X148889743Y-77773990D01*
X148881036Y-77704665D01*
X148911190Y-77641637D01*
X148970634Y-77604918D01*
X149003439Y-77600500D01*
X154400960Y-77600500D01*
X154467999Y-77620185D01*
G37*
%TD.AperFunction*%
%TA.AperFunction,NonConductor*%
G36*
X121118834Y-91832914D02*
G01*
X121174767Y-91874786D01*
X121199184Y-91940250D01*
X121199500Y-91949096D01*
X121199500Y-92078846D01*
X121230261Y-92233489D01*
X121230264Y-92233501D01*
X121290602Y-92379172D01*
X121290609Y-92379185D01*
X121378210Y-92510288D01*
X121378213Y-92510292D01*
X121489707Y-92621786D01*
X121527289Y-92646898D01*
X121572093Y-92700511D01*
X121580800Y-92769836D01*
X121550645Y-92832863D01*
X121527289Y-92853102D01*
X121489707Y-92878213D01*
X121378213Y-92989707D01*
X121378210Y-92989711D01*
X121290609Y-93120814D01*
X121290602Y-93120827D01*
X121230264Y-93266498D01*
X121230261Y-93266510D01*
X121203571Y-93400691D01*
X121171186Y-93462602D01*
X121110471Y-93497176D01*
X121081954Y-93500500D01*
X116401098Y-93500500D01*
X116334059Y-93480815D01*
X116313417Y-93464181D01*
X115868716Y-93019480D01*
X115412472Y-92563237D01*
X115378988Y-92501915D01*
X115383972Y-92432224D01*
X115425844Y-92376290D01*
X115491308Y-92351873D01*
X115500154Y-92351557D01*
X120162274Y-92351557D01*
X120162290Y-92351558D01*
X120169886Y-92351558D01*
X120327997Y-92351558D01*
X120328000Y-92351558D01*
X120480728Y-92310634D01*
X120530847Y-92281696D01*
X120617659Y-92231577D01*
X120729463Y-92119773D01*
X120729463Y-92119771D01*
X120739671Y-92109564D01*
X120739672Y-92109561D01*
X120987819Y-91861414D01*
X121049142Y-91827930D01*
X121118834Y-91832914D01*
G37*
%TD.AperFunction*%
%TA.AperFunction,NonConductor*%
G36*
X131529061Y-91610043D02*
G01*
X131561728Y-91619005D01*
X131562497Y-91619861D01*
X131563600Y-91620185D01*
X131585756Y-91645754D01*
X131608418Y-91670983D01*
X131608602Y-91672120D01*
X131609355Y-91672989D01*
X131614175Y-91706511D01*
X131619594Y-91739953D01*
X131619135Y-91741007D01*
X131619299Y-91742147D01*
X131605225Y-91772964D01*
X131591709Y-91804017D01*
X131590581Y-91805029D01*
X131590274Y-91805703D01*
X131565452Y-91827602D01*
X131489711Y-91878210D01*
X131489707Y-91878213D01*
X131378213Y-91989707D01*
X131378210Y-91989711D01*
X131290609Y-92120814D01*
X131290602Y-92120827D01*
X131230264Y-92266498D01*
X131230261Y-92266510D01*
X131199500Y-92421153D01*
X131199500Y-92578846D01*
X131230261Y-92733489D01*
X131230264Y-92733501D01*
X131290602Y-92879172D01*
X131290609Y-92879185D01*
X131325304Y-92931109D01*
X131346182Y-92997786D01*
X131327698Y-93065167D01*
X131325304Y-93068891D01*
X131290609Y-93120814D01*
X131290602Y-93120827D01*
X131230264Y-93266498D01*
X131230261Y-93266508D01*
X131199361Y-93421850D01*
X131166976Y-93483761D01*
X131165425Y-93485339D01*
X130785584Y-93865181D01*
X130724261Y-93898666D01*
X130697903Y-93901500D01*
X128000446Y-93901500D01*
X127933407Y-93881815D01*
X127887652Y-93829011D01*
X127877708Y-93759853D01*
X127906733Y-93696297D01*
X127931555Y-93674398D01*
X127967586Y-93650322D01*
X128010289Y-93621789D01*
X128121789Y-93510289D01*
X128209394Y-93379179D01*
X128269737Y-93233497D01*
X128300500Y-93078842D01*
X128300500Y-92921158D01*
X128300500Y-92921155D01*
X128300499Y-92921153D01*
X128291957Y-92878211D01*
X128269737Y-92766503D01*
X128246082Y-92709394D01*
X128209396Y-92620825D01*
X128209394Y-92620822D01*
X128209394Y-92620821D01*
X128174694Y-92568889D01*
X128153816Y-92502215D01*
X128172300Y-92434835D01*
X128174676Y-92431136D01*
X128209394Y-92379179D01*
X128269737Y-92233497D01*
X128295667Y-92103138D01*
X128300638Y-92078150D01*
X128333023Y-92016239D01*
X128334514Y-92014720D01*
X128712417Y-91636819D01*
X128773740Y-91603334D01*
X128800098Y-91600500D01*
X131496561Y-91600500D01*
X131529061Y-91610043D01*
G37*
%TD.AperFunction*%
%TA.AperFunction,NonConductor*%
G36*
X126618834Y-91832915D02*
G01*
X126674767Y-91874787D01*
X126699184Y-91940251D01*
X126699500Y-91949097D01*
X126699500Y-92078846D01*
X126730261Y-92233489D01*
X126730264Y-92233501D01*
X126790602Y-92379172D01*
X126790609Y-92379185D01*
X126825304Y-92431109D01*
X126846182Y-92497786D01*
X126827698Y-92565167D01*
X126825304Y-92568891D01*
X126790609Y-92620814D01*
X126790602Y-92620827D01*
X126730264Y-92766498D01*
X126730261Y-92766510D01*
X126699500Y-92921153D01*
X126699500Y-93078846D01*
X126730261Y-93233489D01*
X126730264Y-93233501D01*
X126790602Y-93379172D01*
X126790609Y-93379185D01*
X126878210Y-93510288D01*
X126878213Y-93510292D01*
X126989707Y-93621786D01*
X126989711Y-93621789D01*
X127068445Y-93674398D01*
X127113250Y-93728010D01*
X127121957Y-93797335D01*
X127091802Y-93860363D01*
X127032359Y-93897082D01*
X126999554Y-93901500D01*
X124747097Y-93901500D01*
X124680058Y-93881815D01*
X124634303Y-93829011D01*
X124624359Y-93759853D01*
X124653384Y-93696297D01*
X124659416Y-93689819D01*
X126487819Y-91861416D01*
X126549142Y-91827931D01*
X126618834Y-91832915D01*
G37*
%TD.AperFunction*%
M02*
