%TF.GenerationSoftware,KiCad,Pcbnew,9.0.4*%
%TF.CreationDate,2025-09-27T14:14:02+05:30*%
%TF.ProjectId,EEG,4545472e-6b69-4636-9164-5f7063625858,rev?*%
%TF.SameCoordinates,Original*%
%TF.FileFunction,Copper,L1,Top*%
%TF.FilePolarity,Positive*%
%FSLAX46Y46*%
G04 Gerber Fmt 4.6, Leading zero omitted, Abs format (unit mm)*
G04 Created by KiCad (PCBNEW 9.0.4) date 2025-09-27 14:14:02*
%MOMM*%
%LPD*%
G01*
G04 APERTURE LIST*
G04 Aperture macros list*
%AMRoundRect*
0 Rectangle with rounded corners*
0 $1 Rounding radius*
0 $2 $3 $4 $5 $6 $7 $8 $9 X,Y pos of 4 corners*
0 Add a 4 corners polygon primitive as box body*
4,1,4,$2,$3,$4,$5,$6,$7,$8,$9,$2,$3,0*
0 Add four circle primitives for the rounded corners*
1,1,$1+$1,$2,$3*
1,1,$1+$1,$4,$5*
1,1,$1+$1,$6,$7*
1,1,$1+$1,$8,$9*
0 Add four rect primitives between the rounded corners*
20,1,$1+$1,$2,$3,$4,$5,0*
20,1,$1+$1,$4,$5,$6,$7,0*
20,1,$1+$1,$6,$7,$8,$9,0*
20,1,$1+$1,$8,$9,$2,$3,0*%
G04 Aperture macros list end*
%TA.AperFunction,SMDPad,CuDef*%
%ADD10RoundRect,0.250000X-0.450000X0.262500X-0.450000X-0.262500X0.450000X-0.262500X0.450000X0.262500X0*%
%TD*%
%TA.AperFunction,SMDPad,CuDef*%
%ADD11RoundRect,0.250000X-0.475000X0.250000X-0.475000X-0.250000X0.475000X-0.250000X0.475000X0.250000X0*%
%TD*%
%TA.AperFunction,SMDPad,CuDef*%
%ADD12RoundRect,0.250000X0.262500X0.450000X-0.262500X0.450000X-0.262500X-0.450000X0.262500X-0.450000X0*%
%TD*%
%TA.AperFunction,SMDPad,CuDef*%
%ADD13R,0.500000X0.300000*%
%TD*%
%TA.AperFunction,SMDPad,CuDef*%
%ADD14R,1.050000X1.750000*%
%TD*%
%TA.AperFunction,SMDPad,CuDef*%
%ADD15RoundRect,0.250000X-0.262500X-0.450000X0.262500X-0.450000X0.262500X0.450000X-0.262500X0.450000X0*%
%TD*%
%TA.AperFunction,SMDPad,CuDef*%
%ADD16RoundRect,0.250000X0.450000X-0.262500X0.450000X0.262500X-0.450000X0.262500X-0.450000X-0.262500X0*%
%TD*%
%TA.AperFunction,ComponentPad*%
%ADD17RoundRect,0.250000X0.725000X-0.600000X0.725000X0.600000X-0.725000X0.600000X-0.725000X-0.600000X0*%
%TD*%
%TA.AperFunction,ComponentPad*%
%ADD18O,1.950000X1.700000*%
%TD*%
%TA.AperFunction,SMDPad,CuDef*%
%ADD19RoundRect,0.250000X0.250000X0.475000X-0.250000X0.475000X-0.250000X-0.475000X0.250000X-0.475000X0*%
%TD*%
%TA.AperFunction,SMDPad,CuDef*%
%ADD20RoundRect,0.150000X-0.800000X-0.150000X0.800000X-0.150000X0.800000X0.150000X-0.800000X0.150000X0*%
%TD*%
%TA.AperFunction,ComponentPad*%
%ADD21C,1.620000*%
%TD*%
%TA.AperFunction,SMDPad,CuDef*%
%ADD22RoundRect,0.250000X0.475000X-0.250000X0.475000X0.250000X-0.475000X0.250000X-0.475000X-0.250000X0*%
%TD*%
%TA.AperFunction,SMDPad,CuDef*%
%ADD23RoundRect,0.250000X-0.250000X-0.475000X0.250000X-0.475000X0.250000X0.475000X-0.250000X0.475000X0*%
%TD*%
%TA.AperFunction,ComponentPad*%
%ADD24RoundRect,0.250000X-0.725000X0.600000X-0.725000X-0.600000X0.725000X-0.600000X0.725000X0.600000X0*%
%TD*%
%TA.AperFunction,ViaPad*%
%ADD25C,0.600000*%
%TD*%
%TA.AperFunction,Conductor*%
%ADD26C,0.200000*%
%TD*%
G04 APERTURE END LIST*
D10*
%TO.P,R15,1*%
%TO.N,Net-(U5A-+)*%
X147500000Y-85175000D03*
%TO.P,R15,2*%
%TO.N,GND*%
X147500000Y-87000000D03*
%TD*%
D11*
%TO.P,C6,1*%
%TO.N,Net-(C6-Pad1)*%
X142000000Y-85175000D03*
%TO.P,C6,2*%
%TO.N,GND*%
X142000000Y-87075000D03*
%TD*%
D12*
%TO.P,R12,1*%
%TO.N,Net-(U6A--)*%
X152097500Y-75500000D03*
%TO.P,R12,2*%
%TO.N,Net-(C7-Pad2)*%
X150272500Y-75500000D03*
%TD*%
D10*
%TO.P,R5,1*%
%TO.N,Net-(C4-Pad1)*%
X132412500Y-73850000D03*
%TO.P,R5,2*%
%TO.N,Net-(U3A--)*%
X132412500Y-75675000D03*
%TD*%
D13*
%TO.P,U4,1*%
%TO.N,Net-(C8-Pad1)*%
X124200000Y-92000000D03*
%TO.P,U4,2,-*%
%TO.N,Net-(U4A--)*%
X124200000Y-92500000D03*
%TO.P,U4,3,+*%
%TO.N,GND*%
X124200000Y-93000000D03*
%TO.P,U4,4,V-*%
X124200000Y-93500000D03*
%TO.P,U4,5*%
%TO.N,N/C*%
X126000000Y-93500000D03*
%TO.P,U4,6*%
X126000000Y-93000000D03*
%TO.P,U4,7*%
X126000000Y-92500000D03*
%TO.P,U4,8,V+*%
%TO.N,+9V*%
X126000000Y-92000000D03*
D14*
%TO.P,U4,9,PAD*%
%TO.N,Net-(U2C-PAD)*%
X125100000Y-92750000D03*
%TD*%
D11*
%TO.P,C3,1*%
%TO.N,Net-(U2A--)*%
X137412500Y-77637500D03*
%TO.P,C3,2*%
%TO.N,Net-(C3-Pad2)*%
X137412500Y-79537500D03*
%TD*%
D10*
%TO.P,R20,1*%
%TO.N,Net-(U2C-PAD)*%
X145500000Y-85175000D03*
%TO.P,R20,2*%
%TO.N,GND*%
X145500000Y-87000000D03*
%TD*%
D15*
%TO.P,R1,1*%
%TO.N,Net-(R1-Pad1)*%
X121175000Y-78500000D03*
%TO.P,R1,2*%
%TO.N,Net-(R1-Pad2)*%
X123000000Y-78500000D03*
%TD*%
D13*
%TO.P,U2,1*%
%TO.N,Net-(U2A--)*%
X116100000Y-89250000D03*
%TO.P,U2,2,-*%
X116100000Y-89750000D03*
%TO.P,U2,3,+*%
%TO.N,Net-(U2A-+)*%
X116100000Y-90250000D03*
%TO.P,U2,4,V-*%
%TO.N,GND*%
X116100000Y-90750000D03*
%TO.P,U2,5*%
%TO.N,N/C*%
X117900000Y-90750000D03*
%TO.P,U2,6*%
X117900000Y-90250000D03*
%TO.P,U2,7*%
X117900000Y-89750000D03*
%TO.P,U2,8,V+*%
%TO.N,+9V*%
X117900000Y-89250000D03*
D14*
%TO.P,U2,9,PAD*%
%TO.N,Net-(U2C-PAD)*%
X117000000Y-90000000D03*
%TD*%
D12*
%TO.P,R19,1*%
%TO.N,+9V*%
X147412500Y-83000000D03*
%TO.P,R19,2*%
%TO.N,Net-(U2C-PAD)*%
X145587500Y-83000000D03*
%TD*%
D16*
%TO.P,R18,1*%
%TO.N,GND*%
X128000000Y-87000000D03*
%TO.P,R18,2*%
%TO.N,bioRef*%
X128000000Y-85175000D03*
%TD*%
D17*
%TO.P,J2,1,Pin_1*%
%TO.N,bioIN-*%
X111500000Y-86000000D03*
D18*
%TO.P,J2,2,Pin_2*%
%TO.N,bioIN+*%
X111500000Y-83500000D03*
%TO.P,J2,3,Pin_3*%
%TO.N,bioRef*%
X111500000Y-81000000D03*
%TD*%
D13*
%TO.P,U5,1*%
%TO.N,Net-(U5A--)*%
X129100000Y-92000000D03*
%TO.P,U5,2,-*%
X129100000Y-92500000D03*
%TO.P,U5,3,+*%
%TO.N,Net-(U5A-+)*%
X129100000Y-93000000D03*
%TO.P,U5,4,V-*%
%TO.N,GND*%
X129100000Y-93500000D03*
%TO.P,U5,5*%
%TO.N,N/C*%
X130900000Y-93500000D03*
%TO.P,U5,6*%
X130900000Y-93000000D03*
%TO.P,U5,7*%
X130900000Y-92500000D03*
%TO.P,U5,8,V+*%
%TO.N,+9V*%
X130900000Y-92000000D03*
D14*
%TO.P,U5,9,PAD*%
%TO.N,Net-(U2C-PAD)*%
X130000000Y-92750000D03*
%TD*%
D10*
%TO.P,R4,1*%
%TO.N,Net-(C1-Pad2)*%
X137412500Y-73500000D03*
%TO.P,R4,2*%
%TO.N,Net-(U2A--)*%
X137412500Y-75325000D03*
%TD*%
%TO.P,R3,1*%
%TO.N,Net-(U2A-+)*%
X135000000Y-85175000D03*
%TO.P,R3,2*%
%TO.N,GND*%
X135000000Y-87000000D03*
%TD*%
D15*
%TO.P,R13,1*%
%TO.N,Net-(C7-Pad2)*%
X150175000Y-81500000D03*
%TO.P,R13,2*%
%TO.N,Sound Card*%
X152000000Y-81500000D03*
%TD*%
D10*
%TO.P,R11,1*%
%TO.N,Net-(U6A-+)*%
X131500000Y-85175000D03*
%TO.P,R11,2*%
%TO.N,GND*%
X131500000Y-87000000D03*
%TD*%
D11*
%TO.P,C8,1*%
%TO.N,Net-(C8-Pad1)*%
X147000000Y-74050000D03*
%TO.P,C8,2*%
%TO.N,Net-(U4A--)*%
X147000000Y-75950000D03*
%TD*%
D19*
%TO.P,C2,1*%
%TO.N,Net-(C1-Pad2)*%
X136950000Y-83000000D03*
%TO.P,C2,2*%
%TO.N,Net-(U2A-+)*%
X135050000Y-83000000D03*
%TD*%
D10*
%TO.P,R6,1*%
%TO.N,Net-(C4-Pad1)*%
X143952500Y-77770000D03*
%TO.P,R6,2*%
%TO.N,Net-(C6-Pad1)*%
X143952500Y-79595000D03*
%TD*%
D20*
%TO.P,U1,1,Rg*%
%TO.N,Net-(R1-Pad1)*%
X118500000Y-81095000D03*
%TO.P,U1,2,-*%
%TO.N,bioIN-*%
X118500000Y-82365000D03*
%TO.P,U1,3,+*%
%TO.N,bioIN+*%
X118500000Y-83635000D03*
%TO.P,U1,4,Vs-*%
%TO.N,GNDA*%
X118500000Y-84905000D03*
%TO.P,U1,5,Ref*%
%TO.N,bioRef*%
X125500000Y-84905000D03*
%TO.P,U1,6*%
%TO.N,Net-(R2-Pad1)*%
X125500000Y-83635000D03*
%TO.P,U1,7,Vs+*%
%TO.N,+9V*%
X125500000Y-82365000D03*
%TO.P,U1,8,Rg*%
%TO.N,Net-(R1-Pad2)*%
X125500000Y-81095000D03*
%TD*%
D11*
%TO.P,C4,1*%
%TO.N,Net-(C4-Pad1)*%
X135412500Y-77637500D03*
%TO.P,C4,2*%
%TO.N,Net-(C3-Pad2)*%
X135412500Y-79537500D03*
%TD*%
D13*
%TO.P,U3,1*%
%TO.N,Net-(C4-Pad1)*%
X120600000Y-89250000D03*
%TO.P,U3,2,-*%
%TO.N,Net-(U3A--)*%
X120600000Y-89750000D03*
%TO.P,U3,3,+*%
%TO.N,GND*%
X120600000Y-90250000D03*
%TO.P,U3,4,V-*%
X120600000Y-90750000D03*
%TO.P,U3,5*%
%TO.N,N/C*%
X122400000Y-90750000D03*
%TO.P,U3,6*%
X122400000Y-90250000D03*
%TO.P,U3,7*%
X122400000Y-89750000D03*
%TO.P,U3,8,V+*%
%TO.N,+9V*%
X122400000Y-89250000D03*
D14*
%TO.P,U3,9,PAD*%
%TO.N,Net-(U2C-PAD)*%
X121500000Y-90000000D03*
%TD*%
D10*
%TO.P,R2,1*%
%TO.N,Net-(R2-Pad1)*%
X141500000Y-73587500D03*
%TO.P,R2,2*%
%TO.N,Net-(C1-Pad1)*%
X141500000Y-75412500D03*
%TD*%
D12*
%TO.P,R14,1*%
%TO.N,Net-(C10-Pad2)*%
X155412500Y-78500000D03*
%TO.P,R14,2*%
%TO.N,Net-(U5A--)*%
X153587500Y-78500000D03*
%TD*%
D21*
%TO.P,RV1,1,1*%
%TO.N,unconnected-(RV1-Pad1)*%
X156000000Y-89500000D03*
%TO.P,RV1,2,2*%
%TO.N,Net-(R10-Pad1)*%
X153500000Y-92000000D03*
%TO.P,RV1,3,3*%
%TO.N,GND*%
X151000000Y-89500000D03*
%TD*%
D19*
%TO.P,C7,1*%
%TO.N,Net-(U6A--)*%
X152075000Y-79090000D03*
%TO.P,C7,2*%
%TO.N,Net-(C7-Pad2)*%
X150175000Y-79090000D03*
%TD*%
D10*
%TO.P,R8,1*%
%TO.N,Net-(C8-Pad1)*%
X141912500Y-77762500D03*
%TO.P,R8,2*%
%TO.N,Net-(C6-Pad1)*%
X141912500Y-79587500D03*
%TD*%
D16*
%TO.P,R9,1*%
%TO.N,Net-(C6-Pad1)*%
X146912500Y-79500000D03*
%TO.P,R9,2*%
%TO.N,Net-(U4A--)*%
X146912500Y-77675000D03*
%TD*%
D12*
%TO.P,R16,1*%
%TO.N,bioIN-*%
X116500000Y-82500000D03*
%TO.P,R16,2*%
%TO.N,GND*%
X114675000Y-82500000D03*
%TD*%
D22*
%TO.P,C5,1*%
%TO.N,Net-(C3-Pad2)*%
X132402500Y-79537500D03*
%TO.P,C5,2*%
%TO.N,Net-(U3A--)*%
X132402500Y-77637500D03*
%TD*%
D19*
%TO.P,C16,1*%
%TO.N,Net-(C10-Pad2)*%
X155500000Y-83500000D03*
%TO.P,C16,2*%
%TO.N,Net-(U5A-+)*%
X153600000Y-83500000D03*
%TD*%
D13*
%TO.P,U6,1*%
%TO.N,Net-(C7-Pad2)*%
X133700000Y-92000000D03*
%TO.P,U6,2,-*%
%TO.N,Net-(U6A--)*%
X133700000Y-92500000D03*
%TO.P,U6,3,+*%
%TO.N,Net-(U6A-+)*%
X133700000Y-93000000D03*
%TO.P,U6,4,V-*%
%TO.N,GND*%
X133700000Y-93500000D03*
%TO.P,U6,5*%
%TO.N,N/C*%
X135500000Y-93500000D03*
%TO.P,U6,6*%
X135500000Y-93000000D03*
%TO.P,U6,7*%
X135500000Y-92500000D03*
%TO.P,U6,8,V+*%
%TO.N,+9V*%
X135500000Y-92000000D03*
D14*
%TO.P,U6,9,PAD*%
%TO.N,Net-(U2C-PAD)*%
X134600000Y-92750000D03*
%TD*%
D23*
%TO.P,C10,1*%
%TO.N,Sound Card*%
X153600000Y-81500000D03*
%TO.P,C10,2*%
%TO.N,Net-(C10-Pad2)*%
X155500000Y-81500000D03*
%TD*%
D12*
%TO.P,R10,1*%
%TO.N,Net-(R10-Pad1)*%
X155912500Y-75500000D03*
%TO.P,R10,2*%
%TO.N,Net-(U6A--)*%
X154087500Y-75500000D03*
%TD*%
D19*
%TO.P,C9,1*%
%TO.N,Net-(C8-Pad1)*%
X133500000Y-83000000D03*
%TO.P,C9,2*%
%TO.N,Net-(U6A-+)*%
X131600000Y-83000000D03*
%TD*%
D12*
%TO.P,R17,1*%
%TO.N,bioIN+*%
X116500000Y-84500000D03*
%TO.P,R17,2*%
%TO.N,GND*%
X114675000Y-84500000D03*
%TD*%
D10*
%TO.P,R7,1*%
%TO.N,Net-(C3-Pad2)*%
X138500000Y-85175000D03*
%TO.P,R7,2*%
%TO.N,GND*%
X138500000Y-87000000D03*
%TD*%
D24*
%TO.P,J1,1,Pin_1*%
%TO.N,+9V*%
X160000000Y-77000000D03*
D18*
%TO.P,J1,2,Pin_2*%
%TO.N,GND*%
X160000000Y-79500000D03*
%TO.P,J1,3,Pin_3*%
%TO.N,Sound Card*%
X160000000Y-82000000D03*
%TD*%
D22*
%TO.P,C1,1*%
%TO.N,Net-(C1-Pad1)*%
X139500000Y-75450000D03*
%TO.P,C1,2*%
%TO.N,Net-(C1-Pad2)*%
X139500000Y-73550000D03*
%TD*%
D25*
%TO.N,Net-(U5A-+)*%
X128500000Y-95399000D03*
X151000000Y-85175000D03*
%TO.N,Net-(U6A-+)*%
X129000000Y-83000000D03*
%TO.N,Net-(U2A-+)*%
X114000000Y-92000000D03*
%TO.N,Net-(U4A--)*%
X150000000Y-73500000D03*
%TO.N,Net-(U3A--)*%
X130000000Y-78500000D03*
%TO.N,Net-(U2A-+)*%
X137000000Y-84500000D03*
%TO.N,Net-(U2A--)*%
X136500000Y-76500000D03*
%TO.N,Net-(C8-Pad1)*%
X133500000Y-81000000D03*
%TO.N,Net-(U6A--)*%
X157000000Y-73000000D03*
%TO.N,Net-(C7-Pad2)*%
X148500000Y-78500000D03*
%TO.N,Sound Card*%
X154000000Y-80000000D03*
%TO.N,Net-(U5A--)*%
X155500000Y-77000000D03*
%TO.N,Net-(C4-Pad1)*%
X134500000Y-75000000D03*
X145000000Y-76500000D03*
%TO.N,Net-(C1-Pad2)*%
X138000000Y-81500000D03*
X135500000Y-73500000D03*
%TO.N,Net-(U5A-+)*%
X127500000Y-93000000D03*
%TO.N,Net-(U5A--)*%
X127500000Y-92000000D03*
%TO.N,Net-(C8-Pad1)*%
X122000000Y-92000000D03*
%TO.N,Net-(U4A--)*%
X122000000Y-93500000D03*
%TO.N,Net-(U6A-+)*%
X132000000Y-93500000D03*
%TO.N,Net-(U6A--)*%
X132000000Y-92500000D03*
%TO.N,Net-(C7-Pad2)*%
X132500000Y-91500000D03*
%TO.N,Net-(U3A--)*%
X119000000Y-91000000D03*
%TO.N,Net-(C4-Pad1)*%
X119000000Y-90000000D03*
%TO.N,Net-(U2A-+)*%
X114000000Y-90000000D03*
%TO.N,Net-(U2A--)*%
X114750000Y-89250000D03*
%TO.N,GND*%
X113500000Y-83500000D03*
X113500000Y-86500000D03*
%TD*%
D26*
%TO.N,Net-(C8-Pad1)*%
X124200000Y-92000000D02*
X122000000Y-92000000D01*
%TO.N,+9V*%
X152870160Y-72399000D02*
X154601000Y-72399000D01*
X155500000Y-71500000D02*
X132571000Y-71500000D01*
X154601000Y-72399000D02*
X155500000Y-71500000D01*
X128000000Y-76071000D02*
X128000000Y-79000000D01*
X132571000Y-71500000D02*
X128000000Y-76071000D01*
X157000000Y-71500000D02*
X155500000Y-71500000D01*
X160000000Y-74500000D02*
X157000000Y-71500000D01*
X160000000Y-77000000D02*
X160000000Y-74500000D01*
X127500000Y-90500000D02*
X128000000Y-90500000D01*
X125000000Y-88000000D02*
X127500000Y-90500000D01*
X164000000Y-78500000D02*
X162500000Y-77000000D01*
X164000000Y-95500000D02*
X164000000Y-78500000D01*
X162500000Y-77000000D02*
X160000000Y-77000000D01*
X163101000Y-96399000D02*
X164000000Y-95500000D01*
X144399000Y-96399000D02*
X163101000Y-96399000D01*
X138500000Y-90500000D02*
X144399000Y-96399000D01*
X147913500Y-82499000D02*
X147412500Y-83000000D01*
X147899000Y-78899000D02*
X147913500Y-78913500D01*
X147899000Y-78101000D02*
X147899000Y-78899000D01*
X148026000Y-77974000D02*
X147899000Y-78101000D01*
X148026000Y-76247840D02*
X148026000Y-77974000D01*
X149774840Y-74499000D02*
X148026000Y-76247840D01*
X150770160Y-74499000D02*
X149774840Y-74499000D01*
X152870160Y-72399000D02*
X150770160Y-74499000D01*
X147913500Y-78913500D02*
X147913500Y-82499000D01*
X160000000Y-77000000D02*
X160000000Y-75150057D01*
X128000000Y-80814999D02*
X128000000Y-79000000D01*
X126449999Y-82365000D02*
X128000000Y-80814999D01*
X125500000Y-82365000D02*
X126449999Y-82365000D01*
%TO.N,Net-(R2-Pad1)*%
X126449999Y-83635000D02*
X125500000Y-83635000D01*
X129000000Y-81084999D02*
X126449999Y-83635000D01*
X129000000Y-75763840D02*
X129000000Y-81084999D01*
X132077340Y-72686500D02*
X129000000Y-75763840D01*
X141500000Y-73587500D02*
X140599000Y-72686500D01*
X140599000Y-72686500D02*
X132077340Y-72686500D01*
%TO.N,GND*%
X129100000Y-95600000D02*
X130000000Y-96500000D01*
X129100000Y-93500000D02*
X129100000Y-95600000D01*
X131000000Y-96500000D02*
X130000000Y-96500000D01*
X123500000Y-94500000D02*
X123500000Y-96000000D01*
X123500000Y-96000000D02*
X124000000Y-96500000D01*
X124000000Y-96500000D02*
X121500000Y-96500000D01*
X121000000Y-96000000D02*
X121500000Y-96500000D01*
X121500000Y-96500000D02*
X115500000Y-96500000D01*
X121000000Y-94500000D02*
X121000000Y-96000000D01*
X130000000Y-96500000D02*
X124000000Y-96500000D01*
X132000000Y-95500000D02*
X131000000Y-96500000D01*
X132000000Y-94500000D02*
X132000000Y-95500000D01*
X115500000Y-96500000D02*
X113000000Y-94000000D01*
X113000000Y-94000000D02*
X113000000Y-87000000D01*
X113000000Y-87000000D02*
X113500000Y-86500000D01*
X133000000Y-93500000D02*
X132000000Y-94500000D01*
X133700000Y-93500000D02*
X133000000Y-93500000D01*
%TO.N,Net-(U5A-+)*%
X127500000Y-94399000D02*
X128500000Y-95399000D01*
X127500000Y-93000000D02*
X127500000Y-94399000D01*
X151000000Y-85175000D02*
X151925000Y-85175000D01*
%TO.N,+9V*%
X137000000Y-92000000D02*
X135500000Y-92000000D01*
X138500000Y-90500000D02*
X137000000Y-92000000D01*
X131500000Y-90500000D02*
X138500000Y-90500000D01*
X126000000Y-92000000D02*
X126500000Y-92000000D01*
X126500000Y-92000000D02*
X128000000Y-90500000D01*
X128000000Y-90500000D02*
X131500000Y-90500000D01*
%TO.N,Net-(U6A-+)*%
X131600000Y-83000000D02*
X129000000Y-83000000D01*
%TO.N,Net-(U2A-+)*%
X114000000Y-90000000D02*
X114000000Y-92000000D01*
%TO.N,Net-(U4A--)*%
X149450000Y-73500000D02*
X150000000Y-73500000D01*
X147000000Y-75950000D02*
X149450000Y-73500000D01*
%TO.N,Net-(U3A--)*%
X130862500Y-77637500D02*
X132402500Y-77637500D01*
X130000000Y-78500000D02*
X130862500Y-77637500D01*
%TO.N,Net-(U2A-+)*%
X135000000Y-84500000D02*
X137000000Y-84500000D01*
X135000000Y-84500000D02*
X135000000Y-83050000D01*
%TO.N,Net-(U2A--)*%
X137412500Y-76500000D02*
X137412500Y-77637500D01*
X137412500Y-76500000D02*
X136500000Y-76500000D01*
%TO.N,Net-(C8-Pad1)*%
X133500000Y-81000000D02*
X133500000Y-83000000D01*
%TO.N,Net-(C7-Pad2)*%
X149175000Y-78500000D02*
X148500000Y-78500000D01*
X150175000Y-77500000D02*
X149175000Y-78500000D01*
X150175000Y-81500000D02*
X150175000Y-77500000D01*
%TO.N,Sound Card*%
X153600000Y-80400000D02*
X154000000Y-80000000D01*
X153600000Y-81500000D02*
X153600000Y-80400000D01*
%TO.N,Net-(U5A--)*%
X155087500Y-77000000D02*
X155500000Y-77000000D01*
X153587500Y-78500000D02*
X155087500Y-77000000D01*
%TO.N,Net-(R10-Pad1)*%
X157111000Y-86817808D02*
X153500000Y-90428808D01*
X157111000Y-76698500D02*
X157111000Y-86817808D01*
X155912500Y-75500000D02*
X157111000Y-76698500D01*
X153500000Y-90428808D02*
X153500000Y-92000000D01*
%TO.N,Net-(U6A--)*%
X156587500Y-73000000D02*
X157000000Y-73000000D01*
X154087500Y-75500000D02*
X156587500Y-73000000D01*
%TO.N,Net-(C4-Pad1)*%
X134500000Y-75000000D02*
X133350000Y-73850000D01*
X143952500Y-77547500D02*
X145000000Y-76500000D01*
X143952500Y-77770000D02*
X143952500Y-77547500D01*
%TO.N,Net-(C1-Pad2)*%
X138000000Y-81950000D02*
X138000000Y-81500000D01*
X136950000Y-83000000D02*
X138000000Y-81950000D01*
X137412500Y-73500000D02*
X135500000Y-73500000D01*
%TO.N,Net-(U4A--)*%
X124200000Y-92500000D02*
X123000000Y-92500000D01*
X123000000Y-92500000D02*
X122000000Y-93500000D01*
%TO.N,GND*%
X120000000Y-93500000D02*
X120000000Y-92000000D01*
X121000000Y-94500000D02*
X120000000Y-93500000D01*
%TO.N,Net-(C7-Pad2)*%
X133000000Y-92000000D02*
X132500000Y-91500000D01*
X133700000Y-92000000D02*
X133000000Y-92000000D01*
%TO.N,+9V*%
X130900000Y-91100000D02*
X131500000Y-90500000D01*
X130900000Y-92000000D02*
X130900000Y-91100000D01*
%TO.N,Net-(U6A--)*%
X133700000Y-92500000D02*
X132000000Y-92500000D01*
%TO.N,Net-(U6A-+)*%
X132500000Y-93000000D02*
X132000000Y-93500000D01*
X133700000Y-93000000D02*
X132500000Y-93000000D01*
%TO.N,GND*%
X124200000Y-93800000D02*
X123500000Y-94500000D01*
X124200000Y-93500000D02*
X124200000Y-93800000D01*
X120600000Y-90750000D02*
X120600000Y-91400000D01*
X120600000Y-91400000D02*
X120000000Y-92000000D01*
X120000000Y-92000000D02*
X116998000Y-92000000D01*
X116100000Y-91102000D02*
X116100000Y-90750000D01*
X116998000Y-92000000D02*
X116100000Y-91102000D01*
%TO.N,Net-(U5A-+)*%
X129100000Y-93000000D02*
X127500000Y-93000000D01*
%TO.N,Net-(U5A--)*%
X129100000Y-92000000D02*
X127500000Y-92000000D01*
%TO.N,Net-(U3A--)*%
X120250000Y-89750000D02*
X119000000Y-91000000D01*
X120600000Y-89750000D02*
X120250000Y-89750000D01*
%TO.N,Net-(C4-Pad1)*%
X119750000Y-89250000D02*
X120600000Y-89250000D01*
X119000000Y-90000000D02*
X119750000Y-89250000D01*
%TO.N,Net-(U5A--)*%
X129100000Y-92000000D02*
X129100000Y-92500000D01*
%TO.N,GND*%
X124200000Y-93000000D02*
X124200000Y-93500000D01*
X120600000Y-90750000D02*
X120600000Y-90250000D01*
%TO.N,+9V*%
X123750000Y-89250000D02*
X122400000Y-89250000D01*
X125000000Y-88000000D02*
X123750000Y-89250000D01*
X120000000Y-88000000D02*
X125000000Y-88000000D01*
X118750000Y-89250000D02*
X120000000Y-88000000D01*
X117900000Y-89250000D02*
X118750000Y-89250000D01*
%TO.N,Net-(U2A-+)*%
X114250000Y-90250000D02*
X114000000Y-90000000D01*
X114500000Y-90250000D02*
X114250000Y-90250000D01*
%TO.N,Net-(U2A--)*%
X116100000Y-89250000D02*
X114750000Y-89250000D01*
X116100000Y-89250000D02*
X116100000Y-89750000D01*
%TO.N,Net-(U2A-+)*%
X116100000Y-90250000D02*
X114500000Y-90250000D01*
%TO.N,Net-(C1-Pad1)*%
X141462500Y-75450000D02*
X141500000Y-75412500D01*
X139500000Y-75450000D02*
X141462500Y-75450000D01*
%TO.N,Net-(C1-Pad2)*%
X139200000Y-73850000D02*
X139500000Y-73550000D01*
X139450000Y-73500000D02*
X139500000Y-73550000D01*
X137412500Y-73500000D02*
X139450000Y-73500000D01*
%TO.N,Net-(U2A-+)*%
X135000000Y-83050000D02*
X135050000Y-83000000D01*
X135000000Y-85175000D02*
X135000000Y-84500000D01*
%TO.N,Net-(U2A--)*%
X137412500Y-75325000D02*
X137412500Y-76500000D01*
%TO.N,Net-(C3-Pad2)*%
X137412500Y-79537500D02*
X132402500Y-79537500D01*
%TO.N,Net-(C4-Pad1)*%
X135412500Y-77637500D02*
X135412500Y-75912500D01*
X133350000Y-73850000D02*
X132412500Y-73850000D01*
X135412500Y-75912500D02*
X134500000Y-75000000D01*
%TO.N,Net-(U3A--)*%
X132402500Y-75685000D02*
X132412500Y-75675000D01*
X132402500Y-77637500D02*
X132402500Y-75685000D01*
%TO.N,Net-(C6-Pad1)*%
X142500000Y-79500000D02*
X146912500Y-79500000D01*
X142000000Y-79675000D02*
X141912500Y-79587500D01*
X142412500Y-79587500D02*
X142500000Y-79500000D01*
X141912500Y-79587500D02*
X142412500Y-79587500D01*
X142000000Y-85175000D02*
X142000000Y-79675000D01*
%TO.N,GND*%
X147500000Y-87000000D02*
X148500000Y-87000000D01*
X128000000Y-87000000D02*
X147500000Y-87000000D01*
X114675000Y-82500000D02*
X114500000Y-82500000D01*
X114675000Y-82500000D02*
X114675000Y-84500000D01*
X114500000Y-82500000D02*
X113500000Y-83500000D01*
X148500000Y-87000000D02*
X151000000Y-89500000D01*
%TO.N,Net-(C7-Pad2)*%
X150175000Y-77500000D02*
X150175000Y-75597500D01*
X150175000Y-75597500D02*
X150272500Y-75500000D01*
%TO.N,Net-(U6A--)*%
X152097500Y-75500000D02*
X154087500Y-75500000D01*
X152097500Y-79067500D02*
X152075000Y-79090000D01*
X152097500Y-75500000D02*
X152097500Y-79067500D01*
%TO.N,Net-(C8-Pad1)*%
X145625000Y-74050000D02*
X141912500Y-77762500D01*
X138500000Y-80500000D02*
X141237500Y-77762500D01*
X141237500Y-77762500D02*
X141912500Y-77762500D01*
X133500000Y-83000000D02*
X136000000Y-80500000D01*
X136000000Y-80500000D02*
X138500000Y-80500000D01*
X147000000Y-74050000D02*
X145625000Y-74050000D01*
%TO.N,Net-(U4A--)*%
X146912500Y-76037500D02*
X147000000Y-75950000D01*
X146912500Y-77675000D02*
X146912500Y-76037500D01*
%TO.N,Net-(U6A-+)*%
X131600000Y-83000000D02*
X131600000Y-85075000D01*
X131600000Y-85075000D02*
X131500000Y-85175000D01*
%TO.N,Sound Card*%
X152000000Y-81500000D02*
X153600000Y-81500000D01*
%TO.N,Net-(C10-Pad2)*%
X155500000Y-81500000D02*
X155500000Y-83500000D01*
X155412500Y-81412500D02*
X155500000Y-81500000D01*
X155412500Y-78500000D02*
X155412500Y-81412500D01*
%TO.N,Net-(U5A-+)*%
X147500000Y-85175000D02*
X151000000Y-85175000D01*
X151925000Y-85175000D02*
X153600000Y-83500000D01*
%TO.N,Net-(R1-Pad2)*%
X123000000Y-78500000D02*
X124500000Y-78500000D01*
X124500000Y-78500000D02*
X125500000Y-79500000D01*
X125500000Y-79500000D02*
X125500000Y-81095000D01*
%TO.N,Net-(R1-Pad1)*%
X118500000Y-81095000D02*
X118500000Y-79500000D01*
X119500000Y-78500000D02*
X121175000Y-78500000D01*
X118500000Y-79500000D02*
X119500000Y-78500000D01*
%TO.N,bioIN-*%
X110224000Y-84724000D02*
X110224000Y-82825240D01*
X115500000Y-81500000D02*
X116500000Y-82500000D01*
X110224000Y-82825240D02*
X110898240Y-82151000D01*
X111500000Y-86000000D02*
X110224000Y-84724000D01*
X113525340Y-82151000D02*
X114176340Y-81500000D01*
X118365000Y-82500000D02*
X118500000Y-82365000D01*
X110898240Y-82151000D02*
X113525340Y-82151000D01*
X116500000Y-82500000D02*
X118365000Y-82500000D01*
X114176340Y-81500000D02*
X115500000Y-81500000D01*
%TO.N,bioIN+*%
X116500000Y-84500000D02*
X117365000Y-83635000D01*
X117365000Y-83635000D02*
X118500000Y-83635000D01*
X113501000Y-85501000D02*
X115499000Y-85501000D01*
X115499000Y-85501000D02*
X116500000Y-84500000D01*
X111500000Y-83500000D02*
X113501000Y-85501000D01*
%TO.N,bioRef*%
X127730000Y-84905000D02*
X128000000Y-85175000D01*
X125500000Y-84905000D02*
X127730000Y-84905000D01*
%TO.N,Net-(U2C-PAD)*%
X145500000Y-83087500D02*
X145587500Y-83000000D01*
X145500000Y-85175000D02*
X145500000Y-83087500D01*
%TD*%
%TA.AperFunction,NonConductor*%
G36*
X157308363Y-70020185D02*
G01*
X157329005Y-70036819D01*
X160599500Y-73307314D01*
X160692686Y-73400500D01*
X160754054Y-73435931D01*
X160806814Y-73466392D01*
X160934107Y-73500500D01*
X160934108Y-73500500D01*
X167875500Y-73500500D01*
X167942539Y-73520185D01*
X167988294Y-73572989D01*
X167999500Y-73624500D01*
X167999500Y-85375500D01*
X167979815Y-85442539D01*
X167927011Y-85488294D01*
X167875500Y-85499500D01*
X165934108Y-85499500D01*
X165806812Y-85533608D01*
X165692686Y-85599500D01*
X165692683Y-85599502D01*
X165599502Y-85692683D01*
X165599500Y-85692686D01*
X165533608Y-85806812D01*
X165499500Y-85934108D01*
X165499500Y-97375500D01*
X165479815Y-97442539D01*
X165427011Y-97488294D01*
X165375500Y-97499500D01*
X111124500Y-97499500D01*
X111057461Y-97479815D01*
X111011706Y-97427011D01*
X111000500Y-97375500D01*
X111000500Y-90934110D01*
X111000500Y-90934108D01*
X110966392Y-90806814D01*
X110900500Y-90692686D01*
X110807314Y-90599500D01*
X110750250Y-90566554D01*
X110693187Y-90533608D01*
X110597122Y-90507868D01*
X110565892Y-90499500D01*
X110565891Y-90499500D01*
X102624500Y-90499500D01*
X102557461Y-90479815D01*
X102511706Y-90427011D01*
X102500500Y-90375500D01*
X102500500Y-84803054D01*
X109623498Y-84803054D01*
X109664423Y-84955787D01*
X109664425Y-84955790D01*
X109689955Y-85000008D01*
X109689957Y-85000010D01*
X109743479Y-85092714D01*
X109743481Y-85092717D01*
X109862349Y-85211585D01*
X109862355Y-85211590D01*
X109988181Y-85337416D01*
X110021666Y-85398739D01*
X110024500Y-85425097D01*
X110024500Y-86650001D01*
X110024501Y-86650018D01*
X110035000Y-86752796D01*
X110035001Y-86752799D01*
X110076880Y-86879179D01*
X110090186Y-86919334D01*
X110182288Y-87068656D01*
X110306344Y-87192712D01*
X110455666Y-87284814D01*
X110622203Y-87339999D01*
X110724991Y-87350500D01*
X112275008Y-87350499D01*
X112275500Y-87350499D01*
X112342539Y-87370184D01*
X112388294Y-87422987D01*
X112399500Y-87474499D01*
X112399500Y-93913330D01*
X112399499Y-93913348D01*
X112399499Y-94079054D01*
X112399498Y-94079054D01*
X112440424Y-94231789D01*
X112440425Y-94231790D01*
X112461455Y-94268214D01*
X112461456Y-94268216D01*
X112519475Y-94368709D01*
X112519481Y-94368717D01*
X112638349Y-94487585D01*
X112638355Y-94487590D01*
X115015139Y-96864374D01*
X115015149Y-96864385D01*
X115019479Y-96868715D01*
X115019480Y-96868716D01*
X115131284Y-96980520D01*
X115218095Y-97030639D01*
X115218097Y-97030641D01*
X115256151Y-97052611D01*
X115268215Y-97059577D01*
X115420943Y-97100501D01*
X115420946Y-97100501D01*
X115586653Y-97100501D01*
X115586669Y-97100500D01*
X121420939Y-97100500D01*
X121420943Y-97100501D01*
X121579058Y-97100501D01*
X121579062Y-97100500D01*
X123913331Y-97100500D01*
X123913347Y-97100501D01*
X123920943Y-97100501D01*
X124086654Y-97100501D01*
X124086670Y-97100500D01*
X129920942Y-97100500D01*
X129920943Y-97100500D01*
X130913331Y-97100500D01*
X130913347Y-97100501D01*
X130920943Y-97100501D01*
X131079054Y-97100501D01*
X131079057Y-97100501D01*
X131231785Y-97059577D01*
X131281904Y-97030639D01*
X131368716Y-96980520D01*
X131480520Y-96868716D01*
X131480520Y-96868714D01*
X131490728Y-96858507D01*
X131490729Y-96858504D01*
X132480520Y-95868716D01*
X132559577Y-95731784D01*
X132600501Y-95579057D01*
X132600501Y-95420942D01*
X132600501Y-95413339D01*
X132600500Y-95413329D01*
X132600500Y-94800097D01*
X132620185Y-94733058D01*
X132636819Y-94712416D01*
X132871181Y-94478054D01*
X133186114Y-94163120D01*
X133247435Y-94129637D01*
X133317126Y-94134621D01*
X133322714Y-94136705D01*
X133342517Y-94144091D01*
X133402127Y-94150500D01*
X133997872Y-94150499D01*
X134057483Y-94144091D01*
X134086365Y-94133317D01*
X134129700Y-94125499D01*
X135070297Y-94125499D01*
X135113630Y-94133317D01*
X135142517Y-94144091D01*
X135202127Y-94150500D01*
X135797872Y-94150499D01*
X135857483Y-94144091D01*
X135992331Y-94093796D01*
X136107546Y-94007546D01*
X136193796Y-93892331D01*
X136244091Y-93757483D01*
X136250500Y-93697873D01*
X136250499Y-93302128D01*
X136250499Y-93302127D01*
X136250498Y-93302111D01*
X136246320Y-93263253D01*
X136246320Y-93236747D01*
X136250500Y-93197873D01*
X136250499Y-92802128D01*
X136250498Y-92802111D01*
X136246320Y-92763253D01*
X136246320Y-92736747D01*
X136249062Y-92711239D01*
X136275802Y-92646691D01*
X136333195Y-92606844D01*
X136372351Y-92600500D01*
X136913331Y-92600500D01*
X136913347Y-92600501D01*
X136920943Y-92600501D01*
X137079054Y-92600501D01*
X137079057Y-92600501D01*
X137231785Y-92559577D01*
X137281904Y-92530639D01*
X137368716Y-92480520D01*
X137480520Y-92368716D01*
X137480520Y-92368714D01*
X137490728Y-92358507D01*
X137490730Y-92358504D01*
X138412318Y-91436916D01*
X138473641Y-91403431D01*
X138543333Y-91408415D01*
X138587680Y-91436916D01*
X144030284Y-96879520D01*
X144167215Y-96958577D01*
X144319943Y-96999501D01*
X144319946Y-96999501D01*
X144485654Y-96999501D01*
X144485670Y-96999500D01*
X163014331Y-96999500D01*
X163014347Y-96999501D01*
X163021943Y-96999501D01*
X163180054Y-96999501D01*
X163180057Y-96999501D01*
X163332785Y-96958577D01*
X163382904Y-96929639D01*
X163469716Y-96879520D01*
X163581520Y-96767716D01*
X163581520Y-96767714D01*
X163591728Y-96757507D01*
X163591730Y-96757504D01*
X164358506Y-95990728D01*
X164358511Y-95990724D01*
X164368714Y-95980520D01*
X164368716Y-95980520D01*
X164480520Y-95868716D01*
X164538832Y-95767716D01*
X164559577Y-95731785D01*
X164600501Y-95579057D01*
X164600501Y-95420943D01*
X164600501Y-95420942D01*
X164600501Y-95413348D01*
X164600500Y-95413330D01*
X164600500Y-78420945D01*
X164600499Y-78420938D01*
X164599839Y-78418476D01*
X164599836Y-78418466D01*
X164586984Y-78370501D01*
X164586984Y-78370500D01*
X164559577Y-78268216D01*
X164524140Y-78206836D01*
X164480524Y-78131290D01*
X164480521Y-78131286D01*
X164480520Y-78131284D01*
X164368716Y-78019480D01*
X164368715Y-78019479D01*
X164364385Y-78015149D01*
X164364374Y-78015139D01*
X162987590Y-76638355D01*
X162987588Y-76638352D01*
X162868717Y-76519481D01*
X162868716Y-76519480D01*
X162777325Y-76466716D01*
X162777324Y-76466715D01*
X162731783Y-76440422D01*
X162675881Y-76425443D01*
X162579057Y-76399499D01*
X162420943Y-76399499D01*
X162413347Y-76399499D01*
X162413331Y-76399500D01*
X161592535Y-76399500D01*
X161525496Y-76379815D01*
X161479741Y-76327011D01*
X161469177Y-76288102D01*
X161467260Y-76269336D01*
X161464999Y-76247203D01*
X161409814Y-76080666D01*
X161317712Y-75931344D01*
X161193656Y-75807288D01*
X161068781Y-75730265D01*
X161044336Y-75715187D01*
X161044331Y-75715185D01*
X161017086Y-75706157D01*
X160877797Y-75660001D01*
X160877795Y-75660000D01*
X160775016Y-75649500D01*
X160775009Y-75649500D01*
X160724500Y-75649500D01*
X160657461Y-75629815D01*
X160611706Y-75577011D01*
X160600500Y-75525500D01*
X160600500Y-74589060D01*
X160600501Y-74589047D01*
X160600501Y-74420944D01*
X160600501Y-74420943D01*
X160559577Y-74268216D01*
X160552056Y-74255189D01*
X160480524Y-74131290D01*
X160480518Y-74131282D01*
X158989421Y-72640185D01*
X157487589Y-71138354D01*
X157487588Y-71138352D01*
X157368717Y-71019481D01*
X157368716Y-71019480D01*
X157281904Y-70969360D01*
X157281904Y-70969359D01*
X157281900Y-70969358D01*
X157231785Y-70940423D01*
X157079057Y-70899499D01*
X156920943Y-70899499D01*
X156913347Y-70899499D01*
X156913331Y-70899500D01*
X155579061Y-70899500D01*
X155579057Y-70899499D01*
X155420943Y-70899499D01*
X155420939Y-70899500D01*
X132650057Y-70899500D01*
X132491942Y-70899500D01*
X132339215Y-70940423D01*
X132339214Y-70940423D01*
X132339212Y-70940424D01*
X132339209Y-70940425D01*
X132289096Y-70969359D01*
X132289095Y-70969360D01*
X132245689Y-70994420D01*
X132202285Y-71019479D01*
X132202282Y-71019481D01*
X127519481Y-75702282D01*
X127519479Y-75702285D01*
X127503326Y-75730263D01*
X127473909Y-75781216D01*
X127462696Y-75800638D01*
X127443103Y-75834574D01*
X127440423Y-75839215D01*
X127399499Y-75991943D01*
X127399499Y-75991945D01*
X127399499Y-76160046D01*
X127399500Y-76160059D01*
X127399500Y-80514902D01*
X127379815Y-80581941D01*
X127363181Y-80602583D01*
X127135420Y-80830343D01*
X127074097Y-80863828D01*
X127004405Y-80858844D01*
X126948472Y-80816972D01*
X126928663Y-80777259D01*
X126901744Y-80684602D01*
X126818081Y-80543135D01*
X126818079Y-80543133D01*
X126818076Y-80543129D01*
X126701870Y-80426923D01*
X126701862Y-80426917D01*
X126597338Y-80365102D01*
X126560398Y-80343256D01*
X126560397Y-80343255D01*
X126560396Y-80343255D01*
X126560393Y-80343254D01*
X126402573Y-80297402D01*
X126402567Y-80297401D01*
X126365701Y-80294500D01*
X126365694Y-80294500D01*
X126224500Y-80294500D01*
X126157461Y-80274815D01*
X126111706Y-80222011D01*
X126100500Y-80170500D01*
X126100500Y-79589060D01*
X126100501Y-79589047D01*
X126100501Y-79420944D01*
X126099888Y-79418656D01*
X126059577Y-79268216D01*
X126041838Y-79237491D01*
X125980524Y-79131290D01*
X125980521Y-79131286D01*
X125980520Y-79131284D01*
X124987589Y-78138354D01*
X124987588Y-78138352D01*
X124868717Y-78019481D01*
X124868716Y-78019480D01*
X124781904Y-77969360D01*
X124781904Y-77969359D01*
X124781900Y-77969358D01*
X124731785Y-77940423D01*
X124579057Y-77899499D01*
X124420943Y-77899499D01*
X124413347Y-77899499D01*
X124413331Y-77899500D01*
X124092801Y-77899500D01*
X124025762Y-77879815D01*
X123980007Y-77827011D01*
X123975095Y-77814504D01*
X123967176Y-77790606D01*
X123947314Y-77730666D01*
X123855212Y-77581344D01*
X123731156Y-77457288D01*
X123607131Y-77380789D01*
X123581836Y-77365187D01*
X123581831Y-77365185D01*
X123550198Y-77354703D01*
X123415297Y-77310001D01*
X123415295Y-77310000D01*
X123312510Y-77299500D01*
X122687498Y-77299500D01*
X122687480Y-77299501D01*
X122584703Y-77310000D01*
X122584700Y-77310001D01*
X122418168Y-77365185D01*
X122418163Y-77365187D01*
X122268842Y-77457289D01*
X122175181Y-77550951D01*
X122113858Y-77584436D01*
X122044166Y-77579452D01*
X121999819Y-77550951D01*
X121906157Y-77457289D01*
X121906156Y-77457288D01*
X121782131Y-77380789D01*
X121756836Y-77365187D01*
X121756831Y-77365185D01*
X121725198Y-77354703D01*
X121590297Y-77310001D01*
X121590295Y-77310000D01*
X121487510Y-77299500D01*
X120862498Y-77299500D01*
X120862480Y-77299501D01*
X120759703Y-77310000D01*
X120759700Y-77310001D01*
X120593168Y-77365185D01*
X120593163Y-77365187D01*
X120443842Y-77457289D01*
X120319789Y-77581342D01*
X120227687Y-77730663D01*
X120227685Y-77730668D01*
X120199905Y-77814504D01*
X120160132Y-77871949D01*
X120095616Y-77898772D01*
X120082199Y-77899500D01*
X119586670Y-77899500D01*
X119586654Y-77899499D01*
X119579058Y-77899499D01*
X119420943Y-77899499D01*
X119346912Y-77919336D01*
X119268214Y-77940423D01*
X119268209Y-77940426D01*
X119131290Y-78019475D01*
X119131282Y-78019481D01*
X118019481Y-79131282D01*
X118019479Y-79131285D01*
X117987030Y-79187490D01*
X117987029Y-79187492D01*
X117940423Y-79268214D01*
X117927772Y-79315429D01*
X117899499Y-79420943D01*
X117899499Y-79420944D01*
X117899499Y-79420945D01*
X117899499Y-79589046D01*
X117899500Y-79589059D01*
X117899500Y-80170500D01*
X117879815Y-80237539D01*
X117827011Y-80283294D01*
X117775500Y-80294500D01*
X117634298Y-80294500D01*
X117597432Y-80297401D01*
X117597426Y-80297402D01*
X117439606Y-80343254D01*
X117439603Y-80343255D01*
X117298137Y-80426917D01*
X117298129Y-80426923D01*
X117181923Y-80543129D01*
X117181917Y-80543137D01*
X117098255Y-80684603D01*
X117098254Y-80684606D01*
X117052402Y-80842426D01*
X117052401Y-80842432D01*
X117049500Y-80879298D01*
X117049500Y-81186397D01*
X117029815Y-81253436D01*
X116977011Y-81299191D01*
X116912898Y-81309755D01*
X116812518Y-81299500D01*
X116200097Y-81299500D01*
X116170656Y-81290855D01*
X116140670Y-81284332D01*
X116135654Y-81280577D01*
X116133058Y-81279815D01*
X116112416Y-81263181D01*
X115987590Y-81138355D01*
X115987588Y-81138352D01*
X115868717Y-81019481D01*
X115868716Y-81019480D01*
X115764960Y-80959577D01*
X115764959Y-80959576D01*
X115731783Y-80940422D01*
X115659877Y-80921155D01*
X115579057Y-80899499D01*
X115420943Y-80899499D01*
X115413347Y-80899499D01*
X115413331Y-80899500D01*
X114263009Y-80899500D01*
X114262993Y-80899499D01*
X114255397Y-80899499D01*
X114097283Y-80899499D01*
X114017350Y-80920917D01*
X113944556Y-80940422D01*
X113911378Y-80959578D01*
X113911377Y-80959577D01*
X113807627Y-81019477D01*
X113807622Y-81019481D01*
X113695818Y-81131286D01*
X113312924Y-81514181D01*
X113285996Y-81528884D01*
X113260178Y-81545477D01*
X113253977Y-81546368D01*
X113251601Y-81547666D01*
X113225243Y-81550500D01*
X113036802Y-81550500D01*
X112969763Y-81530815D01*
X112924008Y-81478011D01*
X112914064Y-81408853D01*
X112918871Y-81388182D01*
X112942246Y-81316243D01*
X112975500Y-81106287D01*
X112975500Y-80893713D01*
X112942246Y-80683757D01*
X112876557Y-80481588D01*
X112780051Y-80292184D01*
X112780049Y-80292181D01*
X112780048Y-80292179D01*
X112655109Y-80120213D01*
X112504786Y-79969890D01*
X112332820Y-79844951D01*
X112143414Y-79748444D01*
X112143413Y-79748443D01*
X112143412Y-79748443D01*
X111941243Y-79682754D01*
X111941241Y-79682753D01*
X111941240Y-79682753D01*
X111775786Y-79656548D01*
X111731287Y-79649500D01*
X111268713Y-79649500D01*
X111224214Y-79656548D01*
X111058760Y-79682753D01*
X110856585Y-79748444D01*
X110667179Y-79844951D01*
X110495213Y-79969890D01*
X110344890Y-80120213D01*
X110219951Y-80292179D01*
X110123444Y-80481585D01*
X110123443Y-80481587D01*
X110123443Y-80481588D01*
X110106946Y-80532360D01*
X110057753Y-80683760D01*
X110031373Y-80850318D01*
X110024500Y-80893713D01*
X110024500Y-81106287D01*
X110029336Y-81136819D01*
X110056873Y-81310686D01*
X110057754Y-81316243D01*
X110123443Y-81518412D01*
X110219949Y-81707816D01*
X110272259Y-81779815D01*
X110295739Y-81845621D01*
X110279914Y-81913675D01*
X110259622Y-81940381D01*
X109855286Y-82344718D01*
X109743481Y-82456522D01*
X109743480Y-82456524D01*
X109702258Y-82527923D01*
X109664423Y-82593455D01*
X109623499Y-82746183D01*
X109623499Y-82904297D01*
X109623499Y-82904299D01*
X109623500Y-82914293D01*
X109623500Y-84637330D01*
X109623499Y-84637348D01*
X109623499Y-84803054D01*
X109623498Y-84803054D01*
X102500500Y-84803054D01*
X102500500Y-77124500D01*
X102520185Y-77057461D01*
X102572989Y-77011706D01*
X102624500Y-77000500D01*
X114961709Y-77000500D01*
X114988992Y-77004699D01*
X115027330Y-77000500D01*
X115065892Y-77000500D01*
X115083390Y-76995810D01*
X115101982Y-76992323D01*
X115119993Y-76990351D01*
X115155937Y-76976372D01*
X115193186Y-76966392D01*
X115217089Y-76952591D01*
X133072214Y-70008930D01*
X133117157Y-70000500D01*
X157241324Y-70000500D01*
X157308363Y-70020185D01*
G37*
%TD.AperFunction*%
%TA.AperFunction,NonConductor*%
G36*
X134642939Y-73306685D02*
G01*
X134688694Y-73359489D01*
X134697958Y-73415066D01*
X134699500Y-73415066D01*
X134699500Y-73578846D01*
X134730261Y-73733489D01*
X134730264Y-73733501D01*
X134790602Y-73879172D01*
X134790609Y-73879185D01*
X134878210Y-74010288D01*
X134878213Y-74010292D01*
X134915253Y-74047332D01*
X134948738Y-74108655D01*
X134943754Y-74178347D01*
X134901882Y-74234280D01*
X134836418Y-74258697D01*
X134797015Y-74255189D01*
X134788363Y-74252989D01*
X134733497Y-74230263D01*
X134578842Y-74199500D01*
X134577996Y-74199500D01*
X134571786Y-74197921D01*
X134544419Y-74181717D01*
X134516241Y-74166977D01*
X134514662Y-74165426D01*
X133847916Y-73498681D01*
X133814431Y-73437358D01*
X133819415Y-73367667D01*
X133861286Y-73311733D01*
X133926751Y-73287316D01*
X133935597Y-73287000D01*
X134575900Y-73287000D01*
X134642939Y-73306685D01*
G37*
%TD.AperFunction*%
%TA.AperFunction,NonConductor*%
G36*
X156526557Y-72109308D02*
G01*
X156557041Y-72116250D01*
X156559808Y-72119071D01*
X156563600Y-72120185D01*
X156584067Y-72143805D01*
X156605965Y-72166132D01*
X156606767Y-72170003D01*
X156609355Y-72172989D01*
X156613804Y-72203932D01*
X156620153Y-72234546D01*
X156618736Y-72238234D01*
X156619299Y-72242147D01*
X156606308Y-72270592D01*
X156595102Y-72299770D01*
X156591264Y-72303533D01*
X156590274Y-72305703D01*
X156578120Y-72316425D01*
X156569904Y-72324484D01*
X156567706Y-72326096D01*
X156489711Y-72378211D01*
X156470572Y-72397349D01*
X156462929Y-72402956D01*
X156421681Y-72422746D01*
X156355718Y-72440421D01*
X156355709Y-72440425D01*
X156305596Y-72469359D01*
X156305595Y-72469360D01*
X156262189Y-72494420D01*
X156218785Y-72519479D01*
X156218782Y-72519481D01*
X156106978Y-72631286D01*
X154475082Y-74263181D01*
X154413759Y-74296666D01*
X154387401Y-74299500D01*
X153774998Y-74299500D01*
X153774980Y-74299501D01*
X153672203Y-74310000D01*
X153672200Y-74310001D01*
X153505668Y-74365185D01*
X153505663Y-74365187D01*
X153356342Y-74457289D01*
X153232289Y-74581342D01*
X153198039Y-74636871D01*
X153146091Y-74683596D01*
X153077128Y-74694817D01*
X153013046Y-74666974D01*
X152986961Y-74636871D01*
X152968714Y-74607288D01*
X152952712Y-74581344D01*
X152828656Y-74457288D01*
X152679334Y-74365186D01*
X152512797Y-74310001D01*
X152512795Y-74310000D01*
X152410016Y-74299500D01*
X152410009Y-74299500D01*
X152118256Y-74299500D01*
X152051217Y-74279815D01*
X152005462Y-74227011D01*
X151995518Y-74157853D01*
X152024543Y-74094297D01*
X152030575Y-74087819D01*
X152471192Y-73647203D01*
X153082576Y-73035819D01*
X153143899Y-73002334D01*
X153170257Y-72999500D01*
X154514331Y-72999500D01*
X154514347Y-72999501D01*
X154521943Y-72999501D01*
X154680054Y-72999501D01*
X154680057Y-72999501D01*
X154832785Y-72958577D01*
X154897596Y-72921158D01*
X154969716Y-72879520D01*
X155081520Y-72767716D01*
X155081520Y-72767714D01*
X155091724Y-72757511D01*
X155091727Y-72757506D01*
X155712416Y-72136819D01*
X155773739Y-72103334D01*
X155800097Y-72100500D01*
X156496561Y-72100500D01*
X156526557Y-72109308D01*
G37*
%TD.AperFunction*%
%TA.AperFunction,NonConductor*%
G36*
X136221354Y-74100900D02*
G01*
X136222727Y-74100530D01*
X136254798Y-74110720D01*
X136287031Y-74120185D01*
X136288139Y-74121314D01*
X136289316Y-74121688D01*
X136315473Y-74145384D01*
X136320991Y-74152043D01*
X136369788Y-74231156D01*
X136467552Y-74328920D01*
X136471251Y-74333384D01*
X136482860Y-74360365D01*
X136496936Y-74386142D01*
X136496510Y-74392088D01*
X136498867Y-74397564D01*
X136494047Y-74426535D01*
X136491952Y-74455834D01*
X136488379Y-74460606D01*
X136487401Y-74466487D01*
X136463451Y-74500181D01*
X136369789Y-74593842D01*
X136277687Y-74743163D01*
X136277685Y-74743168D01*
X136258821Y-74800097D01*
X136222501Y-74909703D01*
X136222501Y-74909704D01*
X136222500Y-74909704D01*
X136212000Y-75012483D01*
X136212000Y-75636552D01*
X136210895Y-75640312D01*
X136211768Y-75644134D01*
X136201130Y-75673568D01*
X136192315Y-75703591D01*
X136189353Y-75706157D01*
X136188021Y-75709844D01*
X136163154Y-75728859D01*
X136139511Y-75749346D01*
X136135633Y-75749903D01*
X136132519Y-75752285D01*
X136101327Y-75754836D01*
X136070353Y-75759290D01*
X136066787Y-75757661D01*
X136062881Y-75757981D01*
X136035262Y-75743264D01*
X136006797Y-75730265D01*
X136003678Y-75726435D01*
X136001219Y-75725125D01*
X135994441Y-75715091D01*
X135979781Y-75697088D01*
X135973414Y-75685706D01*
X135972077Y-75680715D01*
X135925765Y-75600501D01*
X135893020Y-75543784D01*
X135781216Y-75431980D01*
X135781215Y-75431979D01*
X135776885Y-75427649D01*
X135776874Y-75427639D01*
X135334574Y-74985339D01*
X135301089Y-74924016D01*
X135300638Y-74921849D01*
X135276419Y-74800097D01*
X135269737Y-74766503D01*
X135261959Y-74747726D01*
X135209397Y-74620827D01*
X135209390Y-74620814D01*
X135121789Y-74489711D01*
X135121786Y-74489707D01*
X135084746Y-74452667D01*
X135051261Y-74391344D01*
X135056245Y-74321652D01*
X135098117Y-74265719D01*
X135163581Y-74241302D01*
X135219878Y-74250424D01*
X135266503Y-74269737D01*
X135416131Y-74299500D01*
X135421153Y-74300499D01*
X135421156Y-74300500D01*
X135421158Y-74300500D01*
X135578844Y-74300500D01*
X135578845Y-74300499D01*
X135733497Y-74269737D01*
X135879179Y-74209394D01*
X135879185Y-74209390D01*
X136010875Y-74121398D01*
X136077553Y-74100520D01*
X136079766Y-74100500D01*
X136219992Y-74100500D01*
X136221354Y-74100900D01*
G37*
%TD.AperFunction*%
%TA.AperFunction,NonConductor*%
G36*
X152087102Y-72120185D02*
G01*
X152132857Y-72172989D01*
X152142801Y-72242147D01*
X152113776Y-72305703D01*
X152107744Y-72312181D01*
X150997434Y-73422489D01*
X150936111Y-73455974D01*
X150866419Y-73450990D01*
X150810486Y-73409118D01*
X150788136Y-73358999D01*
X150778734Y-73311733D01*
X150769737Y-73266503D01*
X150769735Y-73266498D01*
X150709397Y-73120827D01*
X150709390Y-73120814D01*
X150621789Y-72989711D01*
X150621786Y-72989707D01*
X150510292Y-72878213D01*
X150510288Y-72878210D01*
X150379185Y-72790609D01*
X150379172Y-72790602D01*
X150233501Y-72730264D01*
X150233489Y-72730261D01*
X150078845Y-72699500D01*
X150078842Y-72699500D01*
X149921158Y-72699500D01*
X149921155Y-72699500D01*
X149766510Y-72730261D01*
X149766498Y-72730264D01*
X149620827Y-72790602D01*
X149620814Y-72790609D01*
X149489125Y-72878602D01*
X149422447Y-72899480D01*
X149420234Y-72899500D01*
X149370942Y-72899500D01*
X149218215Y-72940423D01*
X149193416Y-72954740D01*
X149186770Y-72958578D01*
X149186769Y-72958577D01*
X149081287Y-73019477D01*
X149081282Y-73019481D01*
X148969478Y-73131286D01*
X148416527Y-73684236D01*
X148355204Y-73717721D01*
X148285512Y-73712737D01*
X148229579Y-73670865D01*
X148211141Y-73635561D01*
X148159814Y-73480666D01*
X148067712Y-73331344D01*
X147943656Y-73207288D01*
X147831278Y-73137973D01*
X147794336Y-73115187D01*
X147794331Y-73115185D01*
X147792862Y-73114698D01*
X147627797Y-73060001D01*
X147627795Y-73060000D01*
X147525010Y-73049500D01*
X146474998Y-73049500D01*
X146474980Y-73049501D01*
X146372203Y-73060000D01*
X146372200Y-73060001D01*
X146205668Y-73115185D01*
X146205663Y-73115187D01*
X146056342Y-73207289D01*
X145932289Y-73331342D01*
X145932288Y-73331344D01*
X145902784Y-73379179D01*
X145895741Y-73390597D01*
X145888153Y-73397421D01*
X145883915Y-73406703D01*
X145862615Y-73420391D01*
X145843793Y-73437321D01*
X145832157Y-73439965D01*
X145825137Y-73444477D01*
X145790202Y-73449500D01*
X145711669Y-73449500D01*
X145711653Y-73449499D01*
X145704057Y-73449499D01*
X145545943Y-73449499D01*
X145438587Y-73478265D01*
X145393210Y-73490424D01*
X145393209Y-73490425D01*
X145343096Y-73519359D01*
X145343095Y-73519360D01*
X145299689Y-73544420D01*
X145256285Y-73569479D01*
X145256282Y-73569481D01*
X145144478Y-73681286D01*
X142901419Y-75924344D01*
X142840096Y-75957829D01*
X142770404Y-75952845D01*
X142714471Y-75910973D01*
X142690054Y-75845509D01*
X142690379Y-75824069D01*
X142700500Y-75725009D01*
X142700499Y-75099992D01*
X142699801Y-75093163D01*
X142689999Y-74997203D01*
X142689998Y-74997200D01*
X142681401Y-74971256D01*
X142634814Y-74830666D01*
X142542712Y-74681344D01*
X142449049Y-74587681D01*
X142415564Y-74526358D01*
X142420548Y-74456666D01*
X142449049Y-74412319D01*
X142483157Y-74378211D01*
X142542712Y-74318656D01*
X142634814Y-74169334D01*
X142689999Y-74002797D01*
X142700500Y-73900009D01*
X142700499Y-73274992D01*
X142699631Y-73266498D01*
X142689999Y-73172203D01*
X142689998Y-73172200D01*
X142676440Y-73131284D01*
X142634814Y-73005666D01*
X142542712Y-72856344D01*
X142418656Y-72732288D01*
X142269334Y-72640186D01*
X142102797Y-72585001D01*
X142102795Y-72585000D01*
X142000016Y-72574500D01*
X142000009Y-72574500D01*
X141387597Y-72574500D01*
X141320558Y-72554815D01*
X141299916Y-72538181D01*
X141086590Y-72324855D01*
X141079521Y-72317786D01*
X141079520Y-72317784D01*
X141073911Y-72312175D01*
X141054587Y-72276782D01*
X141040432Y-72250858D01*
X141040432Y-72250855D01*
X141040431Y-72250853D01*
X141042635Y-72220050D01*
X141045416Y-72181166D01*
X141045417Y-72181163D01*
X141045418Y-72181162D01*
X141069231Y-72149353D01*
X141087288Y-72125233D01*
X141087291Y-72125230D01*
X141120164Y-72112970D01*
X141152752Y-72100816D01*
X141161598Y-72100500D01*
X152020063Y-72100500D01*
X152087102Y-72120185D01*
G37*
%TD.AperFunction*%
%TA.AperFunction,NonConductor*%
G36*
X145859730Y-74737511D02*
G01*
X145887267Y-74739481D01*
X145895015Y-74744461D01*
X145901200Y-74745679D01*
X145929867Y-74766268D01*
X145932195Y-74768506D01*
X145932288Y-74768656D01*
X146056344Y-74892712D01*
X146070462Y-74901420D01*
X146080017Y-74910605D01*
X146114705Y-74971256D01*
X146111097Y-75041032D01*
X146070338Y-75097781D01*
X146059182Y-75105537D01*
X146056346Y-75107285D01*
X145932289Y-75231342D01*
X145840187Y-75380663D01*
X145840185Y-75380668D01*
X145824621Y-75427639D01*
X145785001Y-75547203D01*
X145785001Y-75547204D01*
X145785000Y-75547204D01*
X145774500Y-75649983D01*
X145774500Y-75843059D01*
X145754815Y-75910098D01*
X145702011Y-75955853D01*
X145632853Y-75965797D01*
X145569297Y-75936772D01*
X145562819Y-75930740D01*
X145510292Y-75878213D01*
X145510288Y-75878210D01*
X145379185Y-75790609D01*
X145379172Y-75790602D01*
X145233501Y-75730264D01*
X145233491Y-75730261D01*
X145094422Y-75702598D01*
X145032511Y-75670213D01*
X144997937Y-75609497D01*
X145001678Y-75539727D01*
X145030931Y-75493302D01*
X145756252Y-74767982D01*
X145763115Y-74764234D01*
X145767678Y-74757882D01*
X145793346Y-74747726D01*
X145817575Y-74734497D01*
X145825376Y-74735054D01*
X145832648Y-74732178D01*
X145859730Y-74737511D01*
G37*
%TD.AperFunction*%
%TA.AperFunction,NonConductor*%
G36*
X153171953Y-76333024D02*
G01*
X153198038Y-76363128D01*
X153206432Y-76376737D01*
X153230380Y-76415564D01*
X153232288Y-76418656D01*
X153356344Y-76542712D01*
X153505666Y-76634814D01*
X153672203Y-76689999D01*
X153774991Y-76700500D01*
X154238402Y-76700499D01*
X154305441Y-76720183D01*
X154351196Y-76772987D01*
X154361140Y-76842146D01*
X154332115Y-76905702D01*
X154326083Y-76912180D01*
X153975082Y-77263181D01*
X153913759Y-77296666D01*
X153887401Y-77299500D01*
X153274998Y-77299500D01*
X153274980Y-77299501D01*
X153172203Y-77310000D01*
X153172200Y-77310001D01*
X153005668Y-77365185D01*
X153005659Y-77365189D01*
X152887096Y-77438320D01*
X152819704Y-77456760D01*
X152753041Y-77435837D01*
X152708271Y-77382195D01*
X152698000Y-77332781D01*
X152698000Y-76692507D01*
X152717685Y-76625468D01*
X152756903Y-76586968D01*
X152828656Y-76542712D01*
X152952712Y-76418656D01*
X152986961Y-76363128D01*
X153038909Y-76316404D01*
X153107871Y-76305181D01*
X153171953Y-76333024D01*
G37*
%TD.AperFunction*%
%TA.AperFunction,NonConductor*%
G36*
X156449773Y-77168991D02*
G01*
X156497384Y-77220128D01*
X156510500Y-77275633D01*
X156510500Y-77537728D01*
X156490815Y-77604767D01*
X156438011Y-77650522D01*
X156368853Y-77660466D01*
X156305297Y-77631441D01*
X156280962Y-77602827D01*
X156267712Y-77581344D01*
X156223735Y-77537367D01*
X156190250Y-77476044D01*
X156195234Y-77406352D01*
X156208318Y-77380789D01*
X156209394Y-77379179D01*
X156253665Y-77272299D01*
X156271939Y-77228181D01*
X156315779Y-77173777D01*
X156382073Y-77151712D01*
X156449773Y-77168991D01*
G37*
%TD.AperFunction*%
%TA.AperFunction,NonConductor*%
G36*
X131240400Y-74453097D02*
G01*
X131261015Y-74454572D01*
X131273000Y-74463544D01*
X131287257Y-74468113D01*
X131313356Y-74491873D01*
X131318763Y-74498432D01*
X131369788Y-74581156D01*
X131467659Y-74679027D01*
X131471445Y-74683619D01*
X131482931Y-74710494D01*
X131496936Y-74736142D01*
X131496499Y-74742241D01*
X131498904Y-74747867D01*
X131494036Y-74776686D01*
X131491952Y-74805834D01*
X131488286Y-74810730D01*
X131487268Y-74816761D01*
X131463451Y-74850181D01*
X131369789Y-74943842D01*
X131277687Y-75093163D01*
X131277685Y-75093168D01*
X131273007Y-75107285D01*
X131222501Y-75259703D01*
X131222501Y-75259704D01*
X131222500Y-75259704D01*
X131212000Y-75362483D01*
X131212000Y-75987501D01*
X131212001Y-75987519D01*
X131222500Y-76090296D01*
X131222501Y-76090299D01*
X131277685Y-76256831D01*
X131277687Y-76256836D01*
X131297913Y-76289628D01*
X131369788Y-76406156D01*
X131493844Y-76530212D01*
X131519710Y-76546166D01*
X131566435Y-76598112D01*
X131577659Y-76667074D01*
X131549817Y-76731157D01*
X131519713Y-76757243D01*
X131458844Y-76794787D01*
X131334789Y-76918842D01*
X131334788Y-76918844D01*
X131305461Y-76966392D01*
X131298241Y-76978097D01*
X131246293Y-77024821D01*
X131192702Y-77037000D01*
X130941557Y-77037000D01*
X130783442Y-77037000D01*
X130630715Y-77077923D01*
X130604314Y-77093166D01*
X130582052Y-77106019D01*
X130493785Y-77156979D01*
X130493782Y-77156981D01*
X129985339Y-77665425D01*
X129924016Y-77698910D01*
X129921850Y-77699361D01*
X129766508Y-77730261D01*
X129760676Y-77732031D01*
X129759873Y-77729385D01*
X129702056Y-77735396D01*
X129639687Y-77703902D01*
X129604245Y-77643689D01*
X129600500Y-77613444D01*
X129600500Y-76063936D01*
X129620185Y-75996897D01*
X129636814Y-75976260D01*
X131130002Y-74483071D01*
X131143140Y-74475897D01*
X131153219Y-74464827D01*
X131173184Y-74459492D01*
X131191323Y-74449588D01*
X131206255Y-74450655D01*
X131220720Y-74446791D01*
X131240400Y-74453097D01*
G37*
%TD.AperFunction*%
%TA.AperFunction,NonConductor*%
G36*
X149196709Y-76028879D02*
G01*
X149252642Y-76070751D01*
X149271081Y-76106057D01*
X149325185Y-76269331D01*
X149325187Y-76269336D01*
X149347296Y-76305181D01*
X149417287Y-76418655D01*
X149417289Y-76418657D01*
X149538181Y-76539549D01*
X149571666Y-76600872D01*
X149574500Y-76627230D01*
X149574500Y-77199901D01*
X149554815Y-77266940D01*
X149538181Y-77287582D01*
X149044639Y-77781123D01*
X148983316Y-77814608D01*
X148913624Y-77809624D01*
X148909170Y-77807864D01*
X148898068Y-77803227D01*
X148879179Y-77790606D01*
X148733497Y-77730263D01*
X148714151Y-77726414D01*
X148702712Y-77721637D01*
X148684811Y-77707125D01*
X148664394Y-77696444D01*
X148658184Y-77685538D01*
X148648437Y-77677636D01*
X148641225Y-77655753D01*
X148629822Y-77635727D01*
X148627195Y-77613185D01*
X148626567Y-77611278D01*
X148626847Y-77610193D01*
X148626500Y-77607215D01*
X148626500Y-76547936D01*
X148646185Y-76480897D01*
X148662815Y-76460259D01*
X149065694Y-76057379D01*
X149127017Y-76023895D01*
X149196709Y-76028879D01*
G37*
%TD.AperFunction*%
%TA.AperFunction,NonConductor*%
G36*
X151228334Y-76420548D02*
G01*
X151272681Y-76449049D01*
X151366344Y-76542712D01*
X151438945Y-76587491D01*
X151439759Y-76588012D01*
X151462087Y-76613640D01*
X151484821Y-76638915D01*
X151485072Y-76640023D01*
X151485656Y-76640693D01*
X151486438Y-76646030D01*
X151497000Y-76692507D01*
X151497000Y-77866323D01*
X151477315Y-77933362D01*
X151438098Y-77971861D01*
X151356344Y-78022287D01*
X151232285Y-78146346D01*
X151230537Y-78149182D01*
X151228829Y-78150717D01*
X151227807Y-78152011D01*
X151227585Y-78151836D01*
X151178589Y-78195905D01*
X151109626Y-78207126D01*
X151045544Y-78179282D01*
X151019463Y-78149182D01*
X151017714Y-78146346D01*
X150893655Y-78022287D01*
X150834402Y-77985739D01*
X150787678Y-77933791D01*
X150775500Y-77880201D01*
X150775500Y-77579060D01*
X150775501Y-77579057D01*
X150775501Y-77420942D01*
X150775500Y-77420938D01*
X150775500Y-76750477D01*
X150795185Y-76683438D01*
X150847989Y-76637683D01*
X150849186Y-76637213D01*
X150854326Y-76634816D01*
X150854334Y-76634814D01*
X151003656Y-76542712D01*
X151097319Y-76449049D01*
X151158642Y-76415564D01*
X151228334Y-76420548D01*
G37*
%TD.AperFunction*%
%TA.AperFunction,NonConductor*%
G36*
X145657073Y-77077515D02*
G01*
X145713007Y-77119385D01*
X145737426Y-77184849D01*
X145731449Y-77232700D01*
X145722500Y-77259705D01*
X145712000Y-77362483D01*
X145712000Y-77987501D01*
X145712001Y-77987519D01*
X145722500Y-78090296D01*
X145722501Y-78090299D01*
X145761118Y-78206836D01*
X145777686Y-78256834D01*
X145847795Y-78370500D01*
X145869789Y-78406157D01*
X145963451Y-78499819D01*
X145964968Y-78502597D01*
X145967669Y-78504250D01*
X145981603Y-78533063D01*
X145996936Y-78561142D01*
X145996710Y-78564299D01*
X145998089Y-78567150D01*
X145994234Y-78598916D01*
X145991952Y-78630834D01*
X145989939Y-78634312D01*
X145989673Y-78636511D01*
X145982826Y-78646608D01*
X145971251Y-78666616D01*
X145967552Y-78671079D01*
X145869788Y-78768844D01*
X145820991Y-78847956D01*
X145815473Y-78854616D01*
X145793388Y-78869507D01*
X145773583Y-78887321D01*
X145763607Y-78889587D01*
X145757542Y-78893678D01*
X145744327Y-78893969D01*
X145719992Y-78899500D01*
X145082230Y-78899500D01*
X145015191Y-78879815D01*
X144994549Y-78863181D01*
X144901549Y-78770181D01*
X144868064Y-78708858D01*
X144873048Y-78639166D01*
X144901549Y-78594819D01*
X144947633Y-78548735D01*
X144995212Y-78501156D01*
X145087314Y-78351834D01*
X145142499Y-78185297D01*
X145153000Y-78082509D01*
X145152999Y-77457492D01*
X145147195Y-77400675D01*
X145159964Y-77331984D01*
X145207845Y-77281100D01*
X145227964Y-77272299D01*
X145227869Y-77272068D01*
X145235798Y-77268784D01*
X145379179Y-77209394D01*
X145510289Y-77121789D01*
X145526059Y-77106019D01*
X145587381Y-77072532D01*
X145657073Y-77077515D01*
G37*
%TD.AperFunction*%
%TA.AperFunction,NonConductor*%
G36*
X133818202Y-75428432D02*
G01*
X133840101Y-75453254D01*
X133878210Y-75510288D01*
X133878213Y-75510292D01*
X133989707Y-75621786D01*
X133989711Y-75621789D01*
X134120814Y-75709390D01*
X134120827Y-75709397D01*
X134266498Y-75769735D01*
X134266503Y-75769737D01*
X134331147Y-75782595D01*
X134421849Y-75800638D01*
X134483760Y-75833023D01*
X134485339Y-75834574D01*
X134775681Y-76124916D01*
X134809166Y-76186239D01*
X134812000Y-76212597D01*
X134812000Y-76548914D01*
X134792315Y-76615953D01*
X134739511Y-76661708D01*
X134727005Y-76666620D01*
X134618166Y-76702686D01*
X134618163Y-76702687D01*
X134468842Y-76794789D01*
X134344789Y-76918842D01*
X134252687Y-77068163D01*
X134252686Y-77068166D01*
X134197501Y-77234703D01*
X134197501Y-77234704D01*
X134197500Y-77234704D01*
X134187000Y-77337483D01*
X134187000Y-77937501D01*
X134187001Y-77937519D01*
X134197500Y-78040296D01*
X134197501Y-78040299D01*
X134234461Y-78151836D01*
X134252686Y-78206834D01*
X134342123Y-78351836D01*
X134344789Y-78356157D01*
X134468846Y-78480214D01*
X134471682Y-78481963D01*
X134473217Y-78483670D01*
X134474511Y-78484693D01*
X134474336Y-78484914D01*
X134518405Y-78533911D01*
X134529626Y-78602874D01*
X134501782Y-78666956D01*
X134471682Y-78693037D01*
X134468846Y-78694785D01*
X134344789Y-78818842D01*
X134308241Y-78878097D01*
X134256293Y-78924821D01*
X134202702Y-78937000D01*
X133612298Y-78937000D01*
X133545259Y-78917315D01*
X133506759Y-78878097D01*
X133481646Y-78837382D01*
X133470212Y-78818844D01*
X133346156Y-78694788D01*
X133343319Y-78693038D01*
X133341783Y-78691330D01*
X133340489Y-78690307D01*
X133340663Y-78690085D01*
X133296596Y-78641094D01*
X133285372Y-78572132D01*
X133313213Y-78508049D01*
X133343317Y-78481962D01*
X133346156Y-78480212D01*
X133470212Y-78356156D01*
X133562314Y-78206834D01*
X133617499Y-78040297D01*
X133628000Y-77937509D01*
X133627999Y-77337492D01*
X133627436Y-77331984D01*
X133617499Y-77234703D01*
X133617498Y-77234700D01*
X133600979Y-77184849D01*
X133562314Y-77068166D01*
X133470212Y-76918844D01*
X133346156Y-76794788D01*
X133346152Y-76794785D01*
X133295287Y-76763411D01*
X133248562Y-76711463D01*
X133237341Y-76642501D01*
X133265184Y-76578419D01*
X133295281Y-76552339D01*
X133331156Y-76530212D01*
X133455212Y-76406156D01*
X133547314Y-76256834D01*
X133602499Y-76090297D01*
X133613000Y-75987509D01*
X133612999Y-75522144D01*
X133632683Y-75455106D01*
X133685487Y-75409351D01*
X133754646Y-75399407D01*
X133818202Y-75428432D01*
G37*
%TD.AperFunction*%
%TA.AperFunction,NonConductor*%
G36*
X138451461Y-76191176D02*
G01*
X138470183Y-76206551D01*
X138556344Y-76292712D01*
X138705666Y-76384814D01*
X138872203Y-76439999D01*
X138974991Y-76450500D01*
X140025008Y-76450499D01*
X140025016Y-76450498D01*
X140025019Y-76450498D01*
X140081302Y-76444748D01*
X140127797Y-76439999D01*
X140294334Y-76384814D01*
X140443656Y-76292712D01*
X140443662Y-76292705D01*
X140449319Y-76288234D01*
X140450421Y-76289628D01*
X140503623Y-76260569D01*
X140573315Y-76265544D01*
X140595093Y-76276193D01*
X140730659Y-76359810D01*
X140730660Y-76359810D01*
X140730666Y-76359814D01*
X140897203Y-76414999D01*
X140999991Y-76425500D01*
X142000008Y-76425499D01*
X142099063Y-76415380D01*
X142126828Y-76420541D01*
X142154997Y-76422556D01*
X142160722Y-76426841D01*
X142167754Y-76428149D01*
X142188323Y-76447504D01*
X142210930Y-76464428D01*
X142213429Y-76471128D01*
X142218638Y-76476030D01*
X142225477Y-76503431D01*
X142235347Y-76529892D01*
X142233826Y-76536880D01*
X142235559Y-76543820D01*
X142226498Y-76570569D01*
X142220495Y-76598165D01*
X142214386Y-76606324D01*
X142213143Y-76609996D01*
X142199344Y-76626419D01*
X142112582Y-76713181D01*
X142051259Y-76746666D01*
X142024901Y-76749500D01*
X141412498Y-76749500D01*
X141412480Y-76749501D01*
X141309703Y-76760000D01*
X141309700Y-76760001D01*
X141143168Y-76815185D01*
X141143163Y-76815187D01*
X140993842Y-76907289D01*
X140869789Y-77031342D01*
X140777687Y-77180663D01*
X140777685Y-77180668D01*
X140722501Y-77347201D01*
X140722500Y-77347208D01*
X140717760Y-77393602D01*
X140691363Y-77458294D01*
X140682083Y-77468679D01*
X138848032Y-79302730D01*
X138786709Y-79336215D01*
X138717017Y-79331231D01*
X138661084Y-79289359D01*
X138636993Y-79227650D01*
X138627499Y-79134703D01*
X138572314Y-78968166D01*
X138480212Y-78818844D01*
X138356156Y-78694788D01*
X138353319Y-78693038D01*
X138351783Y-78691330D01*
X138350489Y-78690307D01*
X138350663Y-78690085D01*
X138306596Y-78641094D01*
X138295372Y-78572132D01*
X138323213Y-78508049D01*
X138353317Y-78481962D01*
X138356156Y-78480212D01*
X138480212Y-78356156D01*
X138572314Y-78206834D01*
X138627499Y-78040297D01*
X138638000Y-77937509D01*
X138637999Y-77337492D01*
X138637436Y-77331984D01*
X138627499Y-77234703D01*
X138627498Y-77234700D01*
X138610979Y-77184849D01*
X138572314Y-77068166D01*
X138480212Y-76918844D01*
X138356156Y-76794788D01*
X138252993Y-76731157D01*
X138206836Y-76702687D01*
X138206835Y-76702686D01*
X138206834Y-76702686D01*
X138145801Y-76682461D01*
X138097995Y-76666620D01*
X138077960Y-76652748D01*
X138055797Y-76642627D01*
X138049749Y-76633216D01*
X138040550Y-76626847D01*
X138031195Y-76604345D01*
X138018023Y-76583849D01*
X138015564Y-76566747D01*
X138013728Y-76562331D01*
X138013000Y-76548914D01*
X138013000Y-76417800D01*
X138032685Y-76350761D01*
X138085489Y-76305006D01*
X138097982Y-76300099D01*
X138181834Y-76272314D01*
X138317406Y-76188692D01*
X138384798Y-76170253D01*
X138451461Y-76191176D01*
G37*
%TD.AperFunction*%
%TA.AperFunction,NonConductor*%
G36*
X156465952Y-79367069D02*
G01*
X156504809Y-79425137D01*
X156510500Y-79462271D01*
X156510500Y-80424770D01*
X156490815Y-80491809D01*
X156438011Y-80537564D01*
X156368853Y-80547508D01*
X156305297Y-80518483D01*
X156298819Y-80512451D01*
X156218657Y-80432289D01*
X156218656Y-80432288D01*
X156071902Y-80341770D01*
X156025179Y-80289823D01*
X156013000Y-80236232D01*
X156013000Y-79692507D01*
X156032685Y-79625468D01*
X156071903Y-79586968D01*
X156143656Y-79542712D01*
X156267712Y-79418656D01*
X156280962Y-79397174D01*
X156332907Y-79350451D01*
X156401869Y-79339227D01*
X156465952Y-79367069D01*
G37*
%TD.AperFunction*%
%TA.AperFunction,NonConductor*%
G36*
X151204451Y-80000713D02*
G01*
X151230537Y-80030817D01*
X151232288Y-80033656D01*
X151356344Y-80157712D01*
X151384334Y-80174976D01*
X151431057Y-80226921D01*
X151442281Y-80295883D01*
X151414439Y-80359966D01*
X151384334Y-80386052D01*
X151268847Y-80457285D01*
X151268843Y-80457288D01*
X151175181Y-80550951D01*
X151172402Y-80552468D01*
X151170749Y-80555170D01*
X151141935Y-80569104D01*
X151113858Y-80584436D01*
X151110700Y-80584210D01*
X151107849Y-80585589D01*
X151076080Y-80581734D01*
X151044166Y-80579452D01*
X151040688Y-80577439D01*
X151038488Y-80577173D01*
X151028386Y-80570323D01*
X151008384Y-80558751D01*
X151003920Y-80555052D01*
X150906156Y-80457288D01*
X150827048Y-80408494D01*
X150820384Y-80402972D01*
X150805492Y-80380887D01*
X150787678Y-80361081D01*
X150785411Y-80351105D01*
X150781322Y-80345041D01*
X150781030Y-80331828D01*
X150775500Y-80307491D01*
X150775500Y-80299797D01*
X150779986Y-80284516D01*
X150779781Y-80275188D01*
X150785442Y-80265935D01*
X150795185Y-80232758D01*
X150834403Y-80194258D01*
X150893656Y-80157712D01*
X151017712Y-80033656D01*
X151019461Y-80030819D01*
X151021169Y-80029283D01*
X151022193Y-80027989D01*
X151022414Y-80028163D01*
X151071406Y-79984096D01*
X151140368Y-79972872D01*
X151204451Y-80000713D01*
G37*
%TD.AperFunction*%
%TA.AperFunction,NonConductor*%
G36*
X134269741Y-80157685D02*
G01*
X134308239Y-80196901D01*
X134344788Y-80256156D01*
X134468844Y-80380212D01*
X134618166Y-80472314D01*
X134784703Y-80527499D01*
X134832285Y-80532360D01*
X134896977Y-80558756D01*
X134937128Y-80615937D01*
X134939992Y-80685748D01*
X134907364Y-80743399D01*
X134512181Y-81138583D01*
X134450858Y-81172068D01*
X134381167Y-81167084D01*
X134325233Y-81125213D01*
X134300816Y-81059748D01*
X134300500Y-81050902D01*
X134300500Y-80921155D01*
X134300499Y-80921153D01*
X134290762Y-80872203D01*
X134269737Y-80766503D01*
X134252702Y-80725376D01*
X134209397Y-80620827D01*
X134209390Y-80620814D01*
X134121789Y-80489711D01*
X134121786Y-80489707D01*
X134010292Y-80378213D01*
X133990670Y-80365102D01*
X133968920Y-80339076D01*
X133946768Y-80313511D01*
X133946604Y-80312372D01*
X133945866Y-80311489D01*
X133941645Y-80277884D01*
X133936824Y-80244353D01*
X133937302Y-80243305D01*
X133937159Y-80242164D01*
X133951772Y-80211620D01*
X133965849Y-80180797D01*
X133966817Y-80180174D01*
X133967314Y-80179137D01*
X133996114Y-80161346D01*
X134024627Y-80143023D01*
X134026127Y-80142807D01*
X134026758Y-80142418D01*
X134059562Y-80138000D01*
X134202702Y-80138000D01*
X134269741Y-80157685D01*
G37*
%TD.AperFunction*%
%TA.AperFunction,NonConductor*%
G36*
X137180484Y-81120185D02*
G01*
X137226239Y-81172989D01*
X137236183Y-81242147D01*
X137231159Y-81260411D01*
X137232031Y-81260676D01*
X137230261Y-81266510D01*
X137199500Y-81421153D01*
X137199500Y-81578846D01*
X137208941Y-81626309D01*
X137202714Y-81695901D01*
X137159851Y-81751078D01*
X137093961Y-81774322D01*
X137087324Y-81774500D01*
X136649998Y-81774500D01*
X136649980Y-81774501D01*
X136547203Y-81785000D01*
X136547200Y-81785001D01*
X136380668Y-81840185D01*
X136380663Y-81840187D01*
X136231342Y-81932289D01*
X136107285Y-82056346D01*
X136105537Y-82059182D01*
X136103829Y-82060717D01*
X136102807Y-82062011D01*
X136102585Y-82061836D01*
X136053589Y-82105905D01*
X135984626Y-82117126D01*
X135920544Y-82089282D01*
X135894463Y-82059182D01*
X135892714Y-82056346D01*
X135768656Y-81932288D01*
X135768652Y-81932285D01*
X135684597Y-81880439D01*
X135637872Y-81828491D01*
X135626651Y-81759529D01*
X135654494Y-81695447D01*
X135662000Y-81687233D01*
X136212416Y-81136819D01*
X136273739Y-81103334D01*
X136300097Y-81100500D01*
X137113445Y-81100500D01*
X137180484Y-81120185D01*
G37*
%TD.AperFunction*%
%TA.AperFunction,NonConductor*%
G36*
X131259741Y-78257685D02*
G01*
X131298239Y-78296901D01*
X131334788Y-78356156D01*
X131334789Y-78356157D01*
X131458846Y-78480214D01*
X131461682Y-78481963D01*
X131463217Y-78483670D01*
X131464511Y-78484693D01*
X131464336Y-78484914D01*
X131508405Y-78533911D01*
X131519626Y-78602874D01*
X131491782Y-78666956D01*
X131461682Y-78693037D01*
X131458846Y-78694785D01*
X131334789Y-78818842D01*
X131242687Y-78968163D01*
X131242686Y-78968166D01*
X131187501Y-79134703D01*
X131187501Y-79134704D01*
X131187500Y-79134704D01*
X131177000Y-79237483D01*
X131177000Y-79837501D01*
X131177001Y-79837519D01*
X131187500Y-79940296D01*
X131187501Y-79940299D01*
X131213386Y-80018414D01*
X131242686Y-80106834D01*
X131334788Y-80256156D01*
X131458844Y-80380212D01*
X131608166Y-80472314D01*
X131774703Y-80527499D01*
X131877491Y-80538000D01*
X132639333Y-80537999D01*
X132706372Y-80557683D01*
X132752127Y-80610487D01*
X132762071Y-80679646D01*
X132753894Y-80709451D01*
X132730264Y-80766498D01*
X132730261Y-80766510D01*
X132699500Y-80921153D01*
X132699500Y-81078846D01*
X132730261Y-81233489D01*
X132730264Y-81233501D01*
X132790602Y-81379172D01*
X132790609Y-81379185D01*
X132878602Y-81510874D01*
X132884252Y-81528920D01*
X132894477Y-81544830D01*
X132898928Y-81575789D01*
X132899480Y-81577551D01*
X132899500Y-81579765D01*
X132899500Y-81790201D01*
X132879815Y-81857240D01*
X132840598Y-81895739D01*
X132781344Y-81932287D01*
X132657285Y-82056346D01*
X132655537Y-82059182D01*
X132653829Y-82060717D01*
X132652807Y-82062011D01*
X132652585Y-82061836D01*
X132603589Y-82105905D01*
X132534626Y-82117126D01*
X132470544Y-82089282D01*
X132444463Y-82059182D01*
X132442714Y-82056346D01*
X132318657Y-81932289D01*
X132318656Y-81932288D01*
X132169334Y-81840186D01*
X132002797Y-81785001D01*
X132002795Y-81785000D01*
X131900010Y-81774500D01*
X131299998Y-81774500D01*
X131299980Y-81774501D01*
X131197203Y-81785000D01*
X131197200Y-81785001D01*
X131030668Y-81840185D01*
X131030663Y-81840187D01*
X130881342Y-81932289D01*
X130757289Y-82056342D01*
X130665187Y-82205663D01*
X130665185Y-82205668D01*
X130650000Y-82251494D01*
X130635805Y-82294334D01*
X130629121Y-82314504D01*
X130589348Y-82371949D01*
X130524833Y-82398772D01*
X130511415Y-82399500D01*
X129579766Y-82399500D01*
X129512727Y-82379815D01*
X129510875Y-82378602D01*
X129379185Y-82290609D01*
X129379172Y-82290602D01*
X129233501Y-82230264D01*
X129233489Y-82230261D01*
X129078845Y-82199500D01*
X129078842Y-82199500D01*
X129034095Y-82199500D01*
X128967056Y-82179815D01*
X128921301Y-82127011D01*
X128911357Y-82057853D01*
X128940382Y-81994297D01*
X128946414Y-81987819D01*
X129149233Y-81785000D01*
X129358506Y-81575727D01*
X129358511Y-81575723D01*
X129368714Y-81565519D01*
X129368716Y-81565519D01*
X129480520Y-81453715D01*
X129541803Y-81347569D01*
X129559577Y-81316784D01*
X129600501Y-81164056D01*
X129600501Y-81005942D01*
X129600501Y-80998347D01*
X129600500Y-80998329D01*
X129600500Y-79386555D01*
X129620185Y-79319516D01*
X129672989Y-79273761D01*
X129742147Y-79263817D01*
X129760411Y-79268840D01*
X129760676Y-79267969D01*
X129766492Y-79269732D01*
X129766503Y-79269737D01*
X129921153Y-79300499D01*
X129921156Y-79300500D01*
X129921158Y-79300500D01*
X130078844Y-79300500D01*
X130078845Y-79300499D01*
X130233497Y-79269737D01*
X130379179Y-79209394D01*
X130510289Y-79121789D01*
X130621789Y-79010289D01*
X130709394Y-78879179D01*
X130769737Y-78733497D01*
X130800500Y-78578842D01*
X130800638Y-78578150D01*
X130833023Y-78516239D01*
X130834518Y-78514716D01*
X131074916Y-78274319D01*
X131101843Y-78259615D01*
X131127662Y-78243023D01*
X131133862Y-78242131D01*
X131136239Y-78240834D01*
X131162597Y-78238000D01*
X131192702Y-78238000D01*
X131259741Y-78257685D01*
G37*
%TD.AperFunction*%
%TA.AperFunction,NonConductor*%
G36*
X149115668Y-79138558D02*
G01*
X149162358Y-79190537D01*
X149174501Y-79244054D01*
X149174501Y-79615018D01*
X149185000Y-79717796D01*
X149185001Y-79717799D01*
X149240185Y-79884331D01*
X149240187Y-79884336D01*
X149262899Y-79921158D01*
X149332288Y-80033656D01*
X149456344Y-80157712D01*
X149515596Y-80194258D01*
X149522420Y-80201844D01*
X149531703Y-80206084D01*
X149545389Y-80227380D01*
X149562321Y-80246204D01*
X149564965Y-80257842D01*
X149569477Y-80264862D01*
X149574500Y-80299797D01*
X149574500Y-80307491D01*
X149554815Y-80374530D01*
X149515598Y-80413029D01*
X149443844Y-80457287D01*
X149319789Y-80581342D01*
X149227687Y-80730663D01*
X149227685Y-80730668D01*
X149206371Y-80794989D01*
X149172501Y-80897203D01*
X149172501Y-80897204D01*
X149172500Y-80897204D01*
X149162000Y-80999983D01*
X149162000Y-82000001D01*
X149162001Y-82000019D01*
X149172500Y-82102796D01*
X149172501Y-82102799D01*
X149227685Y-82269331D01*
X149227687Y-82269336D01*
X149258144Y-82318715D01*
X149319788Y-82418656D01*
X149443844Y-82542712D01*
X149593166Y-82634814D01*
X149759703Y-82689999D01*
X149862491Y-82700500D01*
X150487508Y-82700499D01*
X150487516Y-82700498D01*
X150487519Y-82700498D01*
X150543802Y-82694748D01*
X150590297Y-82689999D01*
X150756834Y-82634814D01*
X150906156Y-82542712D01*
X150999819Y-82449049D01*
X151061142Y-82415564D01*
X151130834Y-82420548D01*
X151175181Y-82449049D01*
X151268844Y-82542712D01*
X151418166Y-82634814D01*
X151584703Y-82689999D01*
X151687491Y-82700500D01*
X152312508Y-82700499D01*
X152312516Y-82700498D01*
X152312519Y-82700498D01*
X152368802Y-82694748D01*
X152415297Y-82689999D01*
X152415300Y-82689997D01*
X152415304Y-82689997D01*
X152467466Y-82672712D01*
X152537294Y-82670309D01*
X152597336Y-82706040D01*
X152628529Y-82768560D01*
X152624178Y-82829419D01*
X152610000Y-82872205D01*
X152599500Y-82974983D01*
X152599500Y-83599901D01*
X152579815Y-83666940D01*
X152563181Y-83687582D01*
X152348852Y-83901912D01*
X151918476Y-84332289D01*
X151712584Y-84538181D01*
X151685656Y-84552884D01*
X151659838Y-84569477D01*
X151653637Y-84570368D01*
X151651261Y-84571666D01*
X151624903Y-84574500D01*
X151579766Y-84574500D01*
X151512727Y-84554815D01*
X151510875Y-84553602D01*
X151379185Y-84465609D01*
X151379172Y-84465602D01*
X151233501Y-84405264D01*
X151233489Y-84405261D01*
X151078845Y-84374500D01*
X151078842Y-84374500D01*
X150921158Y-84374500D01*
X150921155Y-84374500D01*
X150766510Y-84405261D01*
X150766498Y-84405264D01*
X150620827Y-84465602D01*
X150620814Y-84465609D01*
X150489125Y-84553602D01*
X150422447Y-84574480D01*
X150420234Y-84574500D01*
X148692508Y-84574500D01*
X148625469Y-84554815D01*
X148586969Y-84515597D01*
X148542712Y-84443844D01*
X148418656Y-84319788D01*
X148295203Y-84243642D01*
X148269336Y-84227687D01*
X148269327Y-84227683D01*
X148226828Y-84213600D01*
X148169384Y-84173827D01*
X148142562Y-84109310D01*
X148154878Y-84040535D01*
X148178147Y-84008220D01*
X148267712Y-83918656D01*
X148359814Y-83769334D01*
X148414999Y-83602797D01*
X148425500Y-83500009D01*
X148425499Y-82846416D01*
X148442115Y-82784412D01*
X148451469Y-82768212D01*
X148473075Y-82730788D01*
X148473074Y-82730788D01*
X148473077Y-82730785D01*
X148514001Y-82578057D01*
X148514001Y-82419943D01*
X148514001Y-82412348D01*
X148514000Y-82412330D01*
X148514000Y-79415162D01*
X148533685Y-79348123D01*
X148586489Y-79302368D01*
X148613809Y-79293545D01*
X148663216Y-79283716D01*
X148733497Y-79269737D01*
X148879179Y-79209394D01*
X148899501Y-79195815D01*
X148981610Y-79140952D01*
X149048287Y-79120074D01*
X149115668Y-79138558D01*
G37*
%TD.AperFunction*%
%TA.AperFunction,NonConductor*%
G36*
X145729782Y-80103374D02*
G01*
X145739908Y-80102110D01*
X145762739Y-80113052D01*
X145787031Y-80120185D01*
X145795390Y-80128700D01*
X145802916Y-80132307D01*
X145825529Y-80159400D01*
X145869788Y-80231156D01*
X145993844Y-80355212D01*
X146143166Y-80447314D01*
X146309703Y-80502499D01*
X146412491Y-80513000D01*
X147189000Y-80512999D01*
X147256039Y-80532683D01*
X147301794Y-80585487D01*
X147313000Y-80636999D01*
X147313000Y-81675500D01*
X147293315Y-81742539D01*
X147240511Y-81788294D01*
X147189001Y-81799500D01*
X147099999Y-81799500D01*
X147099980Y-81799501D01*
X146997203Y-81810000D01*
X146997200Y-81810001D01*
X146830668Y-81865185D01*
X146830663Y-81865187D01*
X146681342Y-81957289D01*
X146587681Y-82050951D01*
X146526358Y-82084436D01*
X146456666Y-82079452D01*
X146412319Y-82050951D01*
X146318657Y-81957289D01*
X146318656Y-81957288D01*
X146192029Y-81879184D01*
X146169336Y-81865187D01*
X146169331Y-81865185D01*
X146151900Y-81859409D01*
X146002797Y-81810001D01*
X146002795Y-81810000D01*
X145900010Y-81799500D01*
X145274998Y-81799500D01*
X145274980Y-81799501D01*
X145172203Y-81810000D01*
X145172200Y-81810001D01*
X145005668Y-81865185D01*
X145005663Y-81865187D01*
X144856342Y-81957289D01*
X144732289Y-82081342D01*
X144640187Y-82230663D01*
X144640185Y-82230668D01*
X144627372Y-82269336D01*
X144585001Y-82397203D01*
X144585001Y-82397204D01*
X144585000Y-82397204D01*
X144574500Y-82499983D01*
X144574500Y-83500001D01*
X144574501Y-83500019D01*
X144585000Y-83602796D01*
X144585001Y-83602799D01*
X144640185Y-83769331D01*
X144640187Y-83769336D01*
X144640435Y-83769738D01*
X144726248Y-83908864D01*
X144732289Y-83918657D01*
X144821846Y-84008214D01*
X144855331Y-84069537D01*
X144850347Y-84139229D01*
X144808475Y-84195162D01*
X144773172Y-84213600D01*
X144730670Y-84227684D01*
X144730663Y-84227687D01*
X144581342Y-84319789D01*
X144457289Y-84443842D01*
X144365187Y-84593163D01*
X144365185Y-84593168D01*
X144348030Y-84644939D01*
X144310001Y-84759703D01*
X144310001Y-84759704D01*
X144310000Y-84759704D01*
X144299500Y-84862483D01*
X144299500Y-85487501D01*
X144299501Y-85487519D01*
X144310000Y-85590296D01*
X144310001Y-85590299D01*
X144365185Y-85756831D01*
X144365187Y-85756836D01*
X144380110Y-85781030D01*
X144440051Y-85878211D01*
X144457289Y-85906157D01*
X144550951Y-85999819D01*
X144552468Y-86002597D01*
X144555169Y-86004250D01*
X144569103Y-86033063D01*
X144584436Y-86061142D01*
X144584210Y-86064299D01*
X144585589Y-86067150D01*
X144581734Y-86098916D01*
X144579452Y-86130834D01*
X144577439Y-86134312D01*
X144577173Y-86136511D01*
X144570326Y-86146608D01*
X144558751Y-86166616D01*
X144555052Y-86171079D01*
X144457288Y-86268844D01*
X144408491Y-86347956D01*
X144402973Y-86354616D01*
X144380888Y-86369507D01*
X144361083Y-86387321D01*
X144351107Y-86389587D01*
X144345042Y-86393678D01*
X144331827Y-86393969D01*
X144307492Y-86399500D01*
X143161868Y-86399500D01*
X143094829Y-86379815D01*
X143073653Y-86360616D01*
X143072819Y-86361451D01*
X142943658Y-86232290D01*
X142943656Y-86232288D01*
X142940819Y-86230538D01*
X142939283Y-86228830D01*
X142937989Y-86227807D01*
X142938163Y-86227585D01*
X142894096Y-86178594D01*
X142882872Y-86109632D01*
X142910713Y-86045549D01*
X142940817Y-86019462D01*
X142943656Y-86017712D01*
X143067712Y-85893656D01*
X143159814Y-85744334D01*
X143214999Y-85577797D01*
X143225500Y-85475009D01*
X143225499Y-84874992D01*
X143219142Y-84812765D01*
X143214999Y-84772203D01*
X143214998Y-84772200D01*
X143210856Y-84759700D01*
X143159814Y-84605666D01*
X143067712Y-84456344D01*
X142943656Y-84332288D01*
X142850888Y-84275069D01*
X142794336Y-84240187D01*
X142794335Y-84240186D01*
X142794334Y-84240186D01*
X142733301Y-84219961D01*
X142685495Y-84204120D01*
X142628050Y-84164347D01*
X142601228Y-84099831D01*
X142600500Y-84086414D01*
X142600500Y-80651307D01*
X142620185Y-80584268D01*
X142657619Y-80546890D01*
X142670725Y-80538494D01*
X142681834Y-80534814D01*
X142831156Y-80442712D01*
X142850563Y-80423304D01*
X142861869Y-80416063D01*
X142883038Y-80409881D01*
X142902392Y-80399314D01*
X142915918Y-80400281D01*
X142928938Y-80396480D01*
X142950087Y-80402724D01*
X142972084Y-80404298D01*
X142986251Y-80413403D01*
X142995947Y-80416266D01*
X143002488Y-80423838D01*
X143016431Y-80432799D01*
X143033844Y-80450212D01*
X143183166Y-80542314D01*
X143349703Y-80597499D01*
X143452491Y-80608000D01*
X144452508Y-80607999D01*
X144452516Y-80607998D01*
X144452519Y-80607998D01*
X144538919Y-80599172D01*
X144555297Y-80597499D01*
X144721834Y-80542314D01*
X144871156Y-80450212D01*
X144995212Y-80326156D01*
X145087314Y-80176834D01*
X145087315Y-80176830D01*
X145087318Y-80176826D01*
X145089525Y-80172094D01*
X145135698Y-80119655D01*
X145201906Y-80100500D01*
X145719992Y-80100500D01*
X145729782Y-80103374D01*
G37*
%TD.AperFunction*%
%TA.AperFunction,NonConductor*%
G36*
X140631334Y-79320413D02*
G01*
X140687267Y-79362285D01*
X140711684Y-79427749D01*
X140712000Y-79436595D01*
X140712000Y-79900001D01*
X140712001Y-79900019D01*
X140722500Y-80002796D01*
X140722501Y-80002799D01*
X140777685Y-80169331D01*
X140777687Y-80169336D01*
X140796292Y-80199500D01*
X140869788Y-80318656D01*
X140993844Y-80442712D01*
X141143166Y-80534814D01*
X141283578Y-80581342D01*
X141314504Y-80591590D01*
X141371949Y-80631363D01*
X141398772Y-80695879D01*
X141399500Y-80709296D01*
X141399500Y-84086414D01*
X141379815Y-84153453D01*
X141327011Y-84199208D01*
X141314505Y-84204120D01*
X141205666Y-84240186D01*
X141205663Y-84240187D01*
X141056342Y-84332289D01*
X140932289Y-84456342D01*
X140840187Y-84605663D01*
X140840185Y-84605668D01*
X140824689Y-84652432D01*
X140785001Y-84772203D01*
X140785001Y-84772204D01*
X140785000Y-84772204D01*
X140774500Y-84874983D01*
X140774500Y-85475001D01*
X140774501Y-85475019D01*
X140785000Y-85577796D01*
X140785001Y-85577799D01*
X140840185Y-85744331D01*
X140840187Y-85744336D01*
X140862820Y-85781030D01*
X140926575Y-85884394D01*
X140932289Y-85893657D01*
X141056346Y-86017714D01*
X141059182Y-86019463D01*
X141060717Y-86021170D01*
X141062011Y-86022193D01*
X141061836Y-86022414D01*
X141105905Y-86071411D01*
X141117126Y-86140374D01*
X141089282Y-86204456D01*
X141080191Y-86214227D01*
X141070565Y-86223516D01*
X141056344Y-86232288D01*
X140932288Y-86356344D01*
X140931348Y-86357866D01*
X140924240Y-86364727D01*
X140900363Y-86377218D01*
X140878375Y-86392788D01*
X140866966Y-86394690D01*
X140862331Y-86397116D01*
X140855882Y-86396539D01*
X140838132Y-86399500D01*
X139692508Y-86399500D01*
X139625469Y-86379815D01*
X139586969Y-86340597D01*
X139566440Y-86307314D01*
X139542712Y-86268844D01*
X139449049Y-86175181D01*
X139415564Y-86113858D01*
X139420548Y-86044166D01*
X139449049Y-85999819D01*
X139473369Y-85975499D01*
X139542712Y-85906156D01*
X139634814Y-85756834D01*
X139689999Y-85590297D01*
X139700500Y-85487509D01*
X139700499Y-84862492D01*
X139689999Y-84759703D01*
X139634814Y-84593166D01*
X139542712Y-84443844D01*
X139418656Y-84319788D01*
X139295203Y-84243642D01*
X139269336Y-84227687D01*
X139269331Y-84227685D01*
X139240656Y-84218183D01*
X139102797Y-84172501D01*
X139102795Y-84172500D01*
X139000010Y-84162000D01*
X137999998Y-84162000D01*
X137999980Y-84162001D01*
X137897203Y-84172500D01*
X137897198Y-84172501D01*
X137895306Y-84173129D01*
X137894071Y-84173171D01*
X137890578Y-84173919D01*
X137890444Y-84173295D01*
X137825477Y-84175525D01*
X137765438Y-84139790D01*
X137734250Y-84077267D01*
X137741815Y-84007808D01*
X137768628Y-83967739D01*
X137792712Y-83943656D01*
X137884814Y-83794334D01*
X137939999Y-83627797D01*
X137950500Y-83525009D01*
X137950499Y-82900095D01*
X137970183Y-82833057D01*
X137986813Y-82812420D01*
X138358506Y-82440728D01*
X138358511Y-82440724D01*
X138368714Y-82430520D01*
X138368716Y-82430520D01*
X138480520Y-82318716D01*
X138549349Y-82199500D01*
X138559577Y-82181785D01*
X138591862Y-82061291D01*
X138592919Y-82058068D01*
X138604325Y-82041477D01*
X138619071Y-82015941D01*
X138617923Y-82014999D01*
X138621783Y-82010294D01*
X138621789Y-82010289D01*
X138709394Y-81879179D01*
X138715191Y-81865185D01*
X138739304Y-81806969D01*
X138769737Y-81733497D01*
X138800500Y-81578842D01*
X138800500Y-81421158D01*
X138800500Y-81421155D01*
X138800499Y-81421153D01*
X138785862Y-81347567D01*
X138769737Y-81266503D01*
X138764325Y-81253436D01*
X138734857Y-81182294D01*
X138727388Y-81112825D01*
X138758663Y-81050346D01*
X138787417Y-81027455D01*
X138868716Y-80980520D01*
X138980520Y-80868716D01*
X138980520Y-80868714D01*
X138990728Y-80858507D01*
X138990730Y-80858504D01*
X140500321Y-79348912D01*
X140561642Y-79315429D01*
X140631334Y-79320413D01*
G37*
%TD.AperFunction*%
%TA.AperFunction,NonConductor*%
G36*
X136487273Y-85120185D02*
G01*
X136489125Y-85121398D01*
X136620814Y-85209390D01*
X136620827Y-85209397D01*
X136766498Y-85269735D01*
X136766503Y-85269737D01*
X136921153Y-85300499D01*
X136921156Y-85300500D01*
X136921158Y-85300500D01*
X137078843Y-85300500D01*
X137094564Y-85297372D01*
X137151309Y-85286085D01*
X137220899Y-85292312D01*
X137276077Y-85335174D01*
X137299322Y-85401063D01*
X137299500Y-85407701D01*
X137299500Y-85487500D01*
X137299501Y-85487519D01*
X137310000Y-85590296D01*
X137310001Y-85590299D01*
X137365185Y-85756831D01*
X137365187Y-85756836D01*
X137380110Y-85781030D01*
X137440051Y-85878211D01*
X137457289Y-85906157D01*
X137550951Y-85999819D01*
X137552468Y-86002597D01*
X137555169Y-86004250D01*
X137569103Y-86033063D01*
X137584436Y-86061142D01*
X137584210Y-86064299D01*
X137585589Y-86067150D01*
X137581734Y-86098916D01*
X137579452Y-86130834D01*
X137577439Y-86134312D01*
X137577173Y-86136511D01*
X137570326Y-86146608D01*
X137558751Y-86166616D01*
X137555052Y-86171079D01*
X137457288Y-86268844D01*
X137408491Y-86347956D01*
X137402973Y-86354616D01*
X137380888Y-86369507D01*
X137361083Y-86387321D01*
X137351107Y-86389587D01*
X137345042Y-86393678D01*
X137331827Y-86393969D01*
X137307492Y-86399500D01*
X136192508Y-86399500D01*
X136125469Y-86379815D01*
X136086969Y-86340597D01*
X136066440Y-86307314D01*
X136042712Y-86268844D01*
X135949049Y-86175181D01*
X135915564Y-86113858D01*
X135920548Y-86044166D01*
X135949049Y-85999819D01*
X135973369Y-85975499D01*
X136042712Y-85906156D01*
X136134814Y-85756834D01*
X136189999Y-85590297D01*
X136200500Y-85487509D01*
X136200499Y-85224498D01*
X136203049Y-85215813D01*
X136201761Y-85206853D01*
X136212738Y-85182816D01*
X136220183Y-85157461D01*
X136227025Y-85151532D01*
X136230786Y-85143297D01*
X136253017Y-85129010D01*
X136272987Y-85111706D01*
X136283502Y-85109418D01*
X136289564Y-85105523D01*
X136324499Y-85100500D01*
X136420234Y-85100500D01*
X136487273Y-85120185D01*
G37*
%TD.AperFunction*%
%TA.AperFunction,NonConductor*%
G36*
X132577778Y-83888263D02*
G01*
X132591288Y-83888992D01*
X132609194Y-83901912D01*
X132629451Y-83910713D01*
X132642897Y-83926230D01*
X132647948Y-83929875D01*
X132649519Y-83933873D01*
X132655537Y-83940817D01*
X132657288Y-83943656D01*
X132781344Y-84067712D01*
X132930666Y-84159814D01*
X133097203Y-84214999D01*
X133199991Y-84225500D01*
X133800008Y-84225499D01*
X133871626Y-84218183D01*
X133940319Y-84230953D01*
X133991203Y-84278833D01*
X134008124Y-84346623D01*
X133985708Y-84412800D01*
X133971911Y-84429220D01*
X133957289Y-84443841D01*
X133865187Y-84593163D01*
X133865185Y-84593168D01*
X133848030Y-84644939D01*
X133810001Y-84759703D01*
X133810001Y-84759704D01*
X133810000Y-84759704D01*
X133799500Y-84862483D01*
X133799500Y-85487501D01*
X133799501Y-85487519D01*
X133810000Y-85590296D01*
X133810001Y-85590299D01*
X133865185Y-85756831D01*
X133865187Y-85756836D01*
X133880110Y-85781030D01*
X133940051Y-85878211D01*
X133957289Y-85906157D01*
X134050951Y-85999819D01*
X134052468Y-86002597D01*
X134055169Y-86004250D01*
X134069103Y-86033063D01*
X134084436Y-86061142D01*
X134084210Y-86064299D01*
X134085589Y-86067150D01*
X134081734Y-86098916D01*
X134079452Y-86130834D01*
X134077439Y-86134312D01*
X134077173Y-86136511D01*
X134070326Y-86146608D01*
X134058751Y-86166616D01*
X134055052Y-86171079D01*
X133957288Y-86268844D01*
X133908491Y-86347956D01*
X133902973Y-86354616D01*
X133880888Y-86369507D01*
X133861083Y-86387321D01*
X133851107Y-86389587D01*
X133845042Y-86393678D01*
X133831827Y-86393969D01*
X133807492Y-86399500D01*
X132692508Y-86399500D01*
X132625469Y-86379815D01*
X132586969Y-86340597D01*
X132566440Y-86307314D01*
X132542712Y-86268844D01*
X132449049Y-86175181D01*
X132415564Y-86113858D01*
X132420548Y-86044166D01*
X132449049Y-85999819D01*
X132473369Y-85975499D01*
X132542712Y-85906156D01*
X132634814Y-85756834D01*
X132689999Y-85590297D01*
X132700500Y-85487509D01*
X132700499Y-84862492D01*
X132689999Y-84759703D01*
X132634814Y-84593166D01*
X132542712Y-84443844D01*
X132418656Y-84319788D01*
X132334107Y-84267638D01*
X132319260Y-84251131D01*
X132301257Y-84238141D01*
X132296350Y-84225660D01*
X132287384Y-84215691D01*
X132283818Y-84193779D01*
X132275695Y-84173116D01*
X132278315Y-84159964D01*
X132276161Y-84146728D01*
X132285008Y-84126365D01*
X132289346Y-84104593D01*
X132300111Y-84091606D01*
X132304005Y-84082646D01*
X132309998Y-84075971D01*
X132316965Y-84068754D01*
X132318656Y-84067712D01*
X132442712Y-83943656D01*
X132451493Y-83929418D01*
X132460793Y-83919787D01*
X132479987Y-83908864D01*
X132496406Y-83894096D01*
X132509759Y-83891922D01*
X132521519Y-83885231D01*
X132543570Y-83886419D01*
X132565368Y-83882872D01*
X132577778Y-83888263D01*
G37*
%TD.AperFunction*%
%TA.AperFunction,NonConductor*%
G36*
X128118834Y-82917913D02*
G01*
X128174767Y-82959785D01*
X128199184Y-83025249D01*
X128199500Y-83034095D01*
X128199500Y-83078846D01*
X128230261Y-83233489D01*
X128230264Y-83233501D01*
X128290602Y-83379172D01*
X128290609Y-83379185D01*
X128378210Y-83510288D01*
X128378213Y-83510292D01*
X128489707Y-83621786D01*
X128489711Y-83621789D01*
X128620814Y-83709390D01*
X128620827Y-83709397D01*
X128765523Y-83769331D01*
X128766503Y-83769737D01*
X128890145Y-83794331D01*
X128921153Y-83800499D01*
X128921156Y-83800500D01*
X128921158Y-83800500D01*
X129078844Y-83800500D01*
X129078845Y-83800499D01*
X129233497Y-83769737D01*
X129379179Y-83709394D01*
X129442716Y-83666940D01*
X129510875Y-83621398D01*
X129577553Y-83600520D01*
X129579766Y-83600500D01*
X130511415Y-83600500D01*
X130578454Y-83620185D01*
X130624209Y-83672989D01*
X130629118Y-83685489D01*
X130657035Y-83769735D01*
X130665185Y-83794331D01*
X130665187Y-83794336D01*
X130668989Y-83800500D01*
X130726719Y-83894096D01*
X130757289Y-83943657D01*
X130821846Y-84008214D01*
X130855331Y-84069537D01*
X130850347Y-84139229D01*
X130808475Y-84195162D01*
X130773172Y-84213600D01*
X130730670Y-84227684D01*
X130730663Y-84227687D01*
X130581342Y-84319789D01*
X130457289Y-84443842D01*
X130365187Y-84593163D01*
X130365185Y-84593168D01*
X130348030Y-84644939D01*
X130310001Y-84759703D01*
X130310001Y-84759704D01*
X130310000Y-84759704D01*
X130299500Y-84862483D01*
X130299500Y-85487501D01*
X130299501Y-85487519D01*
X130310000Y-85590296D01*
X130310001Y-85590299D01*
X130365185Y-85756831D01*
X130365187Y-85756836D01*
X130380110Y-85781030D01*
X130440051Y-85878211D01*
X130457289Y-85906157D01*
X130550951Y-85999819D01*
X130552468Y-86002597D01*
X130555169Y-86004250D01*
X130569103Y-86033063D01*
X130584436Y-86061142D01*
X130584210Y-86064299D01*
X130585589Y-86067150D01*
X130581734Y-86098916D01*
X130579452Y-86130834D01*
X130577439Y-86134312D01*
X130577173Y-86136511D01*
X130570326Y-86146608D01*
X130558751Y-86166616D01*
X130555052Y-86171079D01*
X130457288Y-86268844D01*
X130408491Y-86347956D01*
X130402973Y-86354616D01*
X130380888Y-86369507D01*
X130361083Y-86387321D01*
X130351107Y-86389587D01*
X130345042Y-86393678D01*
X130331827Y-86393969D01*
X130307492Y-86399500D01*
X129192508Y-86399500D01*
X129125469Y-86379815D01*
X129086969Y-86340597D01*
X129066440Y-86307314D01*
X129042712Y-86268844D01*
X128949049Y-86175181D01*
X128915564Y-86113858D01*
X128920548Y-86044166D01*
X128949049Y-85999819D01*
X128973369Y-85975499D01*
X129042712Y-85906156D01*
X129134814Y-85756834D01*
X129189999Y-85590297D01*
X129200500Y-85487509D01*
X129200499Y-84862492D01*
X129189999Y-84759703D01*
X129134814Y-84593166D01*
X129042712Y-84443844D01*
X128918656Y-84319788D01*
X128795203Y-84243642D01*
X128769336Y-84227687D01*
X128769331Y-84227685D01*
X128740656Y-84218183D01*
X128602797Y-84172501D01*
X128602795Y-84172500D01*
X128500010Y-84162000D01*
X127499998Y-84162000D01*
X127499980Y-84162001D01*
X127397203Y-84172500D01*
X127397200Y-84172501D01*
X127230668Y-84227685D01*
X127230659Y-84227689D01*
X127136059Y-84286039D01*
X127128006Y-84288242D01*
X127121659Y-84293663D01*
X127070963Y-84304500D01*
X126965907Y-84304500D01*
X126898868Y-84284815D01*
X126853113Y-84232011D01*
X126843169Y-84162853D01*
X126859175Y-84117379D01*
X126877487Y-84086414D01*
X126901744Y-84045398D01*
X126901747Y-84045384D01*
X126902189Y-84044367D01*
X126903459Y-84042496D01*
X126905716Y-84038682D01*
X126905955Y-84038823D01*
X126910068Y-84032772D01*
X126912168Y-84025809D01*
X126918441Y-84020451D01*
X126928321Y-84005913D01*
X126930519Y-84003716D01*
X126930519Y-84003714D01*
X126940720Y-83993515D01*
X126940727Y-83993505D01*
X127987819Y-82946414D01*
X128049142Y-82912929D01*
X128118834Y-82917913D01*
G37*
%TD.AperFunction*%
%TA.AperFunction,NonConductor*%
G36*
X136817942Y-91120185D02*
G01*
X136863697Y-91172989D01*
X136873641Y-91242147D01*
X136844616Y-91305703D01*
X136838584Y-91312181D01*
X136787584Y-91363181D01*
X136726261Y-91396666D01*
X136699903Y-91399500D01*
X135996729Y-91399500D01*
X135953396Y-91391682D01*
X135857486Y-91355910D01*
X135857485Y-91355909D01*
X135857483Y-91355909D01*
X135797873Y-91349500D01*
X135797863Y-91349500D01*
X135202129Y-91349500D01*
X135202123Y-91349501D01*
X135142517Y-91355908D01*
X135113633Y-91366682D01*
X135070300Y-91374500D01*
X134129702Y-91374500D01*
X134086372Y-91366683D01*
X134057483Y-91355909D01*
X134057482Y-91355908D01*
X133998933Y-91349614D01*
X133997873Y-91349500D01*
X133997863Y-91349500D01*
X133402129Y-91349500D01*
X133402105Y-91349502D01*
X133400396Y-91349686D01*
X133400002Y-91349614D01*
X133398805Y-91349679D01*
X133398789Y-91349396D01*
X133369198Y-91344055D01*
X133337732Y-91340123D01*
X133335061Y-91337893D01*
X133331638Y-91337276D01*
X133308432Y-91315668D01*
X133284092Y-91295352D01*
X133282103Y-91291151D01*
X133280504Y-91289662D01*
X133272550Y-91271839D01*
X133272035Y-91272053D01*
X133271961Y-91271874D01*
X133271770Y-91270093D01*
X133268839Y-91263524D01*
X133268244Y-91261628D01*
X133268243Y-91261580D01*
X133267971Y-91260684D01*
X133268225Y-91260606D01*
X133267694Y-91231934D01*
X133264540Y-91202399D01*
X133267055Y-91197381D01*
X133266952Y-91191770D01*
X133282545Y-91166491D01*
X133295858Y-91139942D01*
X133300687Y-91137081D01*
X133303634Y-91132304D01*
X133330422Y-91119466D01*
X133355972Y-91104331D01*
X133364140Y-91103307D01*
X133366642Y-91102109D01*
X133370180Y-91102551D01*
X133386555Y-91100500D01*
X136750903Y-91100500D01*
X136817942Y-91120185D01*
G37*
%TD.AperFunction*%
%TA.AperFunction,NonConductor*%
G36*
X130242539Y-91120185D02*
G01*
X130288294Y-91172989D01*
X130299500Y-91224500D01*
X130299500Y-91250500D01*
X130279815Y-91317539D01*
X130227011Y-91363294D01*
X130175500Y-91374500D01*
X129529702Y-91374500D01*
X129486372Y-91366683D01*
X129457483Y-91355909D01*
X129457482Y-91355908D01*
X129398933Y-91349614D01*
X129397873Y-91349500D01*
X129397863Y-91349500D01*
X128802129Y-91349500D01*
X128802123Y-91349501D01*
X128742516Y-91355908D01*
X128646604Y-91391682D01*
X128603271Y-91399500D01*
X128249097Y-91399500D01*
X128182058Y-91379815D01*
X128136303Y-91327011D01*
X128126359Y-91257853D01*
X128155384Y-91194297D01*
X128161416Y-91187819D01*
X128212416Y-91136819D01*
X128273739Y-91103334D01*
X128300097Y-91100500D01*
X130175500Y-91100500D01*
X130242539Y-91120185D01*
G37*
%TD.AperFunction*%
%TA.AperFunction,NonConductor*%
G36*
X125043333Y-88908414D02*
G01*
X125087680Y-88936915D01*
X126813083Y-90662318D01*
X126846568Y-90723641D01*
X126841584Y-90793333D01*
X126813083Y-90837680D01*
X126337582Y-91313181D01*
X126276259Y-91346666D01*
X126249901Y-91349500D01*
X125702129Y-91349500D01*
X125702123Y-91349501D01*
X125642517Y-91355908D01*
X125613633Y-91366682D01*
X125570300Y-91374500D01*
X124629702Y-91374500D01*
X124586372Y-91366683D01*
X124557483Y-91355909D01*
X124557482Y-91355908D01*
X124498933Y-91349614D01*
X124497873Y-91349500D01*
X124497863Y-91349500D01*
X123902129Y-91349500D01*
X123902123Y-91349501D01*
X123842516Y-91355908D01*
X123746604Y-91391682D01*
X123703271Y-91399500D01*
X123149001Y-91399500D01*
X123081962Y-91379815D01*
X123036207Y-91327011D01*
X123026263Y-91257853D01*
X123049734Y-91201189D01*
X123093796Y-91142331D01*
X123144091Y-91007483D01*
X123150500Y-90947873D01*
X123150499Y-90552128D01*
X123150498Y-90552111D01*
X123146320Y-90513253D01*
X123146320Y-90486747D01*
X123150500Y-90447873D01*
X123150499Y-90052128D01*
X123150498Y-90052111D01*
X123146320Y-90013253D01*
X123146320Y-89986747D01*
X123149062Y-89961239D01*
X123175802Y-89896691D01*
X123233195Y-89856844D01*
X123272351Y-89850500D01*
X123663331Y-89850500D01*
X123663347Y-89850501D01*
X123670943Y-89850501D01*
X123829054Y-89850501D01*
X123829057Y-89850501D01*
X123981785Y-89809577D01*
X124037775Y-89777251D01*
X124118716Y-89730520D01*
X124230520Y-89618716D01*
X124230520Y-89618714D01*
X124240724Y-89608511D01*
X124240727Y-89608506D01*
X124912322Y-88936912D01*
X124973641Y-88903430D01*
X125043333Y-88908414D01*
G37*
%TD.AperFunction*%
%TA.AperFunction,NonConductor*%
G36*
X121091470Y-91830959D02*
G01*
X121118834Y-91832916D01*
X121118836Y-91832917D01*
X121118840Y-91832918D01*
X121149828Y-91856118D01*
X121174767Y-91874788D01*
X121174768Y-91874790D01*
X121174771Y-91874793D01*
X121184795Y-91901673D01*
X121199184Y-91940252D01*
X121199184Y-91940255D01*
X121199185Y-91940258D01*
X121199184Y-91940261D01*
X121199500Y-91949098D01*
X121199500Y-92078846D01*
X121230261Y-92233489D01*
X121230264Y-92233501D01*
X121290602Y-92379172D01*
X121290609Y-92379185D01*
X121378210Y-92510288D01*
X121378213Y-92510292D01*
X121489707Y-92621786D01*
X121527289Y-92646898D01*
X121572093Y-92700511D01*
X121580800Y-92769836D01*
X121550645Y-92832863D01*
X121527289Y-92853102D01*
X121489707Y-92878213D01*
X121378213Y-92989707D01*
X121378210Y-92989711D01*
X121290609Y-93120814D01*
X121290602Y-93120827D01*
X121230264Y-93266498D01*
X121230261Y-93266510D01*
X121199500Y-93421153D01*
X121199500Y-93550902D01*
X121179815Y-93617941D01*
X121127011Y-93663696D01*
X121057853Y-93673640D01*
X120994297Y-93644615D01*
X120987819Y-93638583D01*
X120636819Y-93287583D01*
X120603334Y-93226260D01*
X120600500Y-93199902D01*
X120600500Y-92300096D01*
X120620185Y-92233057D01*
X120636815Y-92212419D01*
X120968713Y-91880521D01*
X120968716Y-91880520D01*
X120987825Y-91861410D01*
X121030021Y-91838372D01*
X121049142Y-91827932D01*
X121049144Y-91827932D01*
X121049148Y-91827930D01*
X121091470Y-91830959D01*
G37*
%TD.AperFunction*%
%TA.AperFunction,NonConductor*%
G36*
X128294688Y-93620185D02*
G01*
X128340443Y-93672989D01*
X128350939Y-93711248D01*
X128355908Y-93757483D01*
X128406202Y-93892328D01*
X128406203Y-93892330D01*
X128474767Y-93983919D01*
X128482505Y-94004667D01*
X128494477Y-94023295D01*
X128497628Y-94045211D01*
X128499184Y-94049383D01*
X128499500Y-94058230D01*
X128499500Y-94249902D01*
X128479815Y-94316941D01*
X128427011Y-94362696D01*
X128357853Y-94372640D01*
X128294297Y-94343615D01*
X128287819Y-94337583D01*
X128136819Y-94186583D01*
X128103334Y-94125260D01*
X128100500Y-94098902D01*
X128100500Y-93724500D01*
X128120185Y-93657461D01*
X128172989Y-93611706D01*
X128224500Y-93600500D01*
X128227649Y-93600500D01*
X128294688Y-93620185D01*
G37*
%TD.AperFunction*%
%TA.AperFunction,NonConductor*%
G36*
X157910094Y-73264778D02*
G01*
X157934504Y-73283740D01*
X159363181Y-74712416D01*
X159396666Y-74773739D01*
X159399500Y-74800097D01*
X159399500Y-75525500D01*
X159379815Y-75592539D01*
X159327011Y-75638294D01*
X159275502Y-75649500D01*
X159224999Y-75649500D01*
X159224980Y-75649501D01*
X159122203Y-75660000D01*
X159122200Y-75660001D01*
X158955668Y-75715185D01*
X158955663Y-75715187D01*
X158806342Y-75807289D01*
X158682289Y-75931342D01*
X158590187Y-76080663D01*
X158590185Y-76080668D01*
X158569313Y-76143656D01*
X158535001Y-76247203D01*
X158535001Y-76247204D01*
X158535000Y-76247204D01*
X158524500Y-76349983D01*
X158524500Y-77650001D01*
X158524501Y-77650018D01*
X158535000Y-77752796D01*
X158535001Y-77752799D01*
X158590185Y-77919331D01*
X158590187Y-77919336D01*
X158608736Y-77949409D01*
X158664797Y-78040299D01*
X158682289Y-78068657D01*
X158806344Y-78192712D01*
X158961120Y-78288178D01*
X159007845Y-78340126D01*
X159019068Y-78409088D01*
X158991224Y-78473171D01*
X158983706Y-78481398D01*
X158844889Y-78620215D01*
X158719951Y-78792179D01*
X158623444Y-78981585D01*
X158557753Y-79183760D01*
X158524500Y-79393713D01*
X158524500Y-79606286D01*
X158555196Y-79800097D01*
X158557754Y-79816243D01*
X158618369Y-80002797D01*
X158623444Y-80018414D01*
X158719951Y-80207820D01*
X158844890Y-80379786D01*
X158995209Y-80530105D01*
X158995214Y-80530109D01*
X159159793Y-80649682D01*
X159202459Y-80705011D01*
X159208438Y-80774625D01*
X159175833Y-80836420D01*
X159159793Y-80850318D01*
X158995214Y-80969890D01*
X158995209Y-80969894D01*
X158844890Y-81120213D01*
X158719951Y-81292179D01*
X158623444Y-81481585D01*
X158557753Y-81683760D01*
X158524500Y-81893713D01*
X158524500Y-82106286D01*
X158557478Y-82314504D01*
X158557754Y-82316243D01*
X158611000Y-82480118D01*
X158623444Y-82518414D01*
X158719951Y-82707820D01*
X158844890Y-82879786D01*
X158995213Y-83030109D01*
X159167179Y-83155048D01*
X159167181Y-83155049D01*
X159167184Y-83155051D01*
X159356588Y-83251557D01*
X159558757Y-83317246D01*
X159768713Y-83350500D01*
X159768714Y-83350500D01*
X160231286Y-83350500D01*
X160231287Y-83350500D01*
X160441243Y-83317246D01*
X160643412Y-83251557D01*
X160832816Y-83155051D01*
X160937704Y-83078846D01*
X161004786Y-83030109D01*
X161004788Y-83030106D01*
X161004792Y-83030104D01*
X161155104Y-82879792D01*
X161155106Y-82879788D01*
X161155109Y-82879786D01*
X161280048Y-82707820D01*
X161280047Y-82707820D01*
X161280051Y-82707816D01*
X161376557Y-82518412D01*
X161442246Y-82316243D01*
X161475500Y-82106287D01*
X161475500Y-81893713D01*
X161442246Y-81683757D01*
X161376557Y-81481588D01*
X161280051Y-81292184D01*
X161280049Y-81292181D01*
X161280048Y-81292179D01*
X161155109Y-81120213D01*
X161004792Y-80969896D01*
X160990588Y-80959576D01*
X160840204Y-80850316D01*
X160797540Y-80794989D01*
X160791561Y-80725376D01*
X160824166Y-80663580D01*
X160840199Y-80649686D01*
X161004792Y-80530104D01*
X161155104Y-80379792D01*
X161155106Y-80379788D01*
X161155109Y-80379786D01*
X161265837Y-80227380D01*
X161280051Y-80207816D01*
X161376557Y-80018412D01*
X161442246Y-79816243D01*
X161475500Y-79606287D01*
X161475500Y-79393713D01*
X161442246Y-79183757D01*
X161376557Y-78981588D01*
X161280051Y-78792184D01*
X161280049Y-78792181D01*
X161280048Y-78792179D01*
X161155109Y-78620213D01*
X161016294Y-78481398D01*
X160982809Y-78420075D01*
X160987793Y-78350383D01*
X161029665Y-78294450D01*
X161038879Y-78288178D01*
X161044331Y-78284814D01*
X161044334Y-78284814D01*
X161193656Y-78192712D01*
X161317712Y-78068656D01*
X161409814Y-77919334D01*
X161464999Y-77752797D01*
X161469177Y-77711896D01*
X161495573Y-77647207D01*
X161552753Y-77607055D01*
X161592535Y-77600500D01*
X162199903Y-77600500D01*
X162266942Y-77620185D01*
X162287584Y-77636819D01*
X163363181Y-78712416D01*
X163396666Y-78773739D01*
X163399500Y-78800097D01*
X163399500Y-95199903D01*
X163379815Y-95266942D01*
X163363181Y-95287584D01*
X162888584Y-95762181D01*
X162827261Y-95795666D01*
X162800903Y-95798500D01*
X144699098Y-95798500D01*
X144632059Y-95778815D01*
X144611417Y-95762181D01*
X138987590Y-90138355D01*
X138987588Y-90138352D01*
X138868717Y-90019481D01*
X138868716Y-90019480D01*
X138764643Y-89959394D01*
X138764642Y-89959393D01*
X138731783Y-89940422D01*
X138675881Y-89925443D01*
X138579057Y-89899499D01*
X138420943Y-89899499D01*
X138413347Y-89899499D01*
X138413331Y-89899500D01*
X127800097Y-89899500D01*
X127733058Y-89879815D01*
X127712416Y-89863181D01*
X125487590Y-87638355D01*
X125487588Y-87638352D01*
X125368717Y-87519481D01*
X125368716Y-87519480D01*
X125281904Y-87469360D01*
X125281904Y-87469359D01*
X125281900Y-87469358D01*
X125231785Y-87440423D01*
X125079057Y-87399499D01*
X124920943Y-87399499D01*
X124913347Y-87399499D01*
X124913331Y-87399500D01*
X120086669Y-87399500D01*
X120086653Y-87399499D01*
X120079057Y-87399499D01*
X119920943Y-87399499D01*
X119813587Y-87428265D01*
X119768210Y-87440424D01*
X119768209Y-87440425D01*
X119718096Y-87469359D01*
X119718095Y-87469360D01*
X119674689Y-87494420D01*
X119631285Y-87519479D01*
X119631282Y-87519481D01*
X119519478Y-87631286D01*
X118537584Y-88613181D01*
X118510656Y-88627884D01*
X118484838Y-88644477D01*
X118478637Y-88645368D01*
X118476261Y-88646666D01*
X118449903Y-88649500D01*
X118396729Y-88649500D01*
X118353396Y-88641682D01*
X118257486Y-88605910D01*
X118257485Y-88605909D01*
X118257483Y-88605909D01*
X118197873Y-88599500D01*
X118197863Y-88599500D01*
X117602129Y-88599500D01*
X117602123Y-88599501D01*
X117542517Y-88605908D01*
X117513633Y-88616682D01*
X117470300Y-88624500D01*
X116529702Y-88624500D01*
X116486372Y-88616683D01*
X116457483Y-88605909D01*
X116457482Y-88605908D01*
X116397882Y-88599501D01*
X116397873Y-88599500D01*
X116397863Y-88599500D01*
X115802129Y-88599500D01*
X115802123Y-88599501D01*
X115742516Y-88605908D01*
X115646604Y-88641682D01*
X115603271Y-88649500D01*
X115329766Y-88649500D01*
X115262727Y-88629815D01*
X115260875Y-88628602D01*
X115129185Y-88540609D01*
X115129172Y-88540602D01*
X114983501Y-88480264D01*
X114983489Y-88480261D01*
X114828845Y-88449500D01*
X114828842Y-88449500D01*
X114671158Y-88449500D01*
X114671155Y-88449500D01*
X114516510Y-88480261D01*
X114516498Y-88480264D01*
X114370827Y-88540602D01*
X114370814Y-88540609D01*
X114239711Y-88628210D01*
X114239707Y-88628213D01*
X114128213Y-88739707D01*
X114128210Y-88739711D01*
X114040609Y-88870814D01*
X114040602Y-88870827D01*
X113980264Y-89016498D01*
X113980261Y-89016508D01*
X113960961Y-89113536D01*
X113951989Y-89130687D01*
X113947736Y-89149569D01*
X113936130Y-89161005D01*
X113928576Y-89175447D01*
X113911754Y-89185026D01*
X113897969Y-89198610D01*
X113870759Y-89208370D01*
X113867860Y-89210021D01*
X113864811Y-89210701D01*
X113864153Y-89210838D01*
X113766503Y-89230263D01*
X113761277Y-89232427D01*
X113749967Y-89234801D01*
X113725984Y-89232908D01*
X113702056Y-89235396D01*
X113691784Y-89230209D01*
X113680314Y-89229304D01*
X113661160Y-89214745D01*
X113639687Y-89203902D01*
X113633850Y-89193987D01*
X113624689Y-89187023D01*
X113616446Y-89164419D01*
X113604245Y-89143689D01*
X113601857Y-89124407D01*
X113600754Y-89121381D01*
X113601224Y-89119293D01*
X113600500Y-89113444D01*
X113600500Y-87397955D01*
X113620185Y-87330916D01*
X113672989Y-87285161D01*
X113700303Y-87276339D01*
X113733497Y-87269737D01*
X113879179Y-87209394D01*
X114010289Y-87121789D01*
X114121789Y-87010289D01*
X114209394Y-86879179D01*
X114269737Y-86733497D01*
X114300500Y-86578842D01*
X114300500Y-86421158D01*
X114300500Y-86421155D01*
X114300499Y-86421153D01*
X114277855Y-86307314D01*
X114269737Y-86266503D01*
X114269732Y-86266490D01*
X114268219Y-86261502D01*
X114267592Y-86191635D01*
X114304837Y-86132520D01*
X114368130Y-86102926D01*
X114386878Y-86101500D01*
X115412331Y-86101500D01*
X115412347Y-86101501D01*
X115419943Y-86101501D01*
X115578054Y-86101501D01*
X115578057Y-86101501D01*
X115730785Y-86060577D01*
X115783378Y-86030212D01*
X115867716Y-85981520D01*
X115979520Y-85869716D01*
X115979520Y-85869714D01*
X115989723Y-85859512D01*
X115989727Y-85859506D01*
X116112417Y-85736816D01*
X116173738Y-85703333D01*
X116200086Y-85700499D01*
X116812508Y-85700499D01*
X116812516Y-85700498D01*
X116812519Y-85700498D01*
X116868802Y-85694748D01*
X116915297Y-85689999D01*
X117081834Y-85634814D01*
X117175057Y-85577313D01*
X117242448Y-85558873D01*
X117303273Y-85576119D01*
X117439602Y-85656744D01*
X117451470Y-85660192D01*
X117597426Y-85702597D01*
X117597429Y-85702597D01*
X117597431Y-85702598D01*
X117634306Y-85705500D01*
X117634314Y-85705500D01*
X119365686Y-85705500D01*
X119365694Y-85705500D01*
X119402569Y-85702598D01*
X119402571Y-85702597D01*
X119402573Y-85702597D01*
X119445938Y-85689998D01*
X119560398Y-85656744D01*
X119701865Y-85573081D01*
X119818081Y-85456865D01*
X119901744Y-85315398D01*
X119947598Y-85157569D01*
X119950500Y-85120694D01*
X119950500Y-84689306D01*
X119947598Y-84652431D01*
X119945421Y-84644939D01*
X119907844Y-84515597D01*
X119901744Y-84494602D01*
X119818081Y-84353135D01*
X119818078Y-84353132D01*
X119813298Y-84346969D01*
X119815750Y-84345066D01*
X119789155Y-84296421D01*
X119794104Y-84226726D01*
X119814940Y-84194304D01*
X119813298Y-84193031D01*
X119818075Y-84186870D01*
X119818081Y-84186865D01*
X119901744Y-84045398D01*
X119947185Y-83888992D01*
X119947597Y-83887573D01*
X119947598Y-83887567D01*
X119950500Y-83850694D01*
X119950500Y-83419306D01*
X119947598Y-83382431D01*
X119946653Y-83379179D01*
X119901745Y-83224606D01*
X119901744Y-83224603D01*
X119901744Y-83224602D01*
X119818081Y-83083135D01*
X119818078Y-83083132D01*
X119813298Y-83076969D01*
X119815750Y-83075066D01*
X119789155Y-83026421D01*
X119794104Y-82956726D01*
X119814940Y-82924304D01*
X119813298Y-82923031D01*
X119818075Y-82916870D01*
X119818081Y-82916865D01*
X119901744Y-82775398D01*
X119947598Y-82617569D01*
X119950500Y-82580694D01*
X119950500Y-82149306D01*
X119947598Y-82112431D01*
X119938566Y-82081344D01*
X119913277Y-81994297D01*
X119901744Y-81954602D01*
X119818081Y-81813135D01*
X119818078Y-81813132D01*
X119813298Y-81806969D01*
X119815750Y-81805066D01*
X119789155Y-81756421D01*
X119794104Y-81686726D01*
X119814940Y-81654304D01*
X119813298Y-81653031D01*
X119818075Y-81646870D01*
X119818081Y-81646865D01*
X119901744Y-81505398D01*
X119947598Y-81347569D01*
X119950500Y-81310694D01*
X119950500Y-80879306D01*
X119947598Y-80842431D01*
X119940201Y-80816972D01*
X119901745Y-80684606D01*
X119901744Y-80684603D01*
X119901744Y-80684602D01*
X119818081Y-80543135D01*
X119818079Y-80543133D01*
X119818076Y-80543129D01*
X119701870Y-80426923D01*
X119701862Y-80426917D01*
X119597338Y-80365102D01*
X119560398Y-80343256D01*
X119560397Y-80343255D01*
X119560396Y-80343255D01*
X119560393Y-80343254D01*
X119402573Y-80297402D01*
X119402567Y-80297401D01*
X119365701Y-80294500D01*
X119365694Y-80294500D01*
X119224500Y-80294500D01*
X119157461Y-80274815D01*
X119111706Y-80222011D01*
X119100500Y-80170500D01*
X119100500Y-79800097D01*
X119120185Y-79733058D01*
X119136819Y-79712416D01*
X119712417Y-79136819D01*
X119773740Y-79103334D01*
X119800098Y-79100500D01*
X120082199Y-79100500D01*
X120149238Y-79120185D01*
X120194993Y-79172989D01*
X120199903Y-79185492D01*
X120207824Y-79209394D01*
X120227685Y-79269331D01*
X120227687Y-79269336D01*
X120231175Y-79274991D01*
X120319788Y-79418656D01*
X120443844Y-79542712D01*
X120593166Y-79634814D01*
X120759703Y-79689999D01*
X120862491Y-79700500D01*
X121487508Y-79700499D01*
X121487516Y-79700498D01*
X121487519Y-79700498D01*
X121565745Y-79692507D01*
X121590297Y-79689999D01*
X121756834Y-79634814D01*
X121906156Y-79542712D01*
X121999819Y-79449049D01*
X122061142Y-79415564D01*
X122130834Y-79420548D01*
X122175181Y-79449049D01*
X122268844Y-79542712D01*
X122418166Y-79634814D01*
X122584703Y-79689999D01*
X122687491Y-79700500D01*
X123312508Y-79700499D01*
X123312516Y-79700498D01*
X123312519Y-79700498D01*
X123390745Y-79692507D01*
X123415297Y-79689999D01*
X123581834Y-79634814D01*
X123731156Y-79542712D01*
X123855212Y-79418656D01*
X123947314Y-79269334D01*
X123975095Y-79185495D01*
X123988965Y-79165463D01*
X123999088Y-79143297D01*
X124008500Y-79137248D01*
X124014868Y-79128051D01*
X124037366Y-79118697D01*
X124057866Y-79105523D01*
X124074967Y-79103064D01*
X124079384Y-79101228D01*
X124092801Y-79100500D01*
X124199903Y-79100500D01*
X124266942Y-79120185D01*
X124287584Y-79136819D01*
X124863181Y-79712416D01*
X124896666Y-79773739D01*
X124899500Y-79800097D01*
X124899500Y-80170500D01*
X124879815Y-80237539D01*
X124827011Y-80283294D01*
X124775500Y-80294500D01*
X124634298Y-80294500D01*
X124597432Y-80297401D01*
X124597426Y-80297402D01*
X124439606Y-80343254D01*
X124439603Y-80343255D01*
X124298137Y-80426917D01*
X124298129Y-80426923D01*
X124181923Y-80543129D01*
X124181917Y-80543137D01*
X124098255Y-80684603D01*
X124098254Y-80684606D01*
X124052402Y-80842426D01*
X124052401Y-80842432D01*
X124049500Y-80879298D01*
X124049500Y-81310701D01*
X124052401Y-81347567D01*
X124052402Y-81347569D01*
X124098254Y-81505393D01*
X124098255Y-81505396D01*
X124098256Y-81505398D01*
X124123253Y-81547666D01*
X124181917Y-81646862D01*
X124186702Y-81653031D01*
X124184256Y-81654927D01*
X124210857Y-81703642D01*
X124205873Y-81773334D01*
X124185069Y-81805703D01*
X124186702Y-81806969D01*
X124181917Y-81813137D01*
X124098255Y-81954603D01*
X124098254Y-81954606D01*
X124052402Y-82112426D01*
X124052401Y-82112432D01*
X124049500Y-82149298D01*
X124049500Y-82580701D01*
X124052401Y-82617567D01*
X124052402Y-82617573D01*
X124098254Y-82775393D01*
X124098255Y-82775396D01*
X124181917Y-82916862D01*
X124186702Y-82923031D01*
X124184256Y-82924927D01*
X124210857Y-82973642D01*
X124205873Y-83043334D01*
X124185069Y-83075703D01*
X124186702Y-83076969D01*
X124181917Y-83083137D01*
X124098255Y-83224603D01*
X124098254Y-83224606D01*
X124052402Y-83382426D01*
X124052401Y-83382432D01*
X124049500Y-83419298D01*
X124049500Y-83850701D01*
X124052401Y-83887567D01*
X124052402Y-83887573D01*
X124098254Y-84045393D01*
X124098255Y-84045396D01*
X124098256Y-84045398D01*
X124112409Y-84069330D01*
X124181917Y-84186862D01*
X124186702Y-84193031D01*
X124184256Y-84194927D01*
X124210857Y-84243642D01*
X124205873Y-84313334D01*
X124185069Y-84345703D01*
X124186702Y-84346969D01*
X124181917Y-84353137D01*
X124098255Y-84494603D01*
X124098254Y-84494606D01*
X124052402Y-84652426D01*
X124052401Y-84652432D01*
X124049500Y-84689298D01*
X124049500Y-85120701D01*
X124052401Y-85157567D01*
X124052402Y-85157573D01*
X124098254Y-85315393D01*
X124098255Y-85315396D01*
X124098256Y-85315398D01*
X124111277Y-85337416D01*
X124181917Y-85456862D01*
X124181923Y-85456870D01*
X124298129Y-85573076D01*
X124298133Y-85573079D01*
X124298135Y-85573081D01*
X124439602Y-85656744D01*
X124451470Y-85660192D01*
X124597426Y-85702597D01*
X124597429Y-85702597D01*
X124597431Y-85702598D01*
X124634306Y-85705500D01*
X124634314Y-85705500D01*
X126365686Y-85705500D01*
X126365694Y-85705500D01*
X126402569Y-85702598D01*
X126402571Y-85702597D01*
X126402573Y-85702597D01*
X126445938Y-85689998D01*
X126560398Y-85656744D01*
X126655081Y-85600748D01*
X126722804Y-85583566D01*
X126789066Y-85605726D01*
X126832830Y-85660192D01*
X126835907Y-85668476D01*
X126858553Y-85736818D01*
X126865186Y-85756833D01*
X126865187Y-85756836D01*
X126880110Y-85781030D01*
X126940051Y-85878211D01*
X126957289Y-85906157D01*
X127050951Y-85999819D01*
X127084436Y-86061142D01*
X127079452Y-86130834D01*
X127050951Y-86175181D01*
X126957289Y-86268842D01*
X126865187Y-86418163D01*
X126865185Y-86418168D01*
X126849205Y-86466392D01*
X126810001Y-86584703D01*
X126810001Y-86584704D01*
X126810000Y-86584704D01*
X126799500Y-86687483D01*
X126799500Y-87312501D01*
X126799501Y-87312519D01*
X126810000Y-87415296D01*
X126810001Y-87415299D01*
X126844524Y-87519480D01*
X126865186Y-87581834D01*
X126957288Y-87731156D01*
X127081344Y-87855212D01*
X127230666Y-87947314D01*
X127397203Y-88002499D01*
X127499991Y-88013000D01*
X128500008Y-88012999D01*
X128500016Y-88012998D01*
X128500019Y-88012998D01*
X128556302Y-88007248D01*
X128602797Y-88002499D01*
X128769334Y-87947314D01*
X128918656Y-87855212D01*
X129042712Y-87731156D01*
X129086970Y-87659402D01*
X129138917Y-87612679D01*
X129192508Y-87600500D01*
X130307492Y-87600500D01*
X130374531Y-87620185D01*
X130413029Y-87659401D01*
X130457288Y-87731156D01*
X130581344Y-87855212D01*
X130730666Y-87947314D01*
X130897203Y-88002499D01*
X130999991Y-88013000D01*
X132000008Y-88012999D01*
X132000016Y-88012998D01*
X132000019Y-88012998D01*
X132056302Y-88007248D01*
X132102797Y-88002499D01*
X132269334Y-87947314D01*
X132418656Y-87855212D01*
X132542712Y-87731156D01*
X132586970Y-87659402D01*
X132638917Y-87612679D01*
X132692508Y-87600500D01*
X133807492Y-87600500D01*
X133874531Y-87620185D01*
X133913029Y-87659401D01*
X133957288Y-87731156D01*
X134081344Y-87855212D01*
X134230666Y-87947314D01*
X134397203Y-88002499D01*
X134499991Y-88013000D01*
X135500008Y-88012999D01*
X135500016Y-88012998D01*
X135500019Y-88012998D01*
X135556302Y-88007248D01*
X135602797Y-88002499D01*
X135769334Y-87947314D01*
X135918656Y-87855212D01*
X136042712Y-87731156D01*
X136086970Y-87659402D01*
X136138917Y-87612679D01*
X136192508Y-87600500D01*
X137307492Y-87600500D01*
X137374531Y-87620185D01*
X137413029Y-87659401D01*
X137457288Y-87731156D01*
X137581344Y-87855212D01*
X137730666Y-87947314D01*
X137897203Y-88002499D01*
X137999991Y-88013000D01*
X139000008Y-88012999D01*
X139000016Y-88012998D01*
X139000019Y-88012998D01*
X139056302Y-88007248D01*
X139102797Y-88002499D01*
X139269334Y-87947314D01*
X139418656Y-87855212D01*
X139542712Y-87731156D01*
X139586970Y-87659402D01*
X139638917Y-87612679D01*
X139692508Y-87600500D01*
X140743942Y-87600500D01*
X140810981Y-87620185D01*
X140849479Y-87659401D01*
X140932288Y-87793656D01*
X141056344Y-87917712D01*
X141205666Y-88009814D01*
X141372203Y-88064999D01*
X141474991Y-88075500D01*
X142525008Y-88075499D01*
X142525016Y-88075498D01*
X142525019Y-88075498D01*
X142581302Y-88069748D01*
X142627797Y-88064999D01*
X142794334Y-88009814D01*
X142943656Y-87917712D01*
X143067712Y-87793656D01*
X143150519Y-87659402D01*
X143202467Y-87612679D01*
X143256058Y-87600500D01*
X144307492Y-87600500D01*
X144374531Y-87620185D01*
X144413029Y-87659401D01*
X144457288Y-87731156D01*
X144581344Y-87855212D01*
X144730666Y-87947314D01*
X144897203Y-88002499D01*
X144999991Y-88013000D01*
X146000008Y-88012999D01*
X146000016Y-88012998D01*
X146000019Y-88012998D01*
X146056302Y-88007248D01*
X146102797Y-88002499D01*
X146269334Y-87947314D01*
X146418656Y-87855212D01*
X146418664Y-87855203D01*
X146423085Y-87851709D01*
X146487879Y-87825566D01*
X146556522Y-87838603D01*
X146576915Y-87851709D01*
X146581339Y-87855207D01*
X146581344Y-87855212D01*
X146730666Y-87947314D01*
X146897203Y-88002499D01*
X146999991Y-88013000D01*
X148000008Y-88012999D01*
X148000016Y-88012998D01*
X148000019Y-88012998D01*
X148056302Y-88007248D01*
X148102797Y-88002499D01*
X148269334Y-87947314D01*
X148389218Y-87873369D01*
X148456607Y-87854930D01*
X148523271Y-87875852D01*
X148541993Y-87891228D01*
X149697985Y-89047220D01*
X149731470Y-89108543D01*
X149728237Y-89173214D01*
X149721768Y-89193123D01*
X149689500Y-89396861D01*
X149689500Y-89603138D01*
X149721769Y-89806877D01*
X149721769Y-89806880D01*
X149785510Y-90003054D01*
X149859441Y-90148151D01*
X149879160Y-90186852D01*
X150000407Y-90353733D01*
X150146267Y-90499593D01*
X150313148Y-90620840D01*
X150454148Y-90692683D01*
X150496945Y-90714489D01*
X150693120Y-90778230D01*
X150693121Y-90778230D01*
X150693124Y-90778231D01*
X150896861Y-90810500D01*
X150896862Y-90810500D01*
X151103138Y-90810500D01*
X151103139Y-90810500D01*
X151306876Y-90778231D01*
X151306879Y-90778230D01*
X151306880Y-90778230D01*
X151503054Y-90714489D01*
X151503054Y-90714488D01*
X151503057Y-90714488D01*
X151686852Y-90620840D01*
X151853733Y-90499593D01*
X151999593Y-90353733D01*
X152120840Y-90186852D01*
X152214488Y-90003057D01*
X152215481Y-90000000D01*
X152278230Y-89806880D01*
X152278230Y-89806879D01*
X152278231Y-89806876D01*
X152310500Y-89603139D01*
X152310500Y-89396861D01*
X152278231Y-89193124D01*
X152278230Y-89193120D01*
X152278230Y-89193119D01*
X152214489Y-88996945D01*
X152150229Y-88870827D01*
X152120840Y-88813148D01*
X151999593Y-88646267D01*
X151853733Y-88500407D01*
X151686852Y-88379160D01*
X151553993Y-88311465D01*
X151503054Y-88285510D01*
X151306879Y-88221769D01*
X151154073Y-88197567D01*
X151103139Y-88189500D01*
X150896861Y-88189500D01*
X150872355Y-88193381D01*
X150693123Y-88221768D01*
X150673214Y-88228237D01*
X150603373Y-88230229D01*
X150547220Y-88197985D01*
X148987590Y-86638355D01*
X148987588Y-86638352D01*
X148868717Y-86519481D01*
X148868716Y-86519480D01*
X148769283Y-86462073D01*
X148731785Y-86440423D01*
X148672450Y-86424523D01*
X148665526Y-86421743D01*
X148643707Y-86404546D01*
X148619982Y-86390085D01*
X148612140Y-86379666D01*
X148610651Y-86378493D01*
X148610138Y-86377007D01*
X148606198Y-86371772D01*
X148542712Y-86268844D01*
X148449049Y-86175181D01*
X148447531Y-86172402D01*
X148444831Y-86170750D01*
X148430896Y-86141936D01*
X148415564Y-86113858D01*
X148415789Y-86110700D01*
X148414411Y-86107850D01*
X148418265Y-86076083D01*
X148420548Y-86044166D01*
X148422560Y-86040687D01*
X148422827Y-86038489D01*
X148429673Y-86028391D01*
X148441249Y-86008384D01*
X148444947Y-86003920D01*
X148542712Y-85906156D01*
X148591508Y-85827043D01*
X148597027Y-85820384D01*
X148619111Y-85805492D01*
X148638917Y-85787679D01*
X148648892Y-85785412D01*
X148654958Y-85781322D01*
X148668172Y-85781030D01*
X148692508Y-85775500D01*
X150420234Y-85775500D01*
X150487273Y-85795185D01*
X150489125Y-85796398D01*
X150620814Y-85884390D01*
X150620827Y-85884397D01*
X150740842Y-85934108D01*
X150766503Y-85944737D01*
X150921153Y-85975499D01*
X150921156Y-85975500D01*
X150921158Y-85975500D01*
X151078844Y-85975500D01*
X151078845Y-85975499D01*
X151233497Y-85944737D01*
X151379179Y-85884394D01*
X151416434Y-85859501D01*
X151510875Y-85796398D01*
X151577553Y-85775520D01*
X151579766Y-85775500D01*
X151838331Y-85775500D01*
X151838347Y-85775501D01*
X151845943Y-85775501D01*
X152004054Y-85775501D01*
X152004057Y-85775501D01*
X152156785Y-85734577D01*
X152212174Y-85702598D01*
X152293716Y-85655520D01*
X152405520Y-85543716D01*
X152405520Y-85543714D01*
X152415724Y-85533511D01*
X152415728Y-85533506D01*
X153189138Y-84760095D01*
X153250459Y-84726612D01*
X153289421Y-84724420D01*
X153299991Y-84725500D01*
X153900008Y-84725499D01*
X153900016Y-84725498D01*
X153900019Y-84725498D01*
X153956302Y-84719748D01*
X154002797Y-84714999D01*
X154169334Y-84659814D01*
X154318656Y-84567712D01*
X154442712Y-84443656D01*
X154444461Y-84440819D01*
X154446169Y-84439283D01*
X154447193Y-84437989D01*
X154447414Y-84438163D01*
X154496406Y-84394096D01*
X154565368Y-84382872D01*
X154629451Y-84410713D01*
X154655537Y-84440817D01*
X154657288Y-84443656D01*
X154781344Y-84567712D01*
X154930666Y-84659814D01*
X155097203Y-84714999D01*
X155199991Y-84725500D01*
X155800008Y-84725499D01*
X155800016Y-84725498D01*
X155800019Y-84725498D01*
X155856302Y-84719748D01*
X155902797Y-84714999D01*
X156069334Y-84659814D01*
X156218656Y-84567712D01*
X156298819Y-84487549D01*
X156360142Y-84454064D01*
X156429834Y-84459048D01*
X156485767Y-84500920D01*
X156510184Y-84566384D01*
X156510500Y-84575230D01*
X156510500Y-86517710D01*
X156490815Y-86584749D01*
X156474181Y-86605391D01*
X153019481Y-90060090D01*
X153019479Y-90060092D01*
X153000887Y-90092296D01*
X152993028Y-90105909D01*
X152940423Y-90197023D01*
X152899499Y-90349751D01*
X152899499Y-90349753D01*
X152899499Y-90517854D01*
X152899500Y-90517867D01*
X152899500Y-90759173D01*
X152879815Y-90826212D01*
X152831799Y-90869656D01*
X152813148Y-90879159D01*
X152646265Y-91000408D01*
X152500408Y-91146265D01*
X152379160Y-91313147D01*
X152285510Y-91496945D01*
X152221769Y-91693119D01*
X152221769Y-91693122D01*
X152189500Y-91896861D01*
X152189500Y-92103138D01*
X152221769Y-92306877D01*
X152221769Y-92306880D01*
X152285510Y-92503054D01*
X152346007Y-92621786D01*
X152379160Y-92686852D01*
X152500407Y-92853733D01*
X152646267Y-92999593D01*
X152813148Y-93120840D01*
X152964332Y-93197872D01*
X152996945Y-93214489D01*
X153193120Y-93278230D01*
X153193121Y-93278230D01*
X153193124Y-93278231D01*
X153396861Y-93310500D01*
X153396862Y-93310500D01*
X153603138Y-93310500D01*
X153603139Y-93310500D01*
X153806876Y-93278231D01*
X153806879Y-93278230D01*
X153806880Y-93278230D01*
X154003054Y-93214489D01*
X154003054Y-93214488D01*
X154003057Y-93214488D01*
X154186852Y-93120840D01*
X154353733Y-92999593D01*
X154499593Y-92853733D01*
X154620840Y-92686852D01*
X154714488Y-92503057D01*
X154715481Y-92500000D01*
X154778230Y-92306880D01*
X154778230Y-92306879D01*
X154778231Y-92306876D01*
X154810500Y-92103139D01*
X154810500Y-91896861D01*
X154778231Y-91693124D01*
X154778230Y-91693120D01*
X154778230Y-91693119D01*
X154714489Y-91496945D01*
X154699956Y-91468422D01*
X154620840Y-91313148D01*
X154499593Y-91146267D01*
X154353733Y-91000407D01*
X154186852Y-90879160D01*
X154186853Y-90879160D01*
X154186851Y-90879159D01*
X154168201Y-90869656D01*
X154157138Y-90859207D01*
X154143297Y-90852886D01*
X154132255Y-90835704D01*
X154117407Y-90821680D01*
X154113166Y-90806001D01*
X154105523Y-90794108D01*
X154100500Y-90759173D01*
X154100500Y-90728904D01*
X154120185Y-90661865D01*
X154136815Y-90641227D01*
X154661277Y-90116764D01*
X154722598Y-90083281D01*
X154792289Y-90088265D01*
X154848223Y-90130136D01*
X154859440Y-90148151D01*
X154879158Y-90186849D01*
X154879160Y-90186852D01*
X155000407Y-90353733D01*
X155146267Y-90499593D01*
X155313148Y-90620840D01*
X155454148Y-90692683D01*
X155496945Y-90714489D01*
X155693120Y-90778230D01*
X155693121Y-90778230D01*
X155693124Y-90778231D01*
X155896861Y-90810500D01*
X155896862Y-90810500D01*
X156103138Y-90810500D01*
X156103139Y-90810500D01*
X156306876Y-90778231D01*
X156306879Y-90778230D01*
X156306880Y-90778230D01*
X156503054Y-90714489D01*
X156503054Y-90714488D01*
X156503057Y-90714488D01*
X156686852Y-90620840D01*
X156853733Y-90499593D01*
X156999593Y-90353733D01*
X157120840Y-90186852D01*
X157214488Y-90003057D01*
X157215481Y-90000000D01*
X157278230Y-89806880D01*
X157278230Y-89806879D01*
X157278231Y-89806876D01*
X157310500Y-89603139D01*
X157310500Y-89396861D01*
X157278231Y-89193124D01*
X157278230Y-89193120D01*
X157278230Y-89193119D01*
X157214489Y-88996945D01*
X157150229Y-88870827D01*
X157120840Y-88813148D01*
X156999593Y-88646267D01*
X156853733Y-88500407D01*
X156686852Y-88379160D01*
X156686851Y-88379159D01*
X156686849Y-88379158D01*
X156648151Y-88359440D01*
X156597356Y-88311465D01*
X156580561Y-88243644D01*
X156603099Y-88177510D01*
X156616760Y-88161281D01*
X157469506Y-87308536D01*
X157469511Y-87308532D01*
X157479714Y-87298328D01*
X157479716Y-87298328D01*
X157591520Y-87186524D01*
X157655062Y-87076465D01*
X157670577Y-87049593D01*
X157711500Y-86896865D01*
X157711500Y-86738751D01*
X157711500Y-76787559D01*
X157711501Y-76787546D01*
X157711501Y-76619445D01*
X157711501Y-76619443D01*
X157670577Y-76466715D01*
X157631770Y-76399500D01*
X157603187Y-76349992D01*
X157591521Y-76329785D01*
X157475385Y-76213649D01*
X157475374Y-76213639D01*
X156961818Y-75700083D01*
X156928333Y-75638760D01*
X156925499Y-75612402D01*
X156925499Y-74999998D01*
X156925498Y-74999981D01*
X156914999Y-74897203D01*
X156914998Y-74897200D01*
X156888343Y-74816761D01*
X156859814Y-74730666D01*
X156767712Y-74581344D01*
X156643656Y-74457288D01*
X156494334Y-74365186D01*
X156367605Y-74323192D01*
X156310160Y-74283419D01*
X156283337Y-74218903D01*
X156295652Y-74150127D01*
X156318925Y-74117808D01*
X156637604Y-73799129D01*
X156698925Y-73765646D01*
X156761286Y-73768154D01*
X156766498Y-73769735D01*
X156766503Y-73769737D01*
X156766507Y-73769737D01*
X156766508Y-73769738D01*
X156921153Y-73800499D01*
X156921156Y-73800500D01*
X156921158Y-73800500D01*
X157078844Y-73800500D01*
X157078845Y-73800499D01*
X157233497Y-73769737D01*
X157379179Y-73709394D01*
X157510289Y-73621789D01*
X157621789Y-73510289D01*
X157709394Y-73379179D01*
X157732263Y-73323967D01*
X157776101Y-73269566D01*
X157842395Y-73247500D01*
X157910094Y-73264778D01*
G37*
%TD.AperFunction*%
%TA.AperFunction,NonConductor*%
G36*
X130475926Y-94126514D02*
G01*
X130479143Y-94125815D01*
X130513630Y-94133317D01*
X130542517Y-94144091D01*
X130602127Y-94150500D01*
X131197872Y-94150499D01*
X131257483Y-94144091D01*
X131272326Y-94138554D01*
X131342015Y-94133569D01*
X131403339Y-94167052D01*
X131436826Y-94228375D01*
X131435435Y-94286829D01*
X131399499Y-94420943D01*
X131399499Y-94589046D01*
X131399500Y-94589059D01*
X131399500Y-95199902D01*
X131379815Y-95266941D01*
X131363181Y-95287583D01*
X130787584Y-95863181D01*
X130726261Y-95896666D01*
X130699903Y-95899500D01*
X130300097Y-95899500D01*
X130233058Y-95879815D01*
X130212416Y-95863181D01*
X129736819Y-95387584D01*
X129703334Y-95326261D01*
X129700500Y-95299903D01*
X129700500Y-94249499D01*
X129720185Y-94182460D01*
X129772989Y-94136705D01*
X129824500Y-94125499D01*
X130470297Y-94125499D01*
X130475926Y-94126514D01*
G37*
%TD.AperFunction*%
%TA.AperFunction,NonConductor*%
G36*
X126863182Y-93902421D02*
G01*
X126896666Y-93963745D01*
X126899500Y-93990102D01*
X126899500Y-94312330D01*
X126899499Y-94312348D01*
X126899499Y-94478054D01*
X126899498Y-94478054D01*
X126940423Y-94630785D01*
X126969358Y-94680900D01*
X126969359Y-94680904D01*
X126969360Y-94680904D01*
X127019479Y-94767714D01*
X127019481Y-94767717D01*
X127138349Y-94886585D01*
X127138355Y-94886590D01*
X127665425Y-95413660D01*
X127698910Y-95474983D01*
X127699361Y-95477149D01*
X127730261Y-95632491D01*
X127730264Y-95632501D01*
X127769841Y-95728048D01*
X127777310Y-95797517D01*
X127746035Y-95859996D01*
X127685946Y-95895648D01*
X127655280Y-95899500D01*
X124300098Y-95899500D01*
X124270657Y-95890855D01*
X124240671Y-95884332D01*
X124235655Y-95880577D01*
X124233059Y-95879815D01*
X124212417Y-95863181D01*
X124136819Y-95787583D01*
X124103334Y-95726260D01*
X124100500Y-95699902D01*
X124100500Y-94800096D01*
X124120185Y-94733057D01*
X124136815Y-94712419D01*
X124568713Y-94280521D01*
X124568716Y-94280520D01*
X124680520Y-94168716D01*
X124680520Y-94168715D01*
X124686268Y-94162968D01*
X124688512Y-94165212D01*
X124732872Y-94132814D01*
X124774832Y-94125499D01*
X125570297Y-94125499D01*
X125613630Y-94133317D01*
X125642517Y-94144091D01*
X125702127Y-94150500D01*
X126297872Y-94150499D01*
X126357483Y-94144091D01*
X126492331Y-94093796D01*
X126607546Y-94007546D01*
X126676234Y-93915789D01*
X126732167Y-93873920D01*
X126801859Y-93868936D01*
X126863182Y-93902421D01*
G37*
%TD.AperFunction*%
%TA.AperFunction,NonConductor*%
G36*
X123394688Y-93120185D02*
G01*
X123440443Y-93172989D01*
X123450939Y-93211251D01*
X123453679Y-93236748D01*
X123453679Y-93263250D01*
X123449500Y-93302122D01*
X123449500Y-93649901D01*
X123429815Y-93716940D01*
X123413181Y-93737582D01*
X123134194Y-94016569D01*
X123134186Y-94016577D01*
X123131286Y-94019478D01*
X123131284Y-94019480D01*
X123019480Y-94131284D01*
X122997869Y-94168716D01*
X122991794Y-94179236D01*
X122991792Y-94179240D01*
X122950996Y-94249902D01*
X122940423Y-94268215D01*
X122899499Y-94420943D01*
X122899499Y-94420944D01*
X122899499Y-94420945D01*
X122899499Y-94589046D01*
X122899500Y-94589059D01*
X122899500Y-95775500D01*
X122879815Y-95842539D01*
X122827011Y-95888294D01*
X122775500Y-95899500D01*
X121800098Y-95899500D01*
X121770657Y-95890855D01*
X121740671Y-95884332D01*
X121735655Y-95880577D01*
X121733059Y-95879815D01*
X121712417Y-95863181D01*
X121636819Y-95787583D01*
X121603334Y-95726260D01*
X121600500Y-95699902D01*
X121600500Y-94589060D01*
X121600501Y-94589047D01*
X121600501Y-94420944D01*
X121600501Y-94420943D01*
X121599283Y-94416397D01*
X121600942Y-94346550D01*
X121640101Y-94288685D01*
X121704328Y-94261178D01*
X121760394Y-94268898D01*
X121760676Y-94267969D01*
X121766492Y-94269732D01*
X121766503Y-94269737D01*
X121921153Y-94300499D01*
X121921156Y-94300500D01*
X121921158Y-94300500D01*
X122078844Y-94300500D01*
X122078845Y-94300499D01*
X122233497Y-94269737D01*
X122379179Y-94209394D01*
X122510289Y-94121789D01*
X122621789Y-94010289D01*
X122709394Y-93879179D01*
X122713728Y-93868717D01*
X122723067Y-93846166D01*
X122769737Y-93733497D01*
X122796192Y-93600500D01*
X122800638Y-93578150D01*
X122833023Y-93516239D01*
X122834514Y-93514720D01*
X123212417Y-93136819D01*
X123239344Y-93122115D01*
X123265163Y-93105523D01*
X123271363Y-93104631D01*
X123273740Y-93103334D01*
X123300098Y-93100500D01*
X123327649Y-93100500D01*
X123394688Y-93120185D01*
G37*
%TD.AperFunction*%
%TA.AperFunction,NonConductor*%
G36*
X115294688Y-90870185D02*
G01*
X115340443Y-90922989D01*
X115350939Y-90961248D01*
X115355908Y-91007483D01*
X115406202Y-91142328D01*
X115406206Y-91142335D01*
X115447414Y-91197381D01*
X115492454Y-91257546D01*
X115492552Y-91257619D01*
X115492669Y-91257761D01*
X115498725Y-91263817D01*
X115498145Y-91264396D01*
X115529789Y-91302734D01*
X115534953Y-91313373D01*
X115540423Y-91333785D01*
X115566073Y-91378211D01*
X115580634Y-91403431D01*
X115619479Y-91470714D01*
X115619481Y-91470717D01*
X115738349Y-91589585D01*
X115738354Y-91589589D01*
X116629284Y-92480520D01*
X116629286Y-92480521D01*
X116629290Y-92480524D01*
X116747499Y-92548771D01*
X116766216Y-92559577D01*
X116918943Y-92600501D01*
X116918945Y-92600501D01*
X117084654Y-92600501D01*
X117084670Y-92600500D01*
X119275500Y-92600500D01*
X119342539Y-92620185D01*
X119388294Y-92672989D01*
X119399500Y-92724500D01*
X119399500Y-93413330D01*
X119399499Y-93413348D01*
X119399499Y-93579054D01*
X119399498Y-93579054D01*
X119399499Y-93579057D01*
X119440423Y-93731785D01*
X119441414Y-93733501D01*
X119455259Y-93757483D01*
X119455260Y-93757484D01*
X119519475Y-93868709D01*
X119519481Y-93868717D01*
X119638349Y-93987585D01*
X119638355Y-93987590D01*
X120363181Y-94712416D01*
X120396666Y-94773739D01*
X120399500Y-94800097D01*
X120399500Y-95775500D01*
X120379815Y-95842539D01*
X120327011Y-95888294D01*
X120275500Y-95899500D01*
X115800097Y-95899500D01*
X115733058Y-95879815D01*
X115712416Y-95863181D01*
X113636819Y-93787584D01*
X113603334Y-93726261D01*
X113600500Y-93699903D01*
X113600500Y-92886555D01*
X113620185Y-92819516D01*
X113672989Y-92773761D01*
X113742147Y-92763817D01*
X113760411Y-92768840D01*
X113760676Y-92767969D01*
X113766492Y-92769732D01*
X113766503Y-92769737D01*
X113871418Y-92790606D01*
X113921153Y-92800499D01*
X113921156Y-92800500D01*
X113921158Y-92800500D01*
X114078844Y-92800500D01*
X114078845Y-92800499D01*
X114233497Y-92769737D01*
X114379179Y-92709394D01*
X114510289Y-92621789D01*
X114621789Y-92510289D01*
X114709394Y-92379179D01*
X114769737Y-92233497D01*
X114800500Y-92078842D01*
X114800500Y-91921158D01*
X114800500Y-91921155D01*
X114800499Y-91921153D01*
X114792417Y-91880521D01*
X114769737Y-91766503D01*
X114739341Y-91693119D01*
X114709397Y-91620827D01*
X114709390Y-91620814D01*
X114621398Y-91489125D01*
X114600520Y-91422447D01*
X114600500Y-91420234D01*
X114600500Y-90974500D01*
X114620185Y-90907461D01*
X114672989Y-90861706D01*
X114724500Y-90850500D01*
X115227649Y-90850500D01*
X115294688Y-90870185D01*
G37*
%TD.AperFunction*%
M02*
