M48
; DRILL file {KiCad 9.0.4} date 2025-09-27T14:14:05+0530
; FORMAT={-:-/ absolute / metric / decimal}
; #@! TF.CreationDate,2025-09-27T14:14:05+05:30
; #@! TF.GenerationSoftware,Kicad,Pcbnew,9.0.4
; #@! TF.FileFunction,Plated,1,2,PTH
FMAT,2
METRIC
; #@! TA.AperFunction,Plated,PTH,ViaDrill
T1C0.300
; #@! TA.AperFunction,Plated,PTH,ComponentDrill
T2C0.900
; #@! TA.AperFunction,Plated,PTH,ComponentDrill
T3C0.950
%
G90
G05
T1
X113.5Y-83.5
X113.5Y-86.5
X114.0Y-90.0
X114.0Y-92.0
X114.75Y-89.25
X119.0Y-90.0
X119.0Y-91.0
X122.0Y-92.0
X122.0Y-93.5
X127.5Y-92.0
X127.5Y-93.0
X128.5Y-95.399
X129.0Y-83.0
X130.0Y-78.5
X132.0Y-92.5
X132.0Y-93.5
X132.5Y-91.5
X133.5Y-81.0
X134.5Y-75.0
X135.5Y-73.5
X136.5Y-76.5
X137.0Y-84.5
X138.0Y-81.5
X145.0Y-76.5
X148.5Y-78.5
X150.0Y-73.5
X151.0Y-85.175
X154.0Y-80.0
X155.5Y-77.0
X157.0Y-73.0
T2
X151.0Y-89.5
X153.5Y-92.0
X156.0Y-89.5
T3
X111.5Y-81.0
X111.5Y-83.5
X111.5Y-86.0
X160.0Y-77.0
X160.0Y-79.5
X160.0Y-82.0
M30
