%TF.GenerationSoftware,KiCad,Pcbnew,9.0.4*%
%TF.CreationDate,2025-09-27T14:14:02+05:30*%
%TF.ProjectId,EEG,4545472e-6b69-4636-9164-5f7063625858,rev?*%
%TF.SameCoordinates,Original*%
%TF.FileFunction,Legend,Top*%
%TF.FilePolarity,Positive*%
%FSLAX46Y46*%
G04 Gerber Fmt 4.6, Leading zero omitted, Abs format (unit mm)*
G04 Created by KiCad (PCBNEW 9.0.4) date 2025-09-27 14:14:02*
%MOMM*%
%LPD*%
G01*
G04 APERTURE LIST*
%ADD10C,0.125000*%
%ADD11C,0.150000*%
%ADD12C,0.120000*%
G04 APERTURE END LIST*
D10*
X148551357Y-87325594D02*
X148503738Y-87277975D01*
X148503738Y-87277975D02*
X148456119Y-87182737D01*
X148456119Y-87182737D02*
X148456119Y-86944642D01*
X148456119Y-86944642D02*
X148503738Y-86849404D01*
X148503738Y-86849404D02*
X148551357Y-86801785D01*
X148551357Y-86801785D02*
X148646595Y-86754166D01*
X148646595Y-86754166D02*
X148741833Y-86754166D01*
X148741833Y-86754166D02*
X148884690Y-86801785D01*
X148884690Y-86801785D02*
X149456119Y-87373213D01*
X149456119Y-87373213D02*
X149456119Y-86754166D01*
X148551357Y-86373213D02*
X148503738Y-86325594D01*
X148503738Y-86325594D02*
X148456119Y-86230356D01*
X148456119Y-86230356D02*
X148456119Y-85992261D01*
X148456119Y-85992261D02*
X148503738Y-85897023D01*
X148503738Y-85897023D02*
X148551357Y-85849404D01*
X148551357Y-85849404D02*
X148646595Y-85801785D01*
X148646595Y-85801785D02*
X148741833Y-85801785D01*
X148741833Y-85801785D02*
X148884690Y-85849404D01*
X148884690Y-85849404D02*
X149456119Y-86420832D01*
X149456119Y-86420832D02*
X149456119Y-85801785D01*
X148456119Y-85182737D02*
X148456119Y-85087499D01*
X148456119Y-85087499D02*
X148503738Y-84992261D01*
X148503738Y-84992261D02*
X148551357Y-84944642D01*
X148551357Y-84944642D02*
X148646595Y-84897023D01*
X148646595Y-84897023D02*
X148837071Y-84849404D01*
X148837071Y-84849404D02*
X149075166Y-84849404D01*
X149075166Y-84849404D02*
X149265642Y-84897023D01*
X149265642Y-84897023D02*
X149360880Y-84944642D01*
X149360880Y-84944642D02*
X149408500Y-84992261D01*
X149408500Y-84992261D02*
X149456119Y-85087499D01*
X149456119Y-85087499D02*
X149456119Y-85182737D01*
X149456119Y-85182737D02*
X149408500Y-85277975D01*
X149408500Y-85277975D02*
X149360880Y-85325594D01*
X149360880Y-85325594D02*
X149265642Y-85373213D01*
X149265642Y-85373213D02*
X149075166Y-85420832D01*
X149075166Y-85420832D02*
X148837071Y-85420832D01*
X148837071Y-85420832D02*
X148646595Y-85373213D01*
X148646595Y-85373213D02*
X148551357Y-85325594D01*
X148551357Y-85325594D02*
X148503738Y-85277975D01*
X148503738Y-85277975D02*
X148456119Y-85182737D01*
D11*
X140774819Y-87672619D02*
X140774819Y-88244047D01*
X140774819Y-87958333D02*
X139774819Y-87958333D01*
X139774819Y-87958333D02*
X139917676Y-88053571D01*
X139917676Y-88053571D02*
X140012914Y-88148809D01*
X140012914Y-88148809D02*
X140060533Y-88244047D01*
X139774819Y-87053571D02*
X139774819Y-86958333D01*
X139774819Y-86958333D02*
X139822438Y-86863095D01*
X139822438Y-86863095D02*
X139870057Y-86815476D01*
X139870057Y-86815476D02*
X139965295Y-86767857D01*
X139965295Y-86767857D02*
X140155771Y-86720238D01*
X140155771Y-86720238D02*
X140393866Y-86720238D01*
X140393866Y-86720238D02*
X140584342Y-86767857D01*
X140584342Y-86767857D02*
X140679580Y-86815476D01*
X140679580Y-86815476D02*
X140727200Y-86863095D01*
X140727200Y-86863095D02*
X140774819Y-86958333D01*
X140774819Y-86958333D02*
X140774819Y-87053571D01*
X140774819Y-87053571D02*
X140727200Y-87148809D01*
X140727200Y-87148809D02*
X140679580Y-87196428D01*
X140679580Y-87196428D02*
X140584342Y-87244047D01*
X140584342Y-87244047D02*
X140393866Y-87291666D01*
X140393866Y-87291666D02*
X140155771Y-87291666D01*
X140155771Y-87291666D02*
X139965295Y-87244047D01*
X139965295Y-87244047D02*
X139870057Y-87196428D01*
X139870057Y-87196428D02*
X139822438Y-87148809D01*
X139822438Y-87148809D02*
X139774819Y-87053571D01*
X139774819Y-86101190D02*
X139774819Y-86005952D01*
X139774819Y-86005952D02*
X139822438Y-85910714D01*
X139822438Y-85910714D02*
X139870057Y-85863095D01*
X139870057Y-85863095D02*
X139965295Y-85815476D01*
X139965295Y-85815476D02*
X140155771Y-85767857D01*
X140155771Y-85767857D02*
X140393866Y-85767857D01*
X140393866Y-85767857D02*
X140584342Y-85815476D01*
X140584342Y-85815476D02*
X140679580Y-85863095D01*
X140679580Y-85863095D02*
X140727200Y-85910714D01*
X140727200Y-85910714D02*
X140774819Y-86005952D01*
X140774819Y-86005952D02*
X140774819Y-86101190D01*
X140774819Y-86101190D02*
X140727200Y-86196428D01*
X140727200Y-86196428D02*
X140679580Y-86244047D01*
X140679580Y-86244047D02*
X140584342Y-86291666D01*
X140584342Y-86291666D02*
X140393866Y-86339285D01*
X140393866Y-86339285D02*
X140155771Y-86339285D01*
X140155771Y-86339285D02*
X139965295Y-86291666D01*
X139965295Y-86291666D02*
X139870057Y-86244047D01*
X139870057Y-86244047D02*
X139822438Y-86196428D01*
X139822438Y-86196428D02*
X139774819Y-86101190D01*
X140108152Y-85339285D02*
X140774819Y-85339285D01*
X140203390Y-85339285D02*
X140155771Y-85291666D01*
X140155771Y-85291666D02*
X140108152Y-85196428D01*
X140108152Y-85196428D02*
X140108152Y-85053571D01*
X140108152Y-85053571D02*
X140155771Y-84958333D01*
X140155771Y-84958333D02*
X140251009Y-84910714D01*
X140251009Y-84910714D02*
X140774819Y-84910714D01*
X140251009Y-84101190D02*
X140251009Y-84434523D01*
X140774819Y-84434523D02*
X139774819Y-84434523D01*
X139774819Y-84434523D02*
X139774819Y-83958333D01*
X150113571Y-74304819D02*
X149542143Y-74304819D01*
X149827857Y-74304819D02*
X149827857Y-73304819D01*
X149827857Y-73304819D02*
X149732619Y-73447676D01*
X149732619Y-73447676D02*
X149637381Y-73542914D01*
X149637381Y-73542914D02*
X149542143Y-73590533D01*
X150732619Y-73304819D02*
X150827857Y-73304819D01*
X150827857Y-73304819D02*
X150923095Y-73352438D01*
X150923095Y-73352438D02*
X150970714Y-73400057D01*
X150970714Y-73400057D02*
X151018333Y-73495295D01*
X151018333Y-73495295D02*
X151065952Y-73685771D01*
X151065952Y-73685771D02*
X151065952Y-73923866D01*
X151065952Y-73923866D02*
X151018333Y-74114342D01*
X151018333Y-74114342D02*
X150970714Y-74209580D01*
X150970714Y-74209580D02*
X150923095Y-74257200D01*
X150923095Y-74257200D02*
X150827857Y-74304819D01*
X150827857Y-74304819D02*
X150732619Y-74304819D01*
X150732619Y-74304819D02*
X150637381Y-74257200D01*
X150637381Y-74257200D02*
X150589762Y-74209580D01*
X150589762Y-74209580D02*
X150542143Y-74114342D01*
X150542143Y-74114342D02*
X150494524Y-73923866D01*
X150494524Y-73923866D02*
X150494524Y-73685771D01*
X150494524Y-73685771D02*
X150542143Y-73495295D01*
X150542143Y-73495295D02*
X150589762Y-73400057D01*
X150589762Y-73400057D02*
X150637381Y-73352438D01*
X150637381Y-73352438D02*
X150732619Y-73304819D01*
X151685000Y-73304819D02*
X151780238Y-73304819D01*
X151780238Y-73304819D02*
X151875476Y-73352438D01*
X151875476Y-73352438D02*
X151923095Y-73400057D01*
X151923095Y-73400057D02*
X151970714Y-73495295D01*
X151970714Y-73495295D02*
X152018333Y-73685771D01*
X152018333Y-73685771D02*
X152018333Y-73923866D01*
X152018333Y-73923866D02*
X151970714Y-74114342D01*
X151970714Y-74114342D02*
X151923095Y-74209580D01*
X151923095Y-74209580D02*
X151875476Y-74257200D01*
X151875476Y-74257200D02*
X151780238Y-74304819D01*
X151780238Y-74304819D02*
X151685000Y-74304819D01*
X151685000Y-74304819D02*
X151589762Y-74257200D01*
X151589762Y-74257200D02*
X151542143Y-74209580D01*
X151542143Y-74209580D02*
X151494524Y-74114342D01*
X151494524Y-74114342D02*
X151446905Y-73923866D01*
X151446905Y-73923866D02*
X151446905Y-73685771D01*
X151446905Y-73685771D02*
X151494524Y-73495295D01*
X151494524Y-73495295D02*
X151542143Y-73400057D01*
X151542143Y-73400057D02*
X151589762Y-73352438D01*
X151589762Y-73352438D02*
X151685000Y-73304819D01*
X152446905Y-74304819D02*
X152446905Y-73304819D01*
X152542143Y-73923866D02*
X152827857Y-74304819D01*
X152827857Y-73638152D02*
X152446905Y-74019104D01*
X130312557Y-76405356D02*
X130264938Y-76357737D01*
X130264938Y-76357737D02*
X130217319Y-76262499D01*
X130217319Y-76262499D02*
X130217319Y-76024404D01*
X130217319Y-76024404D02*
X130264938Y-75929166D01*
X130264938Y-75929166D02*
X130312557Y-75881547D01*
X130312557Y-75881547D02*
X130407795Y-75833928D01*
X130407795Y-75833928D02*
X130503033Y-75833928D01*
X130503033Y-75833928D02*
X130645890Y-75881547D01*
X130645890Y-75881547D02*
X131217319Y-76452975D01*
X131217319Y-76452975D02*
X131217319Y-75833928D01*
X130312557Y-75452975D02*
X130264938Y-75405356D01*
X130264938Y-75405356D02*
X130217319Y-75310118D01*
X130217319Y-75310118D02*
X130217319Y-75072023D01*
X130217319Y-75072023D02*
X130264938Y-74976785D01*
X130264938Y-74976785D02*
X130312557Y-74929166D01*
X130312557Y-74929166D02*
X130407795Y-74881547D01*
X130407795Y-74881547D02*
X130503033Y-74881547D01*
X130503033Y-74881547D02*
X130645890Y-74929166D01*
X130645890Y-74929166D02*
X131217319Y-75500594D01*
X131217319Y-75500594D02*
X131217319Y-74881547D01*
X130217319Y-74262499D02*
X130217319Y-74167261D01*
X130217319Y-74167261D02*
X130264938Y-74072023D01*
X130264938Y-74072023D02*
X130312557Y-74024404D01*
X130312557Y-74024404D02*
X130407795Y-73976785D01*
X130407795Y-73976785D02*
X130598271Y-73929166D01*
X130598271Y-73929166D02*
X130836366Y-73929166D01*
X130836366Y-73929166D02*
X131026842Y-73976785D01*
X131026842Y-73976785D02*
X131122080Y-74024404D01*
X131122080Y-74024404D02*
X131169700Y-74072023D01*
X131169700Y-74072023D02*
X131217319Y-74167261D01*
X131217319Y-74167261D02*
X131217319Y-74262499D01*
X131217319Y-74262499D02*
X131169700Y-74357737D01*
X131169700Y-74357737D02*
X131122080Y-74405356D01*
X131122080Y-74405356D02*
X131026842Y-74452975D01*
X131026842Y-74452975D02*
X130836366Y-74500594D01*
X130836366Y-74500594D02*
X130598271Y-74500594D01*
X130598271Y-74500594D02*
X130407795Y-74452975D01*
X130407795Y-74452975D02*
X130312557Y-74405356D01*
X130312557Y-74405356D02*
X130264938Y-74357737D01*
X130264938Y-74357737D02*
X130217319Y-74262499D01*
X131217319Y-73500594D02*
X130217319Y-73500594D01*
X130836366Y-73405356D02*
X131217319Y-73119642D01*
X130550652Y-73119642D02*
X130931604Y-73500594D01*
X124338095Y-90204819D02*
X124338095Y-91014342D01*
X124338095Y-91014342D02*
X124385714Y-91109580D01*
X124385714Y-91109580D02*
X124433333Y-91157200D01*
X124433333Y-91157200D02*
X124528571Y-91204819D01*
X124528571Y-91204819D02*
X124719047Y-91204819D01*
X124719047Y-91204819D02*
X124814285Y-91157200D01*
X124814285Y-91157200D02*
X124861904Y-91109580D01*
X124861904Y-91109580D02*
X124909523Y-91014342D01*
X124909523Y-91014342D02*
X124909523Y-90204819D01*
X125814285Y-90538152D02*
X125814285Y-91204819D01*
X125576190Y-90157200D02*
X125338095Y-90871485D01*
X125338095Y-90871485D02*
X125957142Y-90871485D01*
X138452557Y-80706547D02*
X138404938Y-80658928D01*
X138404938Y-80658928D02*
X138357319Y-80563690D01*
X138357319Y-80563690D02*
X138357319Y-80325595D01*
X138357319Y-80325595D02*
X138404938Y-80230357D01*
X138404938Y-80230357D02*
X138452557Y-80182738D01*
X138452557Y-80182738D02*
X138547795Y-80135119D01*
X138547795Y-80135119D02*
X138643033Y-80135119D01*
X138643033Y-80135119D02*
X138785890Y-80182738D01*
X138785890Y-80182738D02*
X139357319Y-80754166D01*
X139357319Y-80754166D02*
X139357319Y-80135119D01*
X138452557Y-79754166D02*
X138404938Y-79706547D01*
X138404938Y-79706547D02*
X138357319Y-79611309D01*
X138357319Y-79611309D02*
X138357319Y-79373214D01*
X138357319Y-79373214D02*
X138404938Y-79277976D01*
X138404938Y-79277976D02*
X138452557Y-79230357D01*
X138452557Y-79230357D02*
X138547795Y-79182738D01*
X138547795Y-79182738D02*
X138643033Y-79182738D01*
X138643033Y-79182738D02*
X138785890Y-79230357D01*
X138785890Y-79230357D02*
X139357319Y-79801785D01*
X139357319Y-79801785D02*
X139357319Y-79182738D01*
X138357319Y-78563690D02*
X138357319Y-78468452D01*
X138357319Y-78468452D02*
X138404938Y-78373214D01*
X138404938Y-78373214D02*
X138452557Y-78325595D01*
X138452557Y-78325595D02*
X138547795Y-78277976D01*
X138547795Y-78277976D02*
X138738271Y-78230357D01*
X138738271Y-78230357D02*
X138976366Y-78230357D01*
X138976366Y-78230357D02*
X139166842Y-78277976D01*
X139166842Y-78277976D02*
X139262080Y-78325595D01*
X139262080Y-78325595D02*
X139309700Y-78373214D01*
X139309700Y-78373214D02*
X139357319Y-78468452D01*
X139357319Y-78468452D02*
X139357319Y-78563690D01*
X139357319Y-78563690D02*
X139309700Y-78658928D01*
X139309700Y-78658928D02*
X139262080Y-78706547D01*
X139262080Y-78706547D02*
X139166842Y-78754166D01*
X139166842Y-78754166D02*
X138976366Y-78801785D01*
X138976366Y-78801785D02*
X138738271Y-78801785D01*
X138738271Y-78801785D02*
X138547795Y-78754166D01*
X138547795Y-78754166D02*
X138452557Y-78706547D01*
X138452557Y-78706547D02*
X138404938Y-78658928D01*
X138404938Y-78658928D02*
X138357319Y-78563690D01*
X138690652Y-77801785D02*
X139357319Y-77801785D01*
X138785890Y-77801785D02*
X138738271Y-77754166D01*
X138738271Y-77754166D02*
X138690652Y-77658928D01*
X138690652Y-77658928D02*
X138690652Y-77516071D01*
X138690652Y-77516071D02*
X138738271Y-77420833D01*
X138738271Y-77420833D02*
X138833509Y-77373214D01*
X138833509Y-77373214D02*
X139357319Y-77373214D01*
X138833509Y-76563690D02*
X138833509Y-76897023D01*
X139357319Y-76897023D02*
X138357319Y-76897023D01*
X138357319Y-76897023D02*
X138357319Y-76420833D01*
D10*
X144306119Y-86682738D02*
X144306119Y-87254166D01*
X144306119Y-86968452D02*
X143306119Y-86968452D01*
X143306119Y-86968452D02*
X143448976Y-87063690D01*
X143448976Y-87063690D02*
X143544214Y-87158928D01*
X143544214Y-87158928D02*
X143591833Y-87254166D01*
X143306119Y-86063690D02*
X143306119Y-85968452D01*
X143306119Y-85968452D02*
X143353738Y-85873214D01*
X143353738Y-85873214D02*
X143401357Y-85825595D01*
X143401357Y-85825595D02*
X143496595Y-85777976D01*
X143496595Y-85777976D02*
X143687071Y-85730357D01*
X143687071Y-85730357D02*
X143925166Y-85730357D01*
X143925166Y-85730357D02*
X144115642Y-85777976D01*
X144115642Y-85777976D02*
X144210880Y-85825595D01*
X144210880Y-85825595D02*
X144258500Y-85873214D01*
X144258500Y-85873214D02*
X144306119Y-85968452D01*
X144306119Y-85968452D02*
X144306119Y-86063690D01*
X144306119Y-86063690D02*
X144258500Y-86158928D01*
X144258500Y-86158928D02*
X144210880Y-86206547D01*
X144210880Y-86206547D02*
X144115642Y-86254166D01*
X144115642Y-86254166D02*
X143925166Y-86301785D01*
X143925166Y-86301785D02*
X143687071Y-86301785D01*
X143687071Y-86301785D02*
X143496595Y-86254166D01*
X143496595Y-86254166D02*
X143401357Y-86206547D01*
X143401357Y-86206547D02*
X143353738Y-86158928D01*
X143353738Y-86158928D02*
X143306119Y-86063690D01*
X144306119Y-85301785D02*
X143306119Y-85301785D01*
X143925166Y-85206547D02*
X144306119Y-84920833D01*
X143639452Y-84920833D02*
X144020404Y-85301785D01*
D11*
X121373214Y-76454819D02*
X120897024Y-76454819D01*
X120897024Y-76454819D02*
X120849405Y-76931009D01*
X120849405Y-76931009D02*
X120897024Y-76883390D01*
X120897024Y-76883390D02*
X120992262Y-76835771D01*
X120992262Y-76835771D02*
X121230357Y-76835771D01*
X121230357Y-76835771D02*
X121325595Y-76883390D01*
X121325595Y-76883390D02*
X121373214Y-76931009D01*
X121373214Y-76931009D02*
X121420833Y-77026247D01*
X121420833Y-77026247D02*
X121420833Y-77264342D01*
X121420833Y-77264342D02*
X121373214Y-77359580D01*
X121373214Y-77359580D02*
X121325595Y-77407200D01*
X121325595Y-77407200D02*
X121230357Y-77454819D01*
X121230357Y-77454819D02*
X120992262Y-77454819D01*
X120992262Y-77454819D02*
X120897024Y-77407200D01*
X120897024Y-77407200D02*
X120849405Y-77359580D01*
X122277976Y-76454819D02*
X122087500Y-76454819D01*
X122087500Y-76454819D02*
X121992262Y-76502438D01*
X121992262Y-76502438D02*
X121944643Y-76550057D01*
X121944643Y-76550057D02*
X121849405Y-76692914D01*
X121849405Y-76692914D02*
X121801786Y-76883390D01*
X121801786Y-76883390D02*
X121801786Y-77264342D01*
X121801786Y-77264342D02*
X121849405Y-77359580D01*
X121849405Y-77359580D02*
X121897024Y-77407200D01*
X121897024Y-77407200D02*
X121992262Y-77454819D01*
X121992262Y-77454819D02*
X122182738Y-77454819D01*
X122182738Y-77454819D02*
X122277976Y-77407200D01*
X122277976Y-77407200D02*
X122325595Y-77359580D01*
X122325595Y-77359580D02*
X122373214Y-77264342D01*
X122373214Y-77264342D02*
X122373214Y-77026247D01*
X122373214Y-77026247D02*
X122325595Y-76931009D01*
X122325595Y-76931009D02*
X122277976Y-76883390D01*
X122277976Y-76883390D02*
X122182738Y-76835771D01*
X122182738Y-76835771D02*
X121992262Y-76835771D01*
X121992262Y-76835771D02*
X121897024Y-76883390D01*
X121897024Y-76883390D02*
X121849405Y-76931009D01*
X121849405Y-76931009D02*
X121801786Y-77026247D01*
X122992262Y-76454819D02*
X123087500Y-76454819D01*
X123087500Y-76454819D02*
X123182738Y-76502438D01*
X123182738Y-76502438D02*
X123230357Y-76550057D01*
X123230357Y-76550057D02*
X123277976Y-76645295D01*
X123277976Y-76645295D02*
X123325595Y-76835771D01*
X123325595Y-76835771D02*
X123325595Y-77073866D01*
X123325595Y-77073866D02*
X123277976Y-77264342D01*
X123277976Y-77264342D02*
X123230357Y-77359580D01*
X123230357Y-77359580D02*
X123182738Y-77407200D01*
X123182738Y-77407200D02*
X123087500Y-77454819D01*
X123087500Y-77454819D02*
X122992262Y-77454819D01*
X122992262Y-77454819D02*
X122897024Y-77407200D01*
X122897024Y-77407200D02*
X122849405Y-77359580D01*
X122849405Y-77359580D02*
X122801786Y-77264342D01*
X122801786Y-77264342D02*
X122754167Y-77073866D01*
X122754167Y-77073866D02*
X122754167Y-76835771D01*
X122754167Y-76835771D02*
X122801786Y-76645295D01*
X122801786Y-76645295D02*
X122849405Y-76550057D01*
X122849405Y-76550057D02*
X122897024Y-76502438D01*
X122897024Y-76502438D02*
X122992262Y-76454819D01*
X116238095Y-87454819D02*
X116238095Y-88264342D01*
X116238095Y-88264342D02*
X116285714Y-88359580D01*
X116285714Y-88359580D02*
X116333333Y-88407200D01*
X116333333Y-88407200D02*
X116428571Y-88454819D01*
X116428571Y-88454819D02*
X116619047Y-88454819D01*
X116619047Y-88454819D02*
X116714285Y-88407200D01*
X116714285Y-88407200D02*
X116761904Y-88359580D01*
X116761904Y-88359580D02*
X116809523Y-88264342D01*
X116809523Y-88264342D02*
X116809523Y-87454819D01*
X117238095Y-87550057D02*
X117285714Y-87502438D01*
X117285714Y-87502438D02*
X117380952Y-87454819D01*
X117380952Y-87454819D02*
X117619047Y-87454819D01*
X117619047Y-87454819D02*
X117714285Y-87502438D01*
X117714285Y-87502438D02*
X117761904Y-87550057D01*
X117761904Y-87550057D02*
X117809523Y-87645295D01*
X117809523Y-87645295D02*
X117809523Y-87740533D01*
X117809523Y-87740533D02*
X117761904Y-87883390D01*
X117761904Y-87883390D02*
X117190476Y-88454819D01*
X117190476Y-88454819D02*
X117809523Y-88454819D01*
X145904761Y-81804819D02*
X145333333Y-81804819D01*
X145619047Y-81804819D02*
X145619047Y-80804819D01*
X145619047Y-80804819D02*
X145523809Y-80947676D01*
X145523809Y-80947676D02*
X145428571Y-81042914D01*
X145428571Y-81042914D02*
X145333333Y-81090533D01*
X146523809Y-80804819D02*
X146619047Y-80804819D01*
X146619047Y-80804819D02*
X146714285Y-80852438D01*
X146714285Y-80852438D02*
X146761904Y-80900057D01*
X146761904Y-80900057D02*
X146809523Y-80995295D01*
X146809523Y-80995295D02*
X146857142Y-81185771D01*
X146857142Y-81185771D02*
X146857142Y-81423866D01*
X146857142Y-81423866D02*
X146809523Y-81614342D01*
X146809523Y-81614342D02*
X146761904Y-81709580D01*
X146761904Y-81709580D02*
X146714285Y-81757200D01*
X146714285Y-81757200D02*
X146619047Y-81804819D01*
X146619047Y-81804819D02*
X146523809Y-81804819D01*
X146523809Y-81804819D02*
X146428571Y-81757200D01*
X146428571Y-81757200D02*
X146380952Y-81709580D01*
X146380952Y-81709580D02*
X146333333Y-81614342D01*
X146333333Y-81614342D02*
X146285714Y-81423866D01*
X146285714Y-81423866D02*
X146285714Y-81185771D01*
X146285714Y-81185771D02*
X146333333Y-80995295D01*
X146333333Y-80995295D02*
X146380952Y-80900057D01*
X146380952Y-80900057D02*
X146428571Y-80852438D01*
X146428571Y-80852438D02*
X146523809Y-80804819D01*
X147285714Y-81804819D02*
X147285714Y-80804819D01*
X147380952Y-81423866D02*
X147666666Y-81804819D01*
X147666666Y-81138152D02*
X147285714Y-81519104D01*
X127251904Y-88954819D02*
X126680476Y-88954819D01*
X126966190Y-88954819D02*
X126966190Y-87954819D01*
X126966190Y-87954819D02*
X126870952Y-88097676D01*
X126870952Y-88097676D02*
X126775714Y-88192914D01*
X126775714Y-88192914D02*
X126680476Y-88240533D01*
X127870952Y-87954819D02*
X127966190Y-87954819D01*
X127966190Y-87954819D02*
X128061428Y-88002438D01*
X128061428Y-88002438D02*
X128109047Y-88050057D01*
X128109047Y-88050057D02*
X128156666Y-88145295D01*
X128156666Y-88145295D02*
X128204285Y-88335771D01*
X128204285Y-88335771D02*
X128204285Y-88573866D01*
X128204285Y-88573866D02*
X128156666Y-88764342D01*
X128156666Y-88764342D02*
X128109047Y-88859580D01*
X128109047Y-88859580D02*
X128061428Y-88907200D01*
X128061428Y-88907200D02*
X127966190Y-88954819D01*
X127966190Y-88954819D02*
X127870952Y-88954819D01*
X127870952Y-88954819D02*
X127775714Y-88907200D01*
X127775714Y-88907200D02*
X127728095Y-88859580D01*
X127728095Y-88859580D02*
X127680476Y-88764342D01*
X127680476Y-88764342D02*
X127632857Y-88573866D01*
X127632857Y-88573866D02*
X127632857Y-88335771D01*
X127632857Y-88335771D02*
X127680476Y-88145295D01*
X127680476Y-88145295D02*
X127728095Y-88050057D01*
X127728095Y-88050057D02*
X127775714Y-88002438D01*
X127775714Y-88002438D02*
X127870952Y-87954819D01*
X128823333Y-87954819D02*
X128918571Y-87954819D01*
X128918571Y-87954819D02*
X129013809Y-88002438D01*
X129013809Y-88002438D02*
X129061428Y-88050057D01*
X129061428Y-88050057D02*
X129109047Y-88145295D01*
X129109047Y-88145295D02*
X129156666Y-88335771D01*
X129156666Y-88335771D02*
X129156666Y-88573866D01*
X129156666Y-88573866D02*
X129109047Y-88764342D01*
X129109047Y-88764342D02*
X129061428Y-88859580D01*
X129061428Y-88859580D02*
X129013809Y-88907200D01*
X129013809Y-88907200D02*
X128918571Y-88954819D01*
X128918571Y-88954819D02*
X128823333Y-88954819D01*
X128823333Y-88954819D02*
X128728095Y-88907200D01*
X128728095Y-88907200D02*
X128680476Y-88859580D01*
X128680476Y-88859580D02*
X128632857Y-88764342D01*
X128632857Y-88764342D02*
X128585238Y-88573866D01*
X128585238Y-88573866D02*
X128585238Y-88335771D01*
X128585238Y-88335771D02*
X128632857Y-88145295D01*
X128632857Y-88145295D02*
X128680476Y-88050057D01*
X128680476Y-88050057D02*
X128728095Y-88002438D01*
X128728095Y-88002438D02*
X128823333Y-87954819D01*
X129585238Y-88954819D02*
X129585238Y-87954819D01*
X129585238Y-87954819D02*
X129918571Y-88669104D01*
X129918571Y-88669104D02*
X130251904Y-87954819D01*
X130251904Y-87954819D02*
X130251904Y-88954819D01*
X107857143Y-89954819D02*
X107857143Y-88954819D01*
X108333333Y-89288152D02*
X108333333Y-89954819D01*
X108333333Y-89383390D02*
X108380952Y-89335771D01*
X108380952Y-89335771D02*
X108476190Y-89288152D01*
X108476190Y-89288152D02*
X108619047Y-89288152D01*
X108619047Y-89288152D02*
X108714285Y-89335771D01*
X108714285Y-89335771D02*
X108761904Y-89431009D01*
X108761904Y-89431009D02*
X108761904Y-89954819D01*
X109238095Y-89288152D02*
X109238095Y-90288152D01*
X109238095Y-89335771D02*
X109333333Y-89288152D01*
X109333333Y-89288152D02*
X109523809Y-89288152D01*
X109523809Y-89288152D02*
X109619047Y-89335771D01*
X109619047Y-89335771D02*
X109666666Y-89383390D01*
X109666666Y-89383390D02*
X109714285Y-89478628D01*
X109714285Y-89478628D02*
X109714285Y-89764342D01*
X109714285Y-89764342D02*
X109666666Y-89859580D01*
X109666666Y-89859580D02*
X109619047Y-89907200D01*
X109619047Y-89907200D02*
X109523809Y-89954819D01*
X109523809Y-89954819D02*
X109333333Y-89954819D01*
X109333333Y-89954819D02*
X109238095Y-89907200D01*
X110571428Y-89288152D02*
X110571428Y-89954819D01*
X110142857Y-89288152D02*
X110142857Y-89811961D01*
X110142857Y-89811961D02*
X110190476Y-89907200D01*
X110190476Y-89907200D02*
X110285714Y-89954819D01*
X110285714Y-89954819D02*
X110428571Y-89954819D01*
X110428571Y-89954819D02*
X110523809Y-89907200D01*
X110523809Y-89907200D02*
X110571428Y-89859580D01*
X110904762Y-89288152D02*
X111285714Y-89288152D01*
X111047619Y-88954819D02*
X111047619Y-89811961D01*
X111047619Y-89811961D02*
X111095238Y-89907200D01*
X111095238Y-89907200D02*
X111190476Y-89954819D01*
X111190476Y-89954819D02*
X111285714Y-89954819D01*
X129238095Y-90204819D02*
X129238095Y-91014342D01*
X129238095Y-91014342D02*
X129285714Y-91109580D01*
X129285714Y-91109580D02*
X129333333Y-91157200D01*
X129333333Y-91157200D02*
X129428571Y-91204819D01*
X129428571Y-91204819D02*
X129619047Y-91204819D01*
X129619047Y-91204819D02*
X129714285Y-91157200D01*
X129714285Y-91157200D02*
X129761904Y-91109580D01*
X129761904Y-91109580D02*
X129809523Y-91014342D01*
X129809523Y-91014342D02*
X129809523Y-90204819D01*
X130761904Y-90204819D02*
X130285714Y-90204819D01*
X130285714Y-90204819D02*
X130238095Y-90681009D01*
X130238095Y-90681009D02*
X130285714Y-90633390D01*
X130285714Y-90633390D02*
X130380952Y-90585771D01*
X130380952Y-90585771D02*
X130619047Y-90585771D01*
X130619047Y-90585771D02*
X130714285Y-90633390D01*
X130714285Y-90633390D02*
X130761904Y-90681009D01*
X130761904Y-90681009D02*
X130809523Y-90776247D01*
X130809523Y-90776247D02*
X130809523Y-91014342D01*
X130809523Y-91014342D02*
X130761904Y-91109580D01*
X130761904Y-91109580D02*
X130714285Y-91157200D01*
X130714285Y-91157200D02*
X130619047Y-91204819D01*
X130619047Y-91204819D02*
X130380952Y-91204819D01*
X130380952Y-91204819D02*
X130285714Y-91157200D01*
X130285714Y-91157200D02*
X130238095Y-91109580D01*
X132900057Y-87325594D02*
X132852438Y-87277975D01*
X132852438Y-87277975D02*
X132804819Y-87182737D01*
X132804819Y-87182737D02*
X132804819Y-86944642D01*
X132804819Y-86944642D02*
X132852438Y-86849404D01*
X132852438Y-86849404D02*
X132900057Y-86801785D01*
X132900057Y-86801785D02*
X132995295Y-86754166D01*
X132995295Y-86754166D02*
X133090533Y-86754166D01*
X133090533Y-86754166D02*
X133233390Y-86801785D01*
X133233390Y-86801785D02*
X133804819Y-87373213D01*
X133804819Y-87373213D02*
X133804819Y-86754166D01*
X132900057Y-86373213D02*
X132852438Y-86325594D01*
X132852438Y-86325594D02*
X132804819Y-86230356D01*
X132804819Y-86230356D02*
X132804819Y-85992261D01*
X132804819Y-85992261D02*
X132852438Y-85897023D01*
X132852438Y-85897023D02*
X132900057Y-85849404D01*
X132900057Y-85849404D02*
X132995295Y-85801785D01*
X132995295Y-85801785D02*
X133090533Y-85801785D01*
X133090533Y-85801785D02*
X133233390Y-85849404D01*
X133233390Y-85849404D02*
X133804819Y-86420832D01*
X133804819Y-86420832D02*
X133804819Y-85801785D01*
X132804819Y-85182737D02*
X132804819Y-85087499D01*
X132804819Y-85087499D02*
X132852438Y-84992261D01*
X132852438Y-84992261D02*
X132900057Y-84944642D01*
X132900057Y-84944642D02*
X132995295Y-84897023D01*
X132995295Y-84897023D02*
X133185771Y-84849404D01*
X133185771Y-84849404D02*
X133423866Y-84849404D01*
X133423866Y-84849404D02*
X133614342Y-84897023D01*
X133614342Y-84897023D02*
X133709580Y-84944642D01*
X133709580Y-84944642D02*
X133757200Y-84992261D01*
X133757200Y-84992261D02*
X133804819Y-85087499D01*
X133804819Y-85087499D02*
X133804819Y-85182737D01*
X133804819Y-85182737D02*
X133757200Y-85277975D01*
X133757200Y-85277975D02*
X133709580Y-85325594D01*
X133709580Y-85325594D02*
X133614342Y-85373213D01*
X133614342Y-85373213D02*
X133423866Y-85420832D01*
X133423866Y-85420832D02*
X133185771Y-85420832D01*
X133185771Y-85420832D02*
X132995295Y-85373213D01*
X132995295Y-85373213D02*
X132900057Y-85325594D01*
X132900057Y-85325594D02*
X132852438Y-85277975D01*
X132852438Y-85277975D02*
X132804819Y-85182737D01*
X149920833Y-82700057D02*
X149968452Y-82652438D01*
X149968452Y-82652438D02*
X150063690Y-82604819D01*
X150063690Y-82604819D02*
X150301785Y-82604819D01*
X150301785Y-82604819D02*
X150397023Y-82652438D01*
X150397023Y-82652438D02*
X150444642Y-82700057D01*
X150444642Y-82700057D02*
X150492261Y-82795295D01*
X150492261Y-82795295D02*
X150492261Y-82890533D01*
X150492261Y-82890533D02*
X150444642Y-83033390D01*
X150444642Y-83033390D02*
X149873214Y-83604819D01*
X149873214Y-83604819D02*
X150492261Y-83604819D01*
X150873214Y-82700057D02*
X150920833Y-82652438D01*
X150920833Y-82652438D02*
X151016071Y-82604819D01*
X151016071Y-82604819D02*
X151254166Y-82604819D01*
X151254166Y-82604819D02*
X151349404Y-82652438D01*
X151349404Y-82652438D02*
X151397023Y-82700057D01*
X151397023Y-82700057D02*
X151444642Y-82795295D01*
X151444642Y-82795295D02*
X151444642Y-82890533D01*
X151444642Y-82890533D02*
X151397023Y-83033390D01*
X151397023Y-83033390D02*
X150825595Y-83604819D01*
X150825595Y-83604819D02*
X151444642Y-83604819D01*
X151873214Y-83604819D02*
X151873214Y-82604819D01*
X151968452Y-83223866D02*
X152254166Y-83604819D01*
X152254166Y-82938152D02*
X151873214Y-83319104D01*
X130304819Y-86373214D02*
X130304819Y-86944642D01*
X130304819Y-86658928D02*
X129304819Y-86658928D01*
X129304819Y-86658928D02*
X129447676Y-86754166D01*
X129447676Y-86754166D02*
X129542914Y-86849404D01*
X129542914Y-86849404D02*
X129590533Y-86944642D01*
X130304819Y-85944642D02*
X129304819Y-85944642D01*
X129304819Y-85944642D02*
X130019104Y-85611309D01*
X130019104Y-85611309D02*
X129304819Y-85277976D01*
X129304819Y-85277976D02*
X130304819Y-85277976D01*
X144870057Y-76642856D02*
X144822438Y-76595237D01*
X144822438Y-76595237D02*
X144774819Y-76499999D01*
X144774819Y-76499999D02*
X144774819Y-76261904D01*
X144774819Y-76261904D02*
X144822438Y-76166666D01*
X144822438Y-76166666D02*
X144870057Y-76119047D01*
X144870057Y-76119047D02*
X144965295Y-76071428D01*
X144965295Y-76071428D02*
X145060533Y-76071428D01*
X145060533Y-76071428D02*
X145203390Y-76119047D01*
X145203390Y-76119047D02*
X145774819Y-76690475D01*
X145774819Y-76690475D02*
X145774819Y-76071428D01*
X144774819Y-75166666D02*
X144774819Y-75642856D01*
X144774819Y-75642856D02*
X145251009Y-75690475D01*
X145251009Y-75690475D02*
X145203390Y-75642856D01*
X145203390Y-75642856D02*
X145155771Y-75547618D01*
X145155771Y-75547618D02*
X145155771Y-75309523D01*
X145155771Y-75309523D02*
X145203390Y-75214285D01*
X145203390Y-75214285D02*
X145251009Y-75166666D01*
X145251009Y-75166666D02*
X145346247Y-75119047D01*
X145346247Y-75119047D02*
X145584342Y-75119047D01*
X145584342Y-75119047D02*
X145679580Y-75166666D01*
X145679580Y-75166666D02*
X145727200Y-75214285D01*
X145727200Y-75214285D02*
X145774819Y-75309523D01*
X145774819Y-75309523D02*
X145774819Y-75547618D01*
X145774819Y-75547618D02*
X145727200Y-75642856D01*
X145727200Y-75642856D02*
X145679580Y-75690475D01*
X145108152Y-74690475D02*
X145774819Y-74690475D01*
X145203390Y-74690475D02*
X145155771Y-74642856D01*
X145155771Y-74642856D02*
X145108152Y-74547618D01*
X145108152Y-74547618D02*
X145108152Y-74404761D01*
X145108152Y-74404761D02*
X145155771Y-74309523D01*
X145155771Y-74309523D02*
X145251009Y-74261904D01*
X145251009Y-74261904D02*
X145774819Y-74261904D01*
X145251009Y-73452380D02*
X145251009Y-73785713D01*
X145774819Y-73785713D02*
X144774819Y-73785713D01*
X144774819Y-73785713D02*
X144774819Y-73309523D01*
X134928571Y-81774819D02*
X134357143Y-81774819D01*
X134642857Y-81774819D02*
X134642857Y-80774819D01*
X134642857Y-80774819D02*
X134547619Y-80917676D01*
X134547619Y-80917676D02*
X134452381Y-81012914D01*
X134452381Y-81012914D02*
X134357143Y-81060533D01*
X135547619Y-80774819D02*
X135642857Y-80774819D01*
X135642857Y-80774819D02*
X135738095Y-80822438D01*
X135738095Y-80822438D02*
X135785714Y-80870057D01*
X135785714Y-80870057D02*
X135833333Y-80965295D01*
X135833333Y-80965295D02*
X135880952Y-81155771D01*
X135880952Y-81155771D02*
X135880952Y-81393866D01*
X135880952Y-81393866D02*
X135833333Y-81584342D01*
X135833333Y-81584342D02*
X135785714Y-81679580D01*
X135785714Y-81679580D02*
X135738095Y-81727200D01*
X135738095Y-81727200D02*
X135642857Y-81774819D01*
X135642857Y-81774819D02*
X135547619Y-81774819D01*
X135547619Y-81774819D02*
X135452381Y-81727200D01*
X135452381Y-81727200D02*
X135404762Y-81679580D01*
X135404762Y-81679580D02*
X135357143Y-81584342D01*
X135357143Y-81584342D02*
X135309524Y-81393866D01*
X135309524Y-81393866D02*
X135309524Y-81155771D01*
X135309524Y-81155771D02*
X135357143Y-80965295D01*
X135357143Y-80965295D02*
X135404762Y-80870057D01*
X135404762Y-80870057D02*
X135452381Y-80822438D01*
X135452381Y-80822438D02*
X135547619Y-80774819D01*
X136738095Y-81108152D02*
X136738095Y-81774819D01*
X136309524Y-81108152D02*
X136309524Y-81631961D01*
X136309524Y-81631961D02*
X136357143Y-81727200D01*
X136357143Y-81727200D02*
X136452381Y-81774819D01*
X136452381Y-81774819D02*
X136595238Y-81774819D01*
X136595238Y-81774819D02*
X136690476Y-81727200D01*
X136690476Y-81727200D02*
X136738095Y-81679580D01*
X137547619Y-81251009D02*
X137214286Y-81251009D01*
X137214286Y-81774819D02*
X137214286Y-80774819D01*
X137214286Y-80774819D02*
X137690476Y-80774819D01*
X145907319Y-79753928D02*
X145907319Y-80325356D01*
X145907319Y-80039642D02*
X144907319Y-80039642D01*
X144907319Y-80039642D02*
X145050176Y-80134880D01*
X145050176Y-80134880D02*
X145145414Y-80230118D01*
X145145414Y-80230118D02*
X145193033Y-80325356D01*
X145335890Y-79182499D02*
X145288271Y-79277737D01*
X145288271Y-79277737D02*
X145240652Y-79325356D01*
X145240652Y-79325356D02*
X145145414Y-79372975D01*
X145145414Y-79372975D02*
X145097795Y-79372975D01*
X145097795Y-79372975D02*
X145002557Y-79325356D01*
X145002557Y-79325356D02*
X144954938Y-79277737D01*
X144954938Y-79277737D02*
X144907319Y-79182499D01*
X144907319Y-79182499D02*
X144907319Y-78992023D01*
X144907319Y-78992023D02*
X144954938Y-78896785D01*
X144954938Y-78896785D02*
X145002557Y-78849166D01*
X145002557Y-78849166D02*
X145097795Y-78801547D01*
X145097795Y-78801547D02*
X145145414Y-78801547D01*
X145145414Y-78801547D02*
X145240652Y-78849166D01*
X145240652Y-78849166D02*
X145288271Y-78896785D01*
X145288271Y-78896785D02*
X145335890Y-78992023D01*
X145335890Y-78992023D02*
X145335890Y-79182499D01*
X145335890Y-79182499D02*
X145383509Y-79277737D01*
X145383509Y-79277737D02*
X145431128Y-79325356D01*
X145431128Y-79325356D02*
X145526366Y-79372975D01*
X145526366Y-79372975D02*
X145716842Y-79372975D01*
X145716842Y-79372975D02*
X145812080Y-79325356D01*
X145812080Y-79325356D02*
X145859700Y-79277737D01*
X145859700Y-79277737D02*
X145907319Y-79182499D01*
X145907319Y-79182499D02*
X145907319Y-78992023D01*
X145907319Y-78992023D02*
X145859700Y-78896785D01*
X145859700Y-78896785D02*
X145812080Y-78849166D01*
X145812080Y-78849166D02*
X145716842Y-78801547D01*
X145716842Y-78801547D02*
X145526366Y-78801547D01*
X145526366Y-78801547D02*
X145431128Y-78849166D01*
X145431128Y-78849166D02*
X145383509Y-78896785D01*
X145383509Y-78896785D02*
X145335890Y-78992023D01*
X144907319Y-78182499D02*
X144907319Y-78087261D01*
X144907319Y-78087261D02*
X144954938Y-77992023D01*
X144954938Y-77992023D02*
X145002557Y-77944404D01*
X145002557Y-77944404D02*
X145097795Y-77896785D01*
X145097795Y-77896785D02*
X145288271Y-77849166D01*
X145288271Y-77849166D02*
X145526366Y-77849166D01*
X145526366Y-77849166D02*
X145716842Y-77896785D01*
X145716842Y-77896785D02*
X145812080Y-77944404D01*
X145812080Y-77944404D02*
X145859700Y-77992023D01*
X145859700Y-77992023D02*
X145907319Y-78087261D01*
X145907319Y-78087261D02*
X145907319Y-78182499D01*
X145907319Y-78182499D02*
X145859700Y-78277737D01*
X145859700Y-78277737D02*
X145812080Y-78325356D01*
X145812080Y-78325356D02*
X145716842Y-78372975D01*
X145716842Y-78372975D02*
X145526366Y-78420594D01*
X145526366Y-78420594D02*
X145288271Y-78420594D01*
X145288271Y-78420594D02*
X145097795Y-78372975D01*
X145097795Y-78372975D02*
X145002557Y-78325356D01*
X145002557Y-78325356D02*
X144954938Y-78277737D01*
X144954938Y-78277737D02*
X144907319Y-78182499D01*
X145907319Y-77420594D02*
X144907319Y-77420594D01*
X145526366Y-77325356D02*
X145907319Y-77039642D01*
X145240652Y-77039642D02*
X145621604Y-77420594D01*
X119833333Y-87219104D02*
X120309523Y-87219104D01*
X119738095Y-87504819D02*
X120071428Y-86504819D01*
X120071428Y-86504819D02*
X120404761Y-87504819D01*
X120738095Y-87504819D02*
X120738095Y-86504819D01*
X120738095Y-86504819D02*
X120976190Y-86504819D01*
X120976190Y-86504819D02*
X121119047Y-86552438D01*
X121119047Y-86552438D02*
X121214285Y-86647676D01*
X121214285Y-86647676D02*
X121261904Y-86742914D01*
X121261904Y-86742914D02*
X121309523Y-86933390D01*
X121309523Y-86933390D02*
X121309523Y-87076247D01*
X121309523Y-87076247D02*
X121261904Y-87266723D01*
X121261904Y-87266723D02*
X121214285Y-87361961D01*
X121214285Y-87361961D02*
X121119047Y-87457200D01*
X121119047Y-87457200D02*
X120976190Y-87504819D01*
X120976190Y-87504819D02*
X120738095Y-87504819D01*
X122166666Y-86504819D02*
X121976190Y-86504819D01*
X121976190Y-86504819D02*
X121880952Y-86552438D01*
X121880952Y-86552438D02*
X121833333Y-86600057D01*
X121833333Y-86600057D02*
X121738095Y-86742914D01*
X121738095Y-86742914D02*
X121690476Y-86933390D01*
X121690476Y-86933390D02*
X121690476Y-87314342D01*
X121690476Y-87314342D02*
X121738095Y-87409580D01*
X121738095Y-87409580D02*
X121785714Y-87457200D01*
X121785714Y-87457200D02*
X121880952Y-87504819D01*
X121880952Y-87504819D02*
X122071428Y-87504819D01*
X122071428Y-87504819D02*
X122166666Y-87457200D01*
X122166666Y-87457200D02*
X122214285Y-87409580D01*
X122214285Y-87409580D02*
X122261904Y-87314342D01*
X122261904Y-87314342D02*
X122261904Y-87076247D01*
X122261904Y-87076247D02*
X122214285Y-86981009D01*
X122214285Y-86981009D02*
X122166666Y-86933390D01*
X122166666Y-86933390D02*
X122071428Y-86885771D01*
X122071428Y-86885771D02*
X121880952Y-86885771D01*
X121880952Y-86885771D02*
X121785714Y-86933390D01*
X121785714Y-86933390D02*
X121738095Y-86981009D01*
X121738095Y-86981009D02*
X121690476Y-87076247D01*
X122642857Y-86600057D02*
X122690476Y-86552438D01*
X122690476Y-86552438D02*
X122785714Y-86504819D01*
X122785714Y-86504819D02*
X123023809Y-86504819D01*
X123023809Y-86504819D02*
X123119047Y-86552438D01*
X123119047Y-86552438D02*
X123166666Y-86600057D01*
X123166666Y-86600057D02*
X123214285Y-86695295D01*
X123214285Y-86695295D02*
X123214285Y-86790533D01*
X123214285Y-86790533D02*
X123166666Y-86933390D01*
X123166666Y-86933390D02*
X122595238Y-87504819D01*
X122595238Y-87504819D02*
X123214285Y-87504819D01*
X123833333Y-86504819D02*
X123928571Y-86504819D01*
X123928571Y-86504819D02*
X124023809Y-86552438D01*
X124023809Y-86552438D02*
X124071428Y-86600057D01*
X124071428Y-86600057D02*
X124119047Y-86695295D01*
X124119047Y-86695295D02*
X124166666Y-86885771D01*
X124166666Y-86885771D02*
X124166666Y-87123866D01*
X124166666Y-87123866D02*
X124119047Y-87314342D01*
X124119047Y-87314342D02*
X124071428Y-87409580D01*
X124071428Y-87409580D02*
X124023809Y-87457200D01*
X124023809Y-87457200D02*
X123928571Y-87504819D01*
X123928571Y-87504819D02*
X123833333Y-87504819D01*
X123833333Y-87504819D02*
X123738095Y-87457200D01*
X123738095Y-87457200D02*
X123690476Y-87409580D01*
X123690476Y-87409580D02*
X123642857Y-87314342D01*
X123642857Y-87314342D02*
X123595238Y-87123866D01*
X123595238Y-87123866D02*
X123595238Y-86885771D01*
X123595238Y-86885771D02*
X123642857Y-86695295D01*
X123642857Y-86695295D02*
X123690476Y-86600057D01*
X123690476Y-86600057D02*
X123738095Y-86552438D01*
X123738095Y-86552438D02*
X123833333Y-86504819D01*
X133282557Y-80706547D02*
X133234938Y-80658928D01*
X133234938Y-80658928D02*
X133187319Y-80563690D01*
X133187319Y-80563690D02*
X133187319Y-80325595D01*
X133187319Y-80325595D02*
X133234938Y-80230357D01*
X133234938Y-80230357D02*
X133282557Y-80182738D01*
X133282557Y-80182738D02*
X133377795Y-80135119D01*
X133377795Y-80135119D02*
X133473033Y-80135119D01*
X133473033Y-80135119D02*
X133615890Y-80182738D01*
X133615890Y-80182738D02*
X134187319Y-80754166D01*
X134187319Y-80754166D02*
X134187319Y-80135119D01*
X133282557Y-79754166D02*
X133234938Y-79706547D01*
X133234938Y-79706547D02*
X133187319Y-79611309D01*
X133187319Y-79611309D02*
X133187319Y-79373214D01*
X133187319Y-79373214D02*
X133234938Y-79277976D01*
X133234938Y-79277976D02*
X133282557Y-79230357D01*
X133282557Y-79230357D02*
X133377795Y-79182738D01*
X133377795Y-79182738D02*
X133473033Y-79182738D01*
X133473033Y-79182738D02*
X133615890Y-79230357D01*
X133615890Y-79230357D02*
X134187319Y-79801785D01*
X134187319Y-79801785D02*
X134187319Y-79182738D01*
X133187319Y-78563690D02*
X133187319Y-78468452D01*
X133187319Y-78468452D02*
X133234938Y-78373214D01*
X133234938Y-78373214D02*
X133282557Y-78325595D01*
X133282557Y-78325595D02*
X133377795Y-78277976D01*
X133377795Y-78277976D02*
X133568271Y-78230357D01*
X133568271Y-78230357D02*
X133806366Y-78230357D01*
X133806366Y-78230357D02*
X133996842Y-78277976D01*
X133996842Y-78277976D02*
X134092080Y-78325595D01*
X134092080Y-78325595D02*
X134139700Y-78373214D01*
X134139700Y-78373214D02*
X134187319Y-78468452D01*
X134187319Y-78468452D02*
X134187319Y-78563690D01*
X134187319Y-78563690D02*
X134139700Y-78658928D01*
X134139700Y-78658928D02*
X134092080Y-78706547D01*
X134092080Y-78706547D02*
X133996842Y-78754166D01*
X133996842Y-78754166D02*
X133806366Y-78801785D01*
X133806366Y-78801785D02*
X133568271Y-78801785D01*
X133568271Y-78801785D02*
X133377795Y-78754166D01*
X133377795Y-78754166D02*
X133282557Y-78706547D01*
X133282557Y-78706547D02*
X133234938Y-78658928D01*
X133234938Y-78658928D02*
X133187319Y-78563690D01*
X133520652Y-77801785D02*
X134187319Y-77801785D01*
X133615890Y-77801785D02*
X133568271Y-77754166D01*
X133568271Y-77754166D02*
X133520652Y-77658928D01*
X133520652Y-77658928D02*
X133520652Y-77516071D01*
X133520652Y-77516071D02*
X133568271Y-77420833D01*
X133568271Y-77420833D02*
X133663509Y-77373214D01*
X133663509Y-77373214D02*
X134187319Y-77373214D01*
X133663509Y-76563690D02*
X133663509Y-76897023D01*
X134187319Y-76897023D02*
X133187319Y-76897023D01*
X133187319Y-76897023D02*
X133187319Y-76420833D01*
X120738095Y-87454819D02*
X120738095Y-88264342D01*
X120738095Y-88264342D02*
X120785714Y-88359580D01*
X120785714Y-88359580D02*
X120833333Y-88407200D01*
X120833333Y-88407200D02*
X120928571Y-88454819D01*
X120928571Y-88454819D02*
X121119047Y-88454819D01*
X121119047Y-88454819D02*
X121214285Y-88407200D01*
X121214285Y-88407200D02*
X121261904Y-88359580D01*
X121261904Y-88359580D02*
X121309523Y-88264342D01*
X121309523Y-88264342D02*
X121309523Y-87454819D01*
X121690476Y-87454819D02*
X122309523Y-87454819D01*
X122309523Y-87454819D02*
X121976190Y-87835771D01*
X121976190Y-87835771D02*
X122119047Y-87835771D01*
X122119047Y-87835771D02*
X122214285Y-87883390D01*
X122214285Y-87883390D02*
X122261904Y-87931009D01*
X122261904Y-87931009D02*
X122309523Y-88026247D01*
X122309523Y-88026247D02*
X122309523Y-88264342D01*
X122309523Y-88264342D02*
X122261904Y-88359580D01*
X122261904Y-88359580D02*
X122214285Y-88407200D01*
X122214285Y-88407200D02*
X122119047Y-88454819D01*
X122119047Y-88454819D02*
X121833333Y-88454819D01*
X121833333Y-88454819D02*
X121738095Y-88407200D01*
X121738095Y-88407200D02*
X121690476Y-88359580D01*
X143050057Y-75166666D02*
X143002438Y-75119047D01*
X143002438Y-75119047D02*
X142954819Y-75023809D01*
X142954819Y-75023809D02*
X142954819Y-74785714D01*
X142954819Y-74785714D02*
X143002438Y-74690476D01*
X143002438Y-74690476D02*
X143050057Y-74642857D01*
X143050057Y-74642857D02*
X143145295Y-74595238D01*
X143145295Y-74595238D02*
X143240533Y-74595238D01*
X143240533Y-74595238D02*
X143383390Y-74642857D01*
X143383390Y-74642857D02*
X143954819Y-75214285D01*
X143954819Y-75214285D02*
X143954819Y-74595238D01*
X143050057Y-74214285D02*
X143002438Y-74166666D01*
X143002438Y-74166666D02*
X142954819Y-74071428D01*
X142954819Y-74071428D02*
X142954819Y-73833333D01*
X142954819Y-73833333D02*
X143002438Y-73738095D01*
X143002438Y-73738095D02*
X143050057Y-73690476D01*
X143050057Y-73690476D02*
X143145295Y-73642857D01*
X143145295Y-73642857D02*
X143240533Y-73642857D01*
X143240533Y-73642857D02*
X143383390Y-73690476D01*
X143383390Y-73690476D02*
X143954819Y-74261904D01*
X143954819Y-74261904D02*
X143954819Y-73642857D01*
X143954819Y-73214285D02*
X142954819Y-73214285D01*
X143573866Y-73119047D02*
X143954819Y-72833333D01*
X143288152Y-72833333D02*
X143669104Y-73214285D01*
X154309523Y-77304819D02*
X153738095Y-77304819D01*
X154023809Y-77304819D02*
X154023809Y-76304819D01*
X154023809Y-76304819D02*
X153928571Y-76447676D01*
X153928571Y-76447676D02*
X153833333Y-76542914D01*
X153833333Y-76542914D02*
X153738095Y-76590533D01*
X154690476Y-76400057D02*
X154738095Y-76352438D01*
X154738095Y-76352438D02*
X154833333Y-76304819D01*
X154833333Y-76304819D02*
X155071428Y-76304819D01*
X155071428Y-76304819D02*
X155166666Y-76352438D01*
X155166666Y-76352438D02*
X155214285Y-76400057D01*
X155214285Y-76400057D02*
X155261904Y-76495295D01*
X155261904Y-76495295D02*
X155261904Y-76590533D01*
X155261904Y-76590533D02*
X155214285Y-76733390D01*
X155214285Y-76733390D02*
X154642857Y-77304819D01*
X154642857Y-77304819D02*
X155261904Y-77304819D01*
X158454819Y-95285715D02*
X157978628Y-95619048D01*
X158454819Y-95857143D02*
X157454819Y-95857143D01*
X157454819Y-95857143D02*
X157454819Y-95476191D01*
X157454819Y-95476191D02*
X157502438Y-95380953D01*
X157502438Y-95380953D02*
X157550057Y-95333334D01*
X157550057Y-95333334D02*
X157645295Y-95285715D01*
X157645295Y-95285715D02*
X157788152Y-95285715D01*
X157788152Y-95285715D02*
X157883390Y-95333334D01*
X157883390Y-95333334D02*
X157931009Y-95380953D01*
X157931009Y-95380953D02*
X157978628Y-95476191D01*
X157978628Y-95476191D02*
X157978628Y-95857143D01*
X158550057Y-95095239D02*
X158550057Y-94333334D01*
X158454819Y-94095238D02*
X157454819Y-94095238D01*
X157454819Y-94095238D02*
X157454819Y-93714286D01*
X157454819Y-93714286D02*
X157502438Y-93619048D01*
X157502438Y-93619048D02*
X157550057Y-93571429D01*
X157550057Y-93571429D02*
X157645295Y-93523810D01*
X157645295Y-93523810D02*
X157788152Y-93523810D01*
X157788152Y-93523810D02*
X157883390Y-93571429D01*
X157883390Y-93571429D02*
X157931009Y-93619048D01*
X157931009Y-93619048D02*
X157978628Y-93714286D01*
X157978628Y-93714286D02*
X157978628Y-94095238D01*
X158454819Y-92952381D02*
X158407200Y-93047619D01*
X158407200Y-93047619D02*
X158359580Y-93095238D01*
X158359580Y-93095238D02*
X158264342Y-93142857D01*
X158264342Y-93142857D02*
X157978628Y-93142857D01*
X157978628Y-93142857D02*
X157883390Y-93095238D01*
X157883390Y-93095238D02*
X157835771Y-93047619D01*
X157835771Y-93047619D02*
X157788152Y-92952381D01*
X157788152Y-92952381D02*
X157788152Y-92809524D01*
X157788152Y-92809524D02*
X157835771Y-92714286D01*
X157835771Y-92714286D02*
X157883390Y-92666667D01*
X157883390Y-92666667D02*
X157978628Y-92619048D01*
X157978628Y-92619048D02*
X158264342Y-92619048D01*
X158264342Y-92619048D02*
X158359580Y-92666667D01*
X158359580Y-92666667D02*
X158407200Y-92714286D01*
X158407200Y-92714286D02*
X158454819Y-92809524D01*
X158454819Y-92809524D02*
X158454819Y-92952381D01*
X157788152Y-92333333D02*
X157788152Y-91952381D01*
X157454819Y-92190476D02*
X158311961Y-92190476D01*
X158311961Y-92190476D02*
X158407200Y-92142857D01*
X158407200Y-92142857D02*
X158454819Y-92047619D01*
X158454819Y-92047619D02*
X158454819Y-91952381D01*
X158407200Y-91238095D02*
X158454819Y-91333333D01*
X158454819Y-91333333D02*
X158454819Y-91523809D01*
X158454819Y-91523809D02*
X158407200Y-91619047D01*
X158407200Y-91619047D02*
X158311961Y-91666666D01*
X158311961Y-91666666D02*
X157931009Y-91666666D01*
X157931009Y-91666666D02*
X157835771Y-91619047D01*
X157835771Y-91619047D02*
X157788152Y-91523809D01*
X157788152Y-91523809D02*
X157788152Y-91333333D01*
X157788152Y-91333333D02*
X157835771Y-91238095D01*
X157835771Y-91238095D02*
X157931009Y-91190476D01*
X157931009Y-91190476D02*
X158026247Y-91190476D01*
X158026247Y-91190476D02*
X158121485Y-91666666D01*
X157788152Y-90761904D02*
X158454819Y-90761904D01*
X157883390Y-90761904D02*
X157835771Y-90714285D01*
X157835771Y-90714285D02*
X157788152Y-90619047D01*
X157788152Y-90619047D02*
X157788152Y-90476190D01*
X157788152Y-90476190D02*
X157835771Y-90380952D01*
X157835771Y-90380952D02*
X157931009Y-90333333D01*
X157931009Y-90333333D02*
X158454819Y-90333333D01*
X157788152Y-89999999D02*
X157788152Y-89619047D01*
X157454819Y-89857142D02*
X158311961Y-89857142D01*
X158311961Y-89857142D02*
X158407200Y-89809523D01*
X158407200Y-89809523D02*
X158454819Y-89714285D01*
X158454819Y-89714285D02*
X158454819Y-89619047D01*
X158454819Y-89285713D02*
X157788152Y-89285713D01*
X157454819Y-89285713D02*
X157502438Y-89333332D01*
X157502438Y-89333332D02*
X157550057Y-89285713D01*
X157550057Y-89285713D02*
X157502438Y-89238094D01*
X157502438Y-89238094D02*
X157454819Y-89285713D01*
X157454819Y-89285713D02*
X157550057Y-89285713D01*
X158454819Y-88666666D02*
X158407200Y-88761904D01*
X158407200Y-88761904D02*
X158359580Y-88809523D01*
X158359580Y-88809523D02*
X158264342Y-88857142D01*
X158264342Y-88857142D02*
X157978628Y-88857142D01*
X157978628Y-88857142D02*
X157883390Y-88809523D01*
X157883390Y-88809523D02*
X157835771Y-88761904D01*
X157835771Y-88761904D02*
X157788152Y-88666666D01*
X157788152Y-88666666D02*
X157788152Y-88523809D01*
X157788152Y-88523809D02*
X157835771Y-88428571D01*
X157835771Y-88428571D02*
X157883390Y-88380952D01*
X157883390Y-88380952D02*
X157978628Y-88333333D01*
X157978628Y-88333333D02*
X158264342Y-88333333D01*
X158264342Y-88333333D02*
X158359580Y-88380952D01*
X158359580Y-88380952D02*
X158407200Y-88428571D01*
X158407200Y-88428571D02*
X158454819Y-88523809D01*
X158454819Y-88523809D02*
X158454819Y-88666666D01*
X158454819Y-87904761D02*
X157788152Y-87904761D01*
X157883390Y-87904761D02*
X157835771Y-87857142D01*
X157835771Y-87857142D02*
X157788152Y-87761904D01*
X157788152Y-87761904D02*
X157788152Y-87619047D01*
X157788152Y-87619047D02*
X157835771Y-87523809D01*
X157835771Y-87523809D02*
X157931009Y-87476190D01*
X157931009Y-87476190D02*
X158454819Y-87476190D01*
X157931009Y-87476190D02*
X157835771Y-87428571D01*
X157835771Y-87428571D02*
X157788152Y-87333333D01*
X157788152Y-87333333D02*
X157788152Y-87190476D01*
X157788152Y-87190476D02*
X157835771Y-87095237D01*
X157835771Y-87095237D02*
X157931009Y-87047618D01*
X157931009Y-87047618D02*
X158454819Y-87047618D01*
X158407200Y-86190476D02*
X158454819Y-86285714D01*
X158454819Y-86285714D02*
X158454819Y-86476190D01*
X158454819Y-86476190D02*
X158407200Y-86571428D01*
X158407200Y-86571428D02*
X158311961Y-86619047D01*
X158311961Y-86619047D02*
X157931009Y-86619047D01*
X157931009Y-86619047D02*
X157835771Y-86571428D01*
X157835771Y-86571428D02*
X157788152Y-86476190D01*
X157788152Y-86476190D02*
X157788152Y-86285714D01*
X157788152Y-86285714D02*
X157835771Y-86190476D01*
X157835771Y-86190476D02*
X157931009Y-86142857D01*
X157931009Y-86142857D02*
X158026247Y-86142857D01*
X158026247Y-86142857D02*
X158121485Y-86619047D01*
X157788152Y-85857142D02*
X157788152Y-85476190D01*
X157454819Y-85714285D02*
X158311961Y-85714285D01*
X158311961Y-85714285D02*
X158407200Y-85666666D01*
X158407200Y-85666666D02*
X158454819Y-85571428D01*
X158454819Y-85571428D02*
X158454819Y-85476190D01*
X158407200Y-84761904D02*
X158454819Y-84857142D01*
X158454819Y-84857142D02*
X158454819Y-85047618D01*
X158454819Y-85047618D02*
X158407200Y-85142856D01*
X158407200Y-85142856D02*
X158311961Y-85190475D01*
X158311961Y-85190475D02*
X157931009Y-85190475D01*
X157931009Y-85190475D02*
X157835771Y-85142856D01*
X157835771Y-85142856D02*
X157788152Y-85047618D01*
X157788152Y-85047618D02*
X157788152Y-84857142D01*
X157788152Y-84857142D02*
X157835771Y-84761904D01*
X157835771Y-84761904D02*
X157931009Y-84714285D01*
X157931009Y-84714285D02*
X158026247Y-84714285D01*
X158026247Y-84714285D02*
X158121485Y-85190475D01*
X158454819Y-84285713D02*
X157788152Y-84285713D01*
X157978628Y-84285713D02*
X157883390Y-84238094D01*
X157883390Y-84238094D02*
X157835771Y-84190475D01*
X157835771Y-84190475D02*
X157788152Y-84095237D01*
X157788152Y-84095237D02*
X157788152Y-83999999D01*
X150053571Y-77864819D02*
X149482143Y-77864819D01*
X149767857Y-77864819D02*
X149767857Y-76864819D01*
X149767857Y-76864819D02*
X149672619Y-77007676D01*
X149672619Y-77007676D02*
X149577381Y-77102914D01*
X149577381Y-77102914D02*
X149482143Y-77150533D01*
X150672619Y-76864819D02*
X150767857Y-76864819D01*
X150767857Y-76864819D02*
X150863095Y-76912438D01*
X150863095Y-76912438D02*
X150910714Y-76960057D01*
X150910714Y-76960057D02*
X150958333Y-77055295D01*
X150958333Y-77055295D02*
X151005952Y-77245771D01*
X151005952Y-77245771D02*
X151005952Y-77483866D01*
X151005952Y-77483866D02*
X150958333Y-77674342D01*
X150958333Y-77674342D02*
X150910714Y-77769580D01*
X150910714Y-77769580D02*
X150863095Y-77817200D01*
X150863095Y-77817200D02*
X150767857Y-77864819D01*
X150767857Y-77864819D02*
X150672619Y-77864819D01*
X150672619Y-77864819D02*
X150577381Y-77817200D01*
X150577381Y-77817200D02*
X150529762Y-77769580D01*
X150529762Y-77769580D02*
X150482143Y-77674342D01*
X150482143Y-77674342D02*
X150434524Y-77483866D01*
X150434524Y-77483866D02*
X150434524Y-77245771D01*
X150434524Y-77245771D02*
X150482143Y-77055295D01*
X150482143Y-77055295D02*
X150529762Y-76960057D01*
X150529762Y-76960057D02*
X150577381Y-76912438D01*
X150577381Y-76912438D02*
X150672619Y-76864819D01*
X151434524Y-77198152D02*
X151434524Y-77864819D01*
X151434524Y-77293390D02*
X151482143Y-77245771D01*
X151482143Y-77245771D02*
X151577381Y-77198152D01*
X151577381Y-77198152D02*
X151720238Y-77198152D01*
X151720238Y-77198152D02*
X151815476Y-77245771D01*
X151815476Y-77245771D02*
X151863095Y-77341009D01*
X151863095Y-77341009D02*
X151863095Y-77864819D01*
X152672619Y-77341009D02*
X152339286Y-77341009D01*
X152339286Y-77864819D02*
X152339286Y-76864819D01*
X152339286Y-76864819D02*
X152815476Y-76864819D01*
X140717319Y-79746428D02*
X140717319Y-80317856D01*
X140717319Y-80032142D02*
X139717319Y-80032142D01*
X139717319Y-80032142D02*
X139860176Y-80127380D01*
X139860176Y-80127380D02*
X139955414Y-80222618D01*
X139955414Y-80222618D02*
X140003033Y-80317856D01*
X140145890Y-79174999D02*
X140098271Y-79270237D01*
X140098271Y-79270237D02*
X140050652Y-79317856D01*
X140050652Y-79317856D02*
X139955414Y-79365475D01*
X139955414Y-79365475D02*
X139907795Y-79365475D01*
X139907795Y-79365475D02*
X139812557Y-79317856D01*
X139812557Y-79317856D02*
X139764938Y-79270237D01*
X139764938Y-79270237D02*
X139717319Y-79174999D01*
X139717319Y-79174999D02*
X139717319Y-78984523D01*
X139717319Y-78984523D02*
X139764938Y-78889285D01*
X139764938Y-78889285D02*
X139812557Y-78841666D01*
X139812557Y-78841666D02*
X139907795Y-78794047D01*
X139907795Y-78794047D02*
X139955414Y-78794047D01*
X139955414Y-78794047D02*
X140050652Y-78841666D01*
X140050652Y-78841666D02*
X140098271Y-78889285D01*
X140098271Y-78889285D02*
X140145890Y-78984523D01*
X140145890Y-78984523D02*
X140145890Y-79174999D01*
X140145890Y-79174999D02*
X140193509Y-79270237D01*
X140193509Y-79270237D02*
X140241128Y-79317856D01*
X140241128Y-79317856D02*
X140336366Y-79365475D01*
X140336366Y-79365475D02*
X140526842Y-79365475D01*
X140526842Y-79365475D02*
X140622080Y-79317856D01*
X140622080Y-79317856D02*
X140669700Y-79270237D01*
X140669700Y-79270237D02*
X140717319Y-79174999D01*
X140717319Y-79174999D02*
X140717319Y-78984523D01*
X140717319Y-78984523D02*
X140669700Y-78889285D01*
X140669700Y-78889285D02*
X140622080Y-78841666D01*
X140622080Y-78841666D02*
X140526842Y-78794047D01*
X140526842Y-78794047D02*
X140336366Y-78794047D01*
X140336366Y-78794047D02*
X140241128Y-78841666D01*
X140241128Y-78841666D02*
X140193509Y-78889285D01*
X140193509Y-78889285D02*
X140145890Y-78984523D01*
X139717319Y-78174999D02*
X139717319Y-78079761D01*
X139717319Y-78079761D02*
X139764938Y-77984523D01*
X139764938Y-77984523D02*
X139812557Y-77936904D01*
X139812557Y-77936904D02*
X139907795Y-77889285D01*
X139907795Y-77889285D02*
X140098271Y-77841666D01*
X140098271Y-77841666D02*
X140336366Y-77841666D01*
X140336366Y-77841666D02*
X140526842Y-77889285D01*
X140526842Y-77889285D02*
X140622080Y-77936904D01*
X140622080Y-77936904D02*
X140669700Y-77984523D01*
X140669700Y-77984523D02*
X140717319Y-78079761D01*
X140717319Y-78079761D02*
X140717319Y-78174999D01*
X140717319Y-78174999D02*
X140669700Y-78270237D01*
X140669700Y-78270237D02*
X140622080Y-78317856D01*
X140622080Y-78317856D02*
X140526842Y-78365475D01*
X140526842Y-78365475D02*
X140336366Y-78413094D01*
X140336366Y-78413094D02*
X140098271Y-78413094D01*
X140098271Y-78413094D02*
X139907795Y-78365475D01*
X139907795Y-78365475D02*
X139812557Y-78317856D01*
X139812557Y-78317856D02*
X139764938Y-78270237D01*
X139764938Y-78270237D02*
X139717319Y-78174999D01*
X140717319Y-77413094D02*
X139717319Y-77413094D01*
X140336366Y-77317856D02*
X140717319Y-77032142D01*
X140050652Y-77032142D02*
X140431604Y-77413094D01*
X148867319Y-79658928D02*
X148867319Y-80230356D01*
X148867319Y-79944642D02*
X147867319Y-79944642D01*
X147867319Y-79944642D02*
X148010176Y-80039880D01*
X148010176Y-80039880D02*
X148105414Y-80135118D01*
X148105414Y-80135118D02*
X148153033Y-80230356D01*
X147867319Y-79039880D02*
X147867319Y-78944642D01*
X147867319Y-78944642D02*
X147914938Y-78849404D01*
X147914938Y-78849404D02*
X147962557Y-78801785D01*
X147962557Y-78801785D02*
X148057795Y-78754166D01*
X148057795Y-78754166D02*
X148248271Y-78706547D01*
X148248271Y-78706547D02*
X148486366Y-78706547D01*
X148486366Y-78706547D02*
X148676842Y-78754166D01*
X148676842Y-78754166D02*
X148772080Y-78801785D01*
X148772080Y-78801785D02*
X148819700Y-78849404D01*
X148819700Y-78849404D02*
X148867319Y-78944642D01*
X148867319Y-78944642D02*
X148867319Y-79039880D01*
X148867319Y-79039880D02*
X148819700Y-79135118D01*
X148819700Y-79135118D02*
X148772080Y-79182737D01*
X148772080Y-79182737D02*
X148676842Y-79230356D01*
X148676842Y-79230356D02*
X148486366Y-79277975D01*
X148486366Y-79277975D02*
X148248271Y-79277975D01*
X148248271Y-79277975D02*
X148057795Y-79230356D01*
X148057795Y-79230356D02*
X147962557Y-79182737D01*
X147962557Y-79182737D02*
X147914938Y-79135118D01*
X147914938Y-79135118D02*
X147867319Y-79039880D01*
X147867319Y-78087499D02*
X147867319Y-77992261D01*
X147867319Y-77992261D02*
X147914938Y-77897023D01*
X147914938Y-77897023D02*
X147962557Y-77849404D01*
X147962557Y-77849404D02*
X148057795Y-77801785D01*
X148057795Y-77801785D02*
X148248271Y-77754166D01*
X148248271Y-77754166D02*
X148486366Y-77754166D01*
X148486366Y-77754166D02*
X148676842Y-77801785D01*
X148676842Y-77801785D02*
X148772080Y-77849404D01*
X148772080Y-77849404D02*
X148819700Y-77897023D01*
X148819700Y-77897023D02*
X148867319Y-77992261D01*
X148867319Y-77992261D02*
X148867319Y-78087499D01*
X148867319Y-78087499D02*
X148819700Y-78182737D01*
X148819700Y-78182737D02*
X148772080Y-78230356D01*
X148772080Y-78230356D02*
X148676842Y-78277975D01*
X148676842Y-78277975D02*
X148486366Y-78325594D01*
X148486366Y-78325594D02*
X148248271Y-78325594D01*
X148248271Y-78325594D02*
X148057795Y-78277975D01*
X148057795Y-78277975D02*
X147962557Y-78230356D01*
X147962557Y-78230356D02*
X147914938Y-78182737D01*
X147914938Y-78182737D02*
X147867319Y-78087499D01*
X148867319Y-77325594D02*
X147867319Y-77325594D01*
X148486366Y-77230356D02*
X148867319Y-76944642D01*
X148200652Y-76944642D02*
X148581604Y-77325594D01*
X114261904Y-81454819D02*
X113690476Y-81454819D01*
X113976190Y-81454819D02*
X113976190Y-80454819D01*
X113976190Y-80454819D02*
X113880952Y-80597676D01*
X113880952Y-80597676D02*
X113785714Y-80692914D01*
X113785714Y-80692914D02*
X113690476Y-80740533D01*
X114880952Y-80454819D02*
X114976190Y-80454819D01*
X114976190Y-80454819D02*
X115071428Y-80502438D01*
X115071428Y-80502438D02*
X115119047Y-80550057D01*
X115119047Y-80550057D02*
X115166666Y-80645295D01*
X115166666Y-80645295D02*
X115214285Y-80835771D01*
X115214285Y-80835771D02*
X115214285Y-81073866D01*
X115214285Y-81073866D02*
X115166666Y-81264342D01*
X115166666Y-81264342D02*
X115119047Y-81359580D01*
X115119047Y-81359580D02*
X115071428Y-81407200D01*
X115071428Y-81407200D02*
X114976190Y-81454819D01*
X114976190Y-81454819D02*
X114880952Y-81454819D01*
X114880952Y-81454819D02*
X114785714Y-81407200D01*
X114785714Y-81407200D02*
X114738095Y-81359580D01*
X114738095Y-81359580D02*
X114690476Y-81264342D01*
X114690476Y-81264342D02*
X114642857Y-81073866D01*
X114642857Y-81073866D02*
X114642857Y-80835771D01*
X114642857Y-80835771D02*
X114690476Y-80645295D01*
X114690476Y-80645295D02*
X114738095Y-80550057D01*
X114738095Y-80550057D02*
X114785714Y-80502438D01*
X114785714Y-80502438D02*
X114880952Y-80454819D01*
X115833333Y-80454819D02*
X115928571Y-80454819D01*
X115928571Y-80454819D02*
X116023809Y-80502438D01*
X116023809Y-80502438D02*
X116071428Y-80550057D01*
X116071428Y-80550057D02*
X116119047Y-80645295D01*
X116119047Y-80645295D02*
X116166666Y-80835771D01*
X116166666Y-80835771D02*
X116166666Y-81073866D01*
X116166666Y-81073866D02*
X116119047Y-81264342D01*
X116119047Y-81264342D02*
X116071428Y-81359580D01*
X116071428Y-81359580D02*
X116023809Y-81407200D01*
X116023809Y-81407200D02*
X115928571Y-81454819D01*
X115928571Y-81454819D02*
X115833333Y-81454819D01*
X115833333Y-81454819D02*
X115738095Y-81407200D01*
X115738095Y-81407200D02*
X115690476Y-81359580D01*
X115690476Y-81359580D02*
X115642857Y-81264342D01*
X115642857Y-81264342D02*
X115595238Y-81073866D01*
X115595238Y-81073866D02*
X115595238Y-80835771D01*
X115595238Y-80835771D02*
X115642857Y-80645295D01*
X115642857Y-80645295D02*
X115690476Y-80550057D01*
X115690476Y-80550057D02*
X115738095Y-80502438D01*
X115738095Y-80502438D02*
X115833333Y-80454819D01*
X116595238Y-81454819D02*
X116595238Y-80454819D01*
X116595238Y-80454819D02*
X116928571Y-81169104D01*
X116928571Y-81169104D02*
X117261904Y-80454819D01*
X117261904Y-80454819D02*
X117261904Y-81454819D01*
X130462557Y-80706547D02*
X130414938Y-80658928D01*
X130414938Y-80658928D02*
X130367319Y-80563690D01*
X130367319Y-80563690D02*
X130367319Y-80325595D01*
X130367319Y-80325595D02*
X130414938Y-80230357D01*
X130414938Y-80230357D02*
X130462557Y-80182738D01*
X130462557Y-80182738D02*
X130557795Y-80135119D01*
X130557795Y-80135119D02*
X130653033Y-80135119D01*
X130653033Y-80135119D02*
X130795890Y-80182738D01*
X130795890Y-80182738D02*
X131367319Y-80754166D01*
X131367319Y-80754166D02*
X131367319Y-80135119D01*
X130462557Y-79754166D02*
X130414938Y-79706547D01*
X130414938Y-79706547D02*
X130367319Y-79611309D01*
X130367319Y-79611309D02*
X130367319Y-79373214D01*
X130367319Y-79373214D02*
X130414938Y-79277976D01*
X130414938Y-79277976D02*
X130462557Y-79230357D01*
X130462557Y-79230357D02*
X130557795Y-79182738D01*
X130557795Y-79182738D02*
X130653033Y-79182738D01*
X130653033Y-79182738D02*
X130795890Y-79230357D01*
X130795890Y-79230357D02*
X131367319Y-79801785D01*
X131367319Y-79801785D02*
X131367319Y-79182738D01*
X130367319Y-78563690D02*
X130367319Y-78468452D01*
X130367319Y-78468452D02*
X130414938Y-78373214D01*
X130414938Y-78373214D02*
X130462557Y-78325595D01*
X130462557Y-78325595D02*
X130557795Y-78277976D01*
X130557795Y-78277976D02*
X130748271Y-78230357D01*
X130748271Y-78230357D02*
X130986366Y-78230357D01*
X130986366Y-78230357D02*
X131176842Y-78277976D01*
X131176842Y-78277976D02*
X131272080Y-78325595D01*
X131272080Y-78325595D02*
X131319700Y-78373214D01*
X131319700Y-78373214D02*
X131367319Y-78468452D01*
X131367319Y-78468452D02*
X131367319Y-78563690D01*
X131367319Y-78563690D02*
X131319700Y-78658928D01*
X131319700Y-78658928D02*
X131272080Y-78706547D01*
X131272080Y-78706547D02*
X131176842Y-78754166D01*
X131176842Y-78754166D02*
X130986366Y-78801785D01*
X130986366Y-78801785D02*
X130748271Y-78801785D01*
X130748271Y-78801785D02*
X130557795Y-78754166D01*
X130557795Y-78754166D02*
X130462557Y-78706547D01*
X130462557Y-78706547D02*
X130414938Y-78658928D01*
X130414938Y-78658928D02*
X130367319Y-78563690D01*
X130700652Y-77801785D02*
X131367319Y-77801785D01*
X130795890Y-77801785D02*
X130748271Y-77754166D01*
X130748271Y-77754166D02*
X130700652Y-77658928D01*
X130700652Y-77658928D02*
X130700652Y-77516071D01*
X130700652Y-77516071D02*
X130748271Y-77420833D01*
X130748271Y-77420833D02*
X130843509Y-77373214D01*
X130843509Y-77373214D02*
X131367319Y-77373214D01*
X130843509Y-76563690D02*
X130843509Y-76897023D01*
X131367319Y-76897023D02*
X130367319Y-76897023D01*
X130367319Y-76897023D02*
X130367319Y-76420833D01*
X153478571Y-85444819D02*
X152907143Y-85444819D01*
X153192857Y-85444819D02*
X153192857Y-84444819D01*
X153192857Y-84444819D02*
X153097619Y-84587676D01*
X153097619Y-84587676D02*
X153002381Y-84682914D01*
X153002381Y-84682914D02*
X152907143Y-84730533D01*
X154097619Y-84444819D02*
X154192857Y-84444819D01*
X154192857Y-84444819D02*
X154288095Y-84492438D01*
X154288095Y-84492438D02*
X154335714Y-84540057D01*
X154335714Y-84540057D02*
X154383333Y-84635295D01*
X154383333Y-84635295D02*
X154430952Y-84825771D01*
X154430952Y-84825771D02*
X154430952Y-85063866D01*
X154430952Y-85063866D02*
X154383333Y-85254342D01*
X154383333Y-85254342D02*
X154335714Y-85349580D01*
X154335714Y-85349580D02*
X154288095Y-85397200D01*
X154288095Y-85397200D02*
X154192857Y-85444819D01*
X154192857Y-85444819D02*
X154097619Y-85444819D01*
X154097619Y-85444819D02*
X154002381Y-85397200D01*
X154002381Y-85397200D02*
X153954762Y-85349580D01*
X153954762Y-85349580D02*
X153907143Y-85254342D01*
X153907143Y-85254342D02*
X153859524Y-85063866D01*
X153859524Y-85063866D02*
X153859524Y-84825771D01*
X153859524Y-84825771D02*
X153907143Y-84635295D01*
X153907143Y-84635295D02*
X153954762Y-84540057D01*
X153954762Y-84540057D02*
X154002381Y-84492438D01*
X154002381Y-84492438D02*
X154097619Y-84444819D01*
X155288095Y-84778152D02*
X155288095Y-85444819D01*
X154859524Y-84778152D02*
X154859524Y-85301961D01*
X154859524Y-85301961D02*
X154907143Y-85397200D01*
X154907143Y-85397200D02*
X155002381Y-85444819D01*
X155002381Y-85444819D02*
X155145238Y-85444819D01*
X155145238Y-85444819D02*
X155240476Y-85397200D01*
X155240476Y-85397200D02*
X155288095Y-85349580D01*
X156097619Y-84921009D02*
X155764286Y-84921009D01*
X155764286Y-85444819D02*
X155764286Y-84444819D01*
X155764286Y-84444819D02*
X156240476Y-84444819D01*
X133838095Y-90204819D02*
X133838095Y-91014342D01*
X133838095Y-91014342D02*
X133885714Y-91109580D01*
X133885714Y-91109580D02*
X133933333Y-91157200D01*
X133933333Y-91157200D02*
X134028571Y-91204819D01*
X134028571Y-91204819D02*
X134219047Y-91204819D01*
X134219047Y-91204819D02*
X134314285Y-91157200D01*
X134314285Y-91157200D02*
X134361904Y-91109580D01*
X134361904Y-91109580D02*
X134409523Y-91014342D01*
X134409523Y-91014342D02*
X134409523Y-90204819D01*
X135314285Y-90204819D02*
X135123809Y-90204819D01*
X135123809Y-90204819D02*
X135028571Y-90252438D01*
X135028571Y-90252438D02*
X134980952Y-90300057D01*
X134980952Y-90300057D02*
X134885714Y-90442914D01*
X134885714Y-90442914D02*
X134838095Y-90633390D01*
X134838095Y-90633390D02*
X134838095Y-91014342D01*
X134838095Y-91014342D02*
X134885714Y-91109580D01*
X134885714Y-91109580D02*
X134933333Y-91157200D01*
X134933333Y-91157200D02*
X135028571Y-91204819D01*
X135028571Y-91204819D02*
X135219047Y-91204819D01*
X135219047Y-91204819D02*
X135314285Y-91157200D01*
X135314285Y-91157200D02*
X135361904Y-91109580D01*
X135361904Y-91109580D02*
X135409523Y-91014342D01*
X135409523Y-91014342D02*
X135409523Y-90776247D01*
X135409523Y-90776247D02*
X135361904Y-90681009D01*
X135361904Y-90681009D02*
X135314285Y-90633390D01*
X135314285Y-90633390D02*
X135219047Y-90585771D01*
X135219047Y-90585771D02*
X135028571Y-90585771D01*
X135028571Y-90585771D02*
X134933333Y-90633390D01*
X134933333Y-90633390D02*
X134885714Y-90681009D01*
X134885714Y-90681009D02*
X134838095Y-90776247D01*
X152430952Y-79550057D02*
X152478571Y-79502438D01*
X152478571Y-79502438D02*
X152573809Y-79454819D01*
X152573809Y-79454819D02*
X152811904Y-79454819D01*
X152811904Y-79454819D02*
X152907142Y-79502438D01*
X152907142Y-79502438D02*
X152954761Y-79550057D01*
X152954761Y-79550057D02*
X153002380Y-79645295D01*
X153002380Y-79645295D02*
X153002380Y-79740533D01*
X153002380Y-79740533D02*
X152954761Y-79883390D01*
X152954761Y-79883390D02*
X152383333Y-80454819D01*
X152383333Y-80454819D02*
X153002380Y-80454819D01*
X153383333Y-79550057D02*
X153430952Y-79502438D01*
X153430952Y-79502438D02*
X153526190Y-79454819D01*
X153526190Y-79454819D02*
X153764285Y-79454819D01*
X153764285Y-79454819D02*
X153859523Y-79502438D01*
X153859523Y-79502438D02*
X153907142Y-79550057D01*
X153907142Y-79550057D02*
X153954761Y-79645295D01*
X153954761Y-79645295D02*
X153954761Y-79740533D01*
X153954761Y-79740533D02*
X153907142Y-79883390D01*
X153907142Y-79883390D02*
X153335714Y-80454819D01*
X153335714Y-80454819D02*
X153954761Y-80454819D01*
X154573809Y-79454819D02*
X154669047Y-79454819D01*
X154669047Y-79454819D02*
X154764285Y-79502438D01*
X154764285Y-79502438D02*
X154811904Y-79550057D01*
X154811904Y-79550057D02*
X154859523Y-79645295D01*
X154859523Y-79645295D02*
X154907142Y-79835771D01*
X154907142Y-79835771D02*
X154907142Y-80073866D01*
X154907142Y-80073866D02*
X154859523Y-80264342D01*
X154859523Y-80264342D02*
X154811904Y-80359580D01*
X154811904Y-80359580D02*
X154764285Y-80407200D01*
X154764285Y-80407200D02*
X154669047Y-80454819D01*
X154669047Y-80454819D02*
X154573809Y-80454819D01*
X154573809Y-80454819D02*
X154478571Y-80407200D01*
X154478571Y-80407200D02*
X154430952Y-80359580D01*
X154430952Y-80359580D02*
X154383333Y-80264342D01*
X154383333Y-80264342D02*
X154335714Y-80073866D01*
X154335714Y-80073866D02*
X154335714Y-79835771D01*
X154335714Y-79835771D02*
X154383333Y-79645295D01*
X154383333Y-79645295D02*
X154430952Y-79550057D01*
X154430952Y-79550057D02*
X154478571Y-79502438D01*
X154478571Y-79502438D02*
X154573809Y-79454819D01*
X155335714Y-79788152D02*
X155335714Y-80454819D01*
X155335714Y-79883390D02*
X155383333Y-79835771D01*
X155383333Y-79835771D02*
X155478571Y-79788152D01*
X155478571Y-79788152D02*
X155621428Y-79788152D01*
X155621428Y-79788152D02*
X155716666Y-79835771D01*
X155716666Y-79835771D02*
X155764285Y-79931009D01*
X155764285Y-79931009D02*
X155764285Y-80454819D01*
X156573809Y-79931009D02*
X156240476Y-79931009D01*
X156240476Y-80454819D02*
X156240476Y-79454819D01*
X156240476Y-79454819D02*
X156716666Y-79454819D01*
X153761905Y-73400057D02*
X153809524Y-73352438D01*
X153809524Y-73352438D02*
X153904762Y-73304819D01*
X153904762Y-73304819D02*
X154142857Y-73304819D01*
X154142857Y-73304819D02*
X154238095Y-73352438D01*
X154238095Y-73352438D02*
X154285714Y-73400057D01*
X154285714Y-73400057D02*
X154333333Y-73495295D01*
X154333333Y-73495295D02*
X154333333Y-73590533D01*
X154333333Y-73590533D02*
X154285714Y-73733390D01*
X154285714Y-73733390D02*
X153714286Y-74304819D01*
X153714286Y-74304819D02*
X154333333Y-74304819D01*
X154714286Y-73400057D02*
X154761905Y-73352438D01*
X154761905Y-73352438D02*
X154857143Y-73304819D01*
X154857143Y-73304819D02*
X155095238Y-73304819D01*
X155095238Y-73304819D02*
X155190476Y-73352438D01*
X155190476Y-73352438D02*
X155238095Y-73400057D01*
X155238095Y-73400057D02*
X155285714Y-73495295D01*
X155285714Y-73495295D02*
X155285714Y-73590533D01*
X155285714Y-73590533D02*
X155238095Y-73733390D01*
X155238095Y-73733390D02*
X154666667Y-74304819D01*
X154666667Y-74304819D02*
X155285714Y-74304819D01*
X155904762Y-73304819D02*
X156000000Y-73304819D01*
X156000000Y-73304819D02*
X156095238Y-73352438D01*
X156095238Y-73352438D02*
X156142857Y-73400057D01*
X156142857Y-73400057D02*
X156190476Y-73495295D01*
X156190476Y-73495295D02*
X156238095Y-73685771D01*
X156238095Y-73685771D02*
X156238095Y-73923866D01*
X156238095Y-73923866D02*
X156190476Y-74114342D01*
X156190476Y-74114342D02*
X156142857Y-74209580D01*
X156142857Y-74209580D02*
X156095238Y-74257200D01*
X156095238Y-74257200D02*
X156000000Y-74304819D01*
X156000000Y-74304819D02*
X155904762Y-74304819D01*
X155904762Y-74304819D02*
X155809524Y-74257200D01*
X155809524Y-74257200D02*
X155761905Y-74209580D01*
X155761905Y-74209580D02*
X155714286Y-74114342D01*
X155714286Y-74114342D02*
X155666667Y-73923866D01*
X155666667Y-73923866D02*
X155666667Y-73685771D01*
X155666667Y-73685771D02*
X155714286Y-73495295D01*
X155714286Y-73495295D02*
X155761905Y-73400057D01*
X155761905Y-73400057D02*
X155809524Y-73352438D01*
X155809524Y-73352438D02*
X155904762Y-73304819D01*
X131954761Y-81774819D02*
X131383333Y-81774819D01*
X131669047Y-81774819D02*
X131669047Y-80774819D01*
X131669047Y-80774819D02*
X131573809Y-80917676D01*
X131573809Y-80917676D02*
X131478571Y-81012914D01*
X131478571Y-81012914D02*
X131383333Y-81060533D01*
X132811904Y-81108152D02*
X132811904Y-81774819D01*
X132383333Y-81108152D02*
X132383333Y-81631961D01*
X132383333Y-81631961D02*
X132430952Y-81727200D01*
X132430952Y-81727200D02*
X132526190Y-81774819D01*
X132526190Y-81774819D02*
X132669047Y-81774819D01*
X132669047Y-81774819D02*
X132764285Y-81727200D01*
X132764285Y-81727200D02*
X132811904Y-81679580D01*
X133621428Y-81251009D02*
X133288095Y-81251009D01*
X133288095Y-81774819D02*
X133288095Y-80774819D01*
X133288095Y-80774819D02*
X133764285Y-80774819D01*
X114349404Y-86854819D02*
X113777976Y-86854819D01*
X114063690Y-86854819D02*
X114063690Y-85854819D01*
X114063690Y-85854819D02*
X113968452Y-85997676D01*
X113968452Y-85997676D02*
X113873214Y-86092914D01*
X113873214Y-86092914D02*
X113777976Y-86140533D01*
X114968452Y-85854819D02*
X115063690Y-85854819D01*
X115063690Y-85854819D02*
X115158928Y-85902438D01*
X115158928Y-85902438D02*
X115206547Y-85950057D01*
X115206547Y-85950057D02*
X115254166Y-86045295D01*
X115254166Y-86045295D02*
X115301785Y-86235771D01*
X115301785Y-86235771D02*
X115301785Y-86473866D01*
X115301785Y-86473866D02*
X115254166Y-86664342D01*
X115254166Y-86664342D02*
X115206547Y-86759580D01*
X115206547Y-86759580D02*
X115158928Y-86807200D01*
X115158928Y-86807200D02*
X115063690Y-86854819D01*
X115063690Y-86854819D02*
X114968452Y-86854819D01*
X114968452Y-86854819D02*
X114873214Y-86807200D01*
X114873214Y-86807200D02*
X114825595Y-86759580D01*
X114825595Y-86759580D02*
X114777976Y-86664342D01*
X114777976Y-86664342D02*
X114730357Y-86473866D01*
X114730357Y-86473866D02*
X114730357Y-86235771D01*
X114730357Y-86235771D02*
X114777976Y-86045295D01*
X114777976Y-86045295D02*
X114825595Y-85950057D01*
X114825595Y-85950057D02*
X114873214Y-85902438D01*
X114873214Y-85902438D02*
X114968452Y-85854819D01*
X115920833Y-85854819D02*
X116016071Y-85854819D01*
X116016071Y-85854819D02*
X116111309Y-85902438D01*
X116111309Y-85902438D02*
X116158928Y-85950057D01*
X116158928Y-85950057D02*
X116206547Y-86045295D01*
X116206547Y-86045295D02*
X116254166Y-86235771D01*
X116254166Y-86235771D02*
X116254166Y-86473866D01*
X116254166Y-86473866D02*
X116206547Y-86664342D01*
X116206547Y-86664342D02*
X116158928Y-86759580D01*
X116158928Y-86759580D02*
X116111309Y-86807200D01*
X116111309Y-86807200D02*
X116016071Y-86854819D01*
X116016071Y-86854819D02*
X115920833Y-86854819D01*
X115920833Y-86854819D02*
X115825595Y-86807200D01*
X115825595Y-86807200D02*
X115777976Y-86759580D01*
X115777976Y-86759580D02*
X115730357Y-86664342D01*
X115730357Y-86664342D02*
X115682738Y-86473866D01*
X115682738Y-86473866D02*
X115682738Y-86235771D01*
X115682738Y-86235771D02*
X115730357Y-86045295D01*
X115730357Y-86045295D02*
X115777976Y-85950057D01*
X115777976Y-85950057D02*
X115825595Y-85902438D01*
X115825595Y-85902438D02*
X115920833Y-85854819D01*
X116682738Y-86854819D02*
X116682738Y-85854819D01*
X116682738Y-85854819D02*
X117016071Y-86569104D01*
X117016071Y-86569104D02*
X117349404Y-85854819D01*
X117349404Y-85854819D02*
X117349404Y-86854819D01*
X136638152Y-86777976D02*
X137304819Y-86777976D01*
X136257200Y-87016071D02*
X136971485Y-87254166D01*
X136971485Y-87254166D02*
X136971485Y-86635119D01*
X136304819Y-86349404D02*
X136304819Y-85682738D01*
X136304819Y-85682738D02*
X137304819Y-86111309D01*
X137304819Y-85301785D02*
X136304819Y-85301785D01*
X136923866Y-85206547D02*
X137304819Y-84920833D01*
X136638152Y-84920833D02*
X137019104Y-85301785D01*
X160976190Y-85454819D02*
X161166666Y-85454819D01*
X161166666Y-85454819D02*
X161261904Y-85502438D01*
X161261904Y-85502438D02*
X161357142Y-85597676D01*
X161357142Y-85597676D02*
X161404761Y-85788152D01*
X161404761Y-85788152D02*
X161404761Y-86121485D01*
X161404761Y-86121485D02*
X161357142Y-86311961D01*
X161357142Y-86311961D02*
X161261904Y-86407200D01*
X161261904Y-86407200D02*
X161166666Y-86454819D01*
X161166666Y-86454819D02*
X160976190Y-86454819D01*
X160976190Y-86454819D02*
X160880952Y-86407200D01*
X160880952Y-86407200D02*
X160785714Y-86311961D01*
X160785714Y-86311961D02*
X160738095Y-86121485D01*
X160738095Y-86121485D02*
X160738095Y-85788152D01*
X160738095Y-85788152D02*
X160785714Y-85597676D01*
X160785714Y-85597676D02*
X160880952Y-85502438D01*
X160880952Y-85502438D02*
X160976190Y-85454819D01*
X162261904Y-85788152D02*
X162261904Y-86454819D01*
X161833333Y-85788152D02*
X161833333Y-86311961D01*
X161833333Y-86311961D02*
X161880952Y-86407200D01*
X161880952Y-86407200D02*
X161976190Y-86454819D01*
X161976190Y-86454819D02*
X162119047Y-86454819D01*
X162119047Y-86454819D02*
X162214285Y-86407200D01*
X162214285Y-86407200D02*
X162261904Y-86359580D01*
X162595238Y-85788152D02*
X162976190Y-85788152D01*
X162738095Y-85454819D02*
X162738095Y-86311961D01*
X162738095Y-86311961D02*
X162785714Y-86407200D01*
X162785714Y-86407200D02*
X162880952Y-86454819D01*
X162880952Y-86454819D02*
X162976190Y-86454819D01*
X163309524Y-85788152D02*
X163309524Y-86788152D01*
X163309524Y-85835771D02*
X163404762Y-85788152D01*
X163404762Y-85788152D02*
X163595238Y-85788152D01*
X163595238Y-85788152D02*
X163690476Y-85835771D01*
X163690476Y-85835771D02*
X163738095Y-85883390D01*
X163738095Y-85883390D02*
X163785714Y-85978628D01*
X163785714Y-85978628D02*
X163785714Y-86264342D01*
X163785714Y-86264342D02*
X163738095Y-86359580D01*
X163738095Y-86359580D02*
X163690476Y-86407200D01*
X163690476Y-86407200D02*
X163595238Y-86454819D01*
X163595238Y-86454819D02*
X163404762Y-86454819D01*
X163404762Y-86454819D02*
X163309524Y-86407200D01*
X164642857Y-85788152D02*
X164642857Y-86454819D01*
X164214286Y-85788152D02*
X164214286Y-86311961D01*
X164214286Y-86311961D02*
X164261905Y-86407200D01*
X164261905Y-86407200D02*
X164357143Y-86454819D01*
X164357143Y-86454819D02*
X164500000Y-86454819D01*
X164500000Y-86454819D02*
X164595238Y-86407200D01*
X164595238Y-86407200D02*
X164642857Y-86359580D01*
X164976191Y-85788152D02*
X165357143Y-85788152D01*
X165119048Y-85454819D02*
X165119048Y-86311961D01*
X165119048Y-86311961D02*
X165166667Y-86407200D01*
X165166667Y-86407200D02*
X165261905Y-86454819D01*
X165261905Y-86454819D02*
X165357143Y-86454819D01*
X137880952Y-71550057D02*
X137928571Y-71502438D01*
X137928571Y-71502438D02*
X138023809Y-71454819D01*
X138023809Y-71454819D02*
X138261904Y-71454819D01*
X138261904Y-71454819D02*
X138357142Y-71502438D01*
X138357142Y-71502438D02*
X138404761Y-71550057D01*
X138404761Y-71550057D02*
X138452380Y-71645295D01*
X138452380Y-71645295D02*
X138452380Y-71740533D01*
X138452380Y-71740533D02*
X138404761Y-71883390D01*
X138404761Y-71883390D02*
X137833333Y-72454819D01*
X137833333Y-72454819D02*
X138452380Y-72454819D01*
X138833333Y-71550057D02*
X138880952Y-71502438D01*
X138880952Y-71502438D02*
X138976190Y-71454819D01*
X138976190Y-71454819D02*
X139214285Y-71454819D01*
X139214285Y-71454819D02*
X139309523Y-71502438D01*
X139309523Y-71502438D02*
X139357142Y-71550057D01*
X139357142Y-71550057D02*
X139404761Y-71645295D01*
X139404761Y-71645295D02*
X139404761Y-71740533D01*
X139404761Y-71740533D02*
X139357142Y-71883390D01*
X139357142Y-71883390D02*
X138785714Y-72454819D01*
X138785714Y-72454819D02*
X139404761Y-72454819D01*
X140023809Y-71454819D02*
X140119047Y-71454819D01*
X140119047Y-71454819D02*
X140214285Y-71502438D01*
X140214285Y-71502438D02*
X140261904Y-71550057D01*
X140261904Y-71550057D02*
X140309523Y-71645295D01*
X140309523Y-71645295D02*
X140357142Y-71835771D01*
X140357142Y-71835771D02*
X140357142Y-72073866D01*
X140357142Y-72073866D02*
X140309523Y-72264342D01*
X140309523Y-72264342D02*
X140261904Y-72359580D01*
X140261904Y-72359580D02*
X140214285Y-72407200D01*
X140214285Y-72407200D02*
X140119047Y-72454819D01*
X140119047Y-72454819D02*
X140023809Y-72454819D01*
X140023809Y-72454819D02*
X139928571Y-72407200D01*
X139928571Y-72407200D02*
X139880952Y-72359580D01*
X139880952Y-72359580D02*
X139833333Y-72264342D01*
X139833333Y-72264342D02*
X139785714Y-72073866D01*
X139785714Y-72073866D02*
X139785714Y-71835771D01*
X139785714Y-71835771D02*
X139833333Y-71645295D01*
X139833333Y-71645295D02*
X139880952Y-71550057D01*
X139880952Y-71550057D02*
X139928571Y-71502438D01*
X139928571Y-71502438D02*
X140023809Y-71454819D01*
X140785714Y-71788152D02*
X140785714Y-72454819D01*
X140785714Y-71883390D02*
X140833333Y-71835771D01*
X140833333Y-71835771D02*
X140928571Y-71788152D01*
X140928571Y-71788152D02*
X141071428Y-71788152D01*
X141071428Y-71788152D02*
X141166666Y-71835771D01*
X141166666Y-71835771D02*
X141214285Y-71931009D01*
X141214285Y-71931009D02*
X141214285Y-72454819D01*
X142023809Y-71931009D02*
X141690476Y-71931009D01*
X141690476Y-72454819D02*
X141690476Y-71454819D01*
X141690476Y-71454819D02*
X142166666Y-71454819D01*
D12*
%TO.C,R15*%
X146765000Y-85860436D02*
X146765000Y-86314564D01*
X148235000Y-85860436D02*
X148235000Y-86314564D01*
%TO.C,C6*%
X141265000Y-85863748D02*
X141265000Y-86386252D01*
X142735000Y-85863748D02*
X142735000Y-86386252D01*
%TO.C,R12*%
X151412064Y-74765000D02*
X150957936Y-74765000D01*
X151412064Y-76235000D02*
X150957936Y-76235000D01*
%TO.C,R5*%
X131677500Y-74535436D02*
X131677500Y-74989564D01*
X133147500Y-74535436D02*
X133147500Y-74989564D01*
%TO.C,U4*%
X124100000Y-91650000D02*
X126100000Y-91650000D01*
X124100000Y-93850000D02*
X126100000Y-93850000D01*
X123760000Y-91660000D02*
X123480000Y-91660000D01*
X123760000Y-91380000D01*
X123760000Y-91660000D01*
G36*
X123760000Y-91660000D02*
G01*
X123480000Y-91660000D01*
X123760000Y-91380000D01*
X123760000Y-91660000D01*
G37*
%TO.C,C3*%
X136677500Y-78326248D02*
X136677500Y-78848752D01*
X138147500Y-78326248D02*
X138147500Y-78848752D01*
%TO.C,R20*%
X144765000Y-85860436D02*
X144765000Y-86314564D01*
X146235000Y-85860436D02*
X146235000Y-86314564D01*
%TO.C,R1*%
X121860436Y-77765000D02*
X122314564Y-77765000D01*
X121860436Y-79235000D02*
X122314564Y-79235000D01*
%TO.C,U2*%
X116000000Y-88900000D02*
X118000000Y-88900000D01*
X116000000Y-91100000D02*
X118000000Y-91100000D01*
X115660000Y-88910000D02*
X115380000Y-88910000D01*
X115660000Y-88630000D01*
X115660000Y-88910000D01*
G36*
X115660000Y-88910000D02*
G01*
X115380000Y-88910000D01*
X115660000Y-88630000D01*
X115660000Y-88910000D01*
G37*
%TO.C,R19*%
X146727064Y-82265000D02*
X146272936Y-82265000D01*
X146727064Y-83735000D02*
X146272936Y-83735000D01*
%TO.C,R18*%
X127265000Y-86314564D02*
X127265000Y-85860436D01*
X128735000Y-86314564D02*
X128735000Y-85860436D01*
%TO.C,J2*%
X104690000Y-78390000D02*
X113110000Y-78390000D01*
X104690000Y-88610000D02*
X104690000Y-78390000D01*
X105910000Y-78390000D02*
X105910000Y-79610000D01*
X105910000Y-79610000D02*
X110910000Y-79610000D01*
X105910000Y-87390000D02*
X110910000Y-87390000D01*
X105910000Y-88610000D02*
X105910000Y-87390000D01*
X106410000Y-81000000D02*
X106490000Y-80680000D01*
X106410000Y-83500000D02*
X106490000Y-83180000D01*
X106410000Y-86000000D02*
X106490000Y-85680000D01*
X106490000Y-80680000D02*
X109910000Y-80680000D01*
X106490000Y-81320000D02*
X106410000Y-81000000D01*
X106490000Y-83180000D02*
X109910000Y-83180000D01*
X106490000Y-83820000D02*
X106410000Y-83500000D01*
X106490000Y-85680000D02*
X109910000Y-85680000D01*
X106490000Y-86320000D02*
X106410000Y-86000000D01*
X109910000Y-80680000D02*
X109910000Y-81000000D01*
X109910000Y-81000000D02*
X109910000Y-81320000D01*
X109910000Y-81320000D02*
X106490000Y-81320000D01*
X109910000Y-83180000D02*
X109910000Y-83500000D01*
X109910000Y-83500000D02*
X109910000Y-83820000D01*
X109910000Y-83820000D02*
X106490000Y-83820000D01*
X109910000Y-85680000D02*
X109910000Y-86000000D01*
X109910000Y-86000000D02*
X109910000Y-86320000D01*
X109910000Y-86320000D02*
X106490000Y-86320000D01*
X109910000Y-87390000D02*
X109910000Y-79610000D01*
X110910000Y-79610000D02*
X110910000Y-78390000D01*
X110910000Y-82330000D02*
X110910000Y-82170000D01*
X110910000Y-84830000D02*
X110910000Y-84670000D01*
X110910000Y-87390000D02*
X110910000Y-88610000D01*
X110910000Y-87390000D02*
X113110000Y-87390000D01*
X113000000Y-86000000D02*
X113600000Y-86300000D01*
X113110000Y-78390000D02*
X113110000Y-79610000D01*
X113110000Y-79610000D02*
X110910000Y-79610000D01*
X113110000Y-87390000D02*
X113110000Y-88610000D01*
X113110000Y-88610000D02*
X104690000Y-88610000D01*
X113600000Y-85700000D02*
X113000000Y-86000000D01*
X113600000Y-86300000D02*
X113600000Y-85700000D01*
%TO.C,U5*%
X129000000Y-91650000D02*
X131000000Y-91650000D01*
X129000000Y-93850000D02*
X131000000Y-93850000D01*
X128660000Y-91660000D02*
X128380000Y-91660000D01*
X128660000Y-91380000D01*
X128660000Y-91660000D01*
G36*
X128660000Y-91660000D02*
G01*
X128380000Y-91660000D01*
X128660000Y-91380000D01*
X128660000Y-91660000D01*
G37*
%TO.C,R4*%
X136677500Y-74185436D02*
X136677500Y-74639564D01*
X138147500Y-74185436D02*
X138147500Y-74639564D01*
%TO.C,R3*%
X134265000Y-85860436D02*
X134265000Y-86314564D01*
X135735000Y-85860436D02*
X135735000Y-86314564D01*
%TO.C,R13*%
X150860436Y-80765000D02*
X151314564Y-80765000D01*
X150860436Y-82235000D02*
X151314564Y-82235000D01*
%TO.C,R11*%
X130765000Y-85860436D02*
X130765000Y-86314564D01*
X132235000Y-85860436D02*
X132235000Y-86314564D01*
%TO.C,C8*%
X146265000Y-74738748D02*
X146265000Y-75261252D01*
X147735000Y-74738748D02*
X147735000Y-75261252D01*
%TO.C,C2*%
X136261252Y-82265000D02*
X135738748Y-82265000D01*
X136261252Y-83735000D02*
X135738748Y-83735000D01*
%TO.C,R6*%
X143217500Y-78455436D02*
X143217500Y-78909564D01*
X144687500Y-78455436D02*
X144687500Y-78909564D01*
%TO.C,U1*%
X119240000Y-79790000D02*
X119240000Y-80535000D01*
X119240000Y-86210000D02*
X119240000Y-85465000D01*
X122000000Y-79790000D02*
X119240000Y-79790000D01*
X122000000Y-79790000D02*
X124760000Y-79790000D01*
X122000000Y-86210000D02*
X119240000Y-86210000D01*
X122000000Y-86210000D02*
X124760000Y-86210000D01*
X124760000Y-79790000D02*
X124760000Y-80535000D01*
X124760000Y-86210000D02*
X124760000Y-85465000D01*
X118450000Y-80535000D02*
X118210000Y-80205000D01*
X118690000Y-80205000D01*
X118450000Y-80535000D01*
G36*
X118450000Y-80535000D02*
G01*
X118210000Y-80205000D01*
X118690000Y-80205000D01*
X118450000Y-80535000D01*
G37*
%TO.C,C4*%
X134677500Y-78326248D02*
X134677500Y-78848752D01*
X136147500Y-78326248D02*
X136147500Y-78848752D01*
%TO.C,U3*%
X120500000Y-88900000D02*
X122500000Y-88900000D01*
X120500000Y-91100000D02*
X122500000Y-91100000D01*
X120160000Y-88910000D02*
X119880000Y-88910000D01*
X120160000Y-88630000D01*
X120160000Y-88910000D01*
G36*
X120160000Y-88910000D02*
G01*
X119880000Y-88910000D01*
X120160000Y-88630000D01*
X120160000Y-88910000D01*
G37*
%TO.C,R2*%
X140765000Y-74272936D02*
X140765000Y-74727064D01*
X142235000Y-74272936D02*
X142235000Y-74727064D01*
%TO.C,R14*%
X154727064Y-77765000D02*
X154272936Y-77765000D01*
X154727064Y-79235000D02*
X154272936Y-79235000D01*
%TO.C,RV1*%
X150240000Y-93110000D02*
X150240000Y-90210000D01*
X152034000Y-89390000D02*
X154966000Y-89390000D01*
X152390000Y-89390000D02*
X154610000Y-89390000D01*
X152390000Y-93110000D02*
X152390000Y-89390000D01*
X154610000Y-89390000D02*
X154610000Y-93110000D01*
X154610000Y-93110000D02*
X152390000Y-93110000D01*
X156760000Y-90210000D02*
X156760000Y-93110000D01*
X156760000Y-93110000D02*
X150240000Y-93110000D01*
%TO.C,C7*%
X151386252Y-78355000D02*
X150863748Y-78355000D01*
X151386252Y-79825000D02*
X150863748Y-79825000D01*
%TO.C,R8*%
X141177500Y-78447936D02*
X141177500Y-78902064D01*
X142647500Y-78447936D02*
X142647500Y-78902064D01*
%TO.C,R9*%
X146177500Y-78814564D02*
X146177500Y-78360436D01*
X147647500Y-78814564D02*
X147647500Y-78360436D01*
%TO.C,R16*%
X115814564Y-81765000D02*
X115360436Y-81765000D01*
X115814564Y-83235000D02*
X115360436Y-83235000D01*
%TO.C,C5*%
X131667500Y-78848752D02*
X131667500Y-78326248D01*
X133137500Y-78848752D02*
X133137500Y-78326248D01*
%TO.C,C16*%
X154811252Y-82765000D02*
X154288748Y-82765000D01*
X154811252Y-84235000D02*
X154288748Y-84235000D01*
%TO.C,U6*%
X133600000Y-91650000D02*
X135600000Y-91650000D01*
X133600000Y-93850000D02*
X135600000Y-93850000D01*
X133260000Y-91660000D02*
X132980000Y-91660000D01*
X133260000Y-91380000D01*
X133260000Y-91660000D01*
G36*
X133260000Y-91660000D02*
G01*
X132980000Y-91660000D01*
X133260000Y-91380000D01*
X133260000Y-91660000D01*
G37*
%TO.C,C10*%
X154288748Y-80765000D02*
X154811252Y-80765000D01*
X154288748Y-82235000D02*
X154811252Y-82235000D01*
%TO.C,R10*%
X155227064Y-74765000D02*
X154772936Y-74765000D01*
X155227064Y-76235000D02*
X154772936Y-76235000D01*
%TO.C,C9*%
X132811252Y-82265000D02*
X132288748Y-82265000D01*
X132811252Y-83735000D02*
X132288748Y-83735000D01*
%TO.C,R17*%
X115814564Y-83765000D02*
X115360436Y-83765000D01*
X115814564Y-85235000D02*
X115360436Y-85235000D01*
%TO.C,R7*%
X137765000Y-85860436D02*
X137765000Y-86314564D01*
X139235000Y-85860436D02*
X139235000Y-86314564D01*
%TO.C,J1*%
X157900000Y-76700000D02*
X157900000Y-77300000D01*
X157900000Y-77300000D02*
X158500000Y-77000000D01*
X158390000Y-74390000D02*
X166810000Y-74390000D01*
X158390000Y-75610000D02*
X158390000Y-74390000D01*
X158390000Y-83390000D02*
X160590000Y-83390000D01*
X158390000Y-84610000D02*
X158390000Y-83390000D01*
X158500000Y-77000000D02*
X157900000Y-76700000D01*
X160590000Y-75610000D02*
X158390000Y-75610000D01*
X160590000Y-75610000D02*
X160590000Y-74390000D01*
X160590000Y-78170000D02*
X160590000Y-78330000D01*
X160590000Y-80670000D02*
X160590000Y-80830000D01*
X160590000Y-83390000D02*
X160590000Y-84610000D01*
X161590000Y-75610000D02*
X161590000Y-83390000D01*
X161590000Y-76680000D02*
X165010000Y-76680000D01*
X161590000Y-77000000D02*
X161590000Y-76680000D01*
X161590000Y-77320000D02*
X161590000Y-77000000D01*
X161590000Y-79180000D02*
X165010000Y-79180000D01*
X161590000Y-79500000D02*
X161590000Y-79180000D01*
X161590000Y-79820000D02*
X161590000Y-79500000D01*
X161590000Y-81680000D02*
X165010000Y-81680000D01*
X161590000Y-82000000D02*
X161590000Y-81680000D01*
X161590000Y-82320000D02*
X161590000Y-82000000D01*
X165010000Y-76680000D02*
X165090000Y-77000000D01*
X165010000Y-77320000D02*
X161590000Y-77320000D01*
X165010000Y-79180000D02*
X165090000Y-79500000D01*
X165010000Y-79820000D02*
X161590000Y-79820000D01*
X165010000Y-81680000D02*
X165090000Y-82000000D01*
X165010000Y-82320000D02*
X161590000Y-82320000D01*
X165090000Y-77000000D02*
X165010000Y-77320000D01*
X165090000Y-79500000D02*
X165010000Y-79820000D01*
X165090000Y-82000000D02*
X165010000Y-82320000D01*
X165590000Y-74390000D02*
X165590000Y-75610000D01*
X165590000Y-75610000D02*
X160590000Y-75610000D01*
X165590000Y-83390000D02*
X160590000Y-83390000D01*
X165590000Y-84610000D02*
X165590000Y-83390000D01*
X166810000Y-74390000D02*
X166810000Y-84610000D01*
X166810000Y-84610000D02*
X158390000Y-84610000D01*
%TO.C,C1*%
X138765000Y-74761252D02*
X138765000Y-74238748D01*
X140235000Y-74761252D02*
X140235000Y-74238748D01*
%TD*%
M02*
